<svg width="299" height="63" viewBox="0 0 299 63" fill="none" xmlns="http://www.w3.org/2000/svg">
<g filter="url(#filter0_d_160_22584)">
<path d="M51.3358 27.487C51.9669 25.7171 52.2838 23.9153 52.2838 22.087C52.1729 20.5214 51.7266 19.1018 50.9476 17.8334C50.1686 16.565 48.9433 15.7265 47.2718 15.3152C46.1944 15.1666 45.1382 15.2117 44.0978 15.4558C43.0573 15.6999 42.0565 16.082 41.0901 16.6021C40.8286 16.7136 40.5698 16.902 40.3111 17.162C40.2741 17.1992 40.2556 17.2921 40.2556 17.4407C40.2556 17.5149 40.3295 17.5521 40.4774 17.5521C40.5514 17.5892 40.6359 17.5999 40.7283 17.5813C40.8207 17.5627 40.9052 17.5521 40.9791 17.5521C41.4254 17.4778 41.8875 17.4115 42.3708 17.3557C42.8514 17.3 43.3161 17.2708 43.7624 17.2708C44.2826 17.308 44.8002 17.43 45.3204 17.6344C45.8406 17.8387 46.3027 18.1306 46.712 18.5021C47.1213 18.8762 47.454 19.3326 47.7154 19.874C47.9742 20.4153 48.0851 21.0415 48.0482 21.7474C47.9373 22.7531 47.6573 23.8729 47.2137 25.1041C46.7674 26.3354 46.2208 27.5746 45.5712 28.8244C44.9216 30.0742 44.1875 31.2869 43.3716 32.4624C42.5556 33.638 41.7185 34.6543 40.8656 35.5114C40.01 36.3711 39.1677 37.0213 38.3332 37.4697C37.4988 37.9182 36.7462 38.0668 36.0781 37.9182C35.41 37.5467 35.0298 36.8753 34.9373 35.9041C34.8449 34.9356 34.9743 33.8264 35.3282 32.5739C35.6794 31.3241 36.1916 30.0265 36.8597 28.6838C37.5278 27.3411 38.2804 26.0912 39.1148 24.9343C39.9493 23.7773 40.8207 22.8088 41.7317 22.0233C42.6401 21.2405 43.4851 20.7921 44.2641 20.6806C44.7843 20.6063 44.9322 20.3649 44.7104 19.9536C44.5995 19.6935 44.4331 19.4865 44.2087 19.3379C43.7254 18.9664 43.1313 18.7409 42.4262 18.6666C41.2379 18.5551 40.0496 18.7223 38.8613 19.1708C37.6731 19.6192 36.5402 20.2348 35.4655 21.0176C33.2368 22.6973 31.457 24.73 30.1208 27.1155C29.3788 28.4582 28.8876 29.8779 28.6447 31.3692C28.5602 31.8972 28.5206 32.4306 28.5206 32.9719C28.135 33.4575 27.7574 33.906 27.393 34.3067C26.7989 34.9594 26.2417 35.445 25.7215 35.7608C25.2013 36.0792 24.7735 36.1244 24.4408 35.9015C24.1793 35.6414 23.9866 35.2566 23.8572 34.7551C23.7278 34.2509 23.6248 33.7017 23.5509 33.1046C23.4769 32.5076 23.4294 31.9211 23.4109 31.3426C23.3924 30.7642 23.3819 30.2892 23.3819 29.915C23.4188 28.0867 23.5218 26.2584 23.6882 24.4301C23.8545 22.6018 24.1054 20.7735 24.4408 18.9452C24.6995 17.6397 24.9874 16.3527 25.3043 15.0843C25.6185 13.8159 26.0014 12.5475 26.445 11.2791C26.7777 10.3105 27.158 9.35791 27.5858 8.42651C28.0109 7.49512 28.4862 6.57964 29.0064 5.68539C29.3022 5.12549 29.627 4.71684 29.9808 4.45414C30.332 4.19409 30.6304 4.0906 30.8707 4.14633C31.111 4.20205 31.288 4.40637 31.3989 4.76195C31.5098 5.11753 31.4728 5.64824 31.288 6.35674C30.7678 8.07359 30.0917 9.70553 29.2547 11.2526C28.4202 12.7996 27.5567 14.3944 26.6668 16.0369C26.4793 16.297 26.3051 16.7454 26.1387 17.3796C25.9723 18.0138 25.8218 18.6852 25.6924 19.3937C25.563 20.1022 25.4706 20.7656 25.4152 21.3812C25.3597 21.9968 25.3491 22.4161 25.3888 22.639C26.5031 20.9593 27.5884 19.2451 28.6473 17.4911C29.7062 15.7371 30.7546 13.8928 31.7923 11.9504C32.3865 10.7563 32.9067 9.55428 33.3503 8.3416C33.7966 7.12892 34.0923 5.81541 34.2402 4.39576C34.1663 2.68156 33.3688 1.61748 31.8451 1.20618C30.2475 0.757732 28.745 1.00186 27.3349 1.93326C26.8147 2.26761 26.3051 2.6338 25.8033 3.02387C25.3016 3.4166 24.8474 3.85443 24.4381 4.34003C23.3977 5.53414 22.5448 6.8105 21.8767 8.17177C21.2086 9.53305 20.5405 11.0535 19.8724 12.7332C19.4262 13.8902 19.0274 15.0657 18.6762 16.2598C18.3224 17.4539 17.9606 18.648 17.5909 19.8395C17.5909 19.9138 17.5724 20.0066 17.5355 20.1181C17.4985 20.2295 17.4615 20.341 17.4246 20.4551C16.4211 20.0836 15.3833 19.9801 14.3059 20.1473C13.2286 20.3145 12.1802 20.6435 11.1609 21.1264C10.139 21.612 9.15668 22.2091 8.20868 22.9176C7.26069 23.6261 6.41832 24.3346 5.6763 25.0431C5.08216 25.6401 4.50649 26.3115 3.94932 27.0571C3.39214 27.8028 2.90098 28.5962 2.47319 29.4347C2.04805 30.2733 1.70212 31.1516 1.44334 32.0644C1.18456 32.9799 1.03668 33.9007 0.99707 34.8347C0.99707 35.5061 1.13702 36.1403 1.41429 36.7373C1.69156 37.3344 2.07446 37.8465 2.55505 38.2764C3.03829 38.7063 3.59547 39.022 4.22658 39.229C4.8577 39.4333 5.54427 39.4811 6.28629 39.3697C7.32407 39.1468 8.29847 38.762 9.20949 38.2233C10.1179 37.682 10.9919 37.0584 11.8264 36.3499C12.6608 35.6414 13.4768 34.8958 14.2769 34.113C15.0744 33.3302 15.8824 32.5659 16.6984 31.8176C16.7723 32.5633 16.8832 33.3567 17.0337 34.1952C17.1816 35.0337 17.3955 35.8563 17.6728 36.6577C17.9527 37.4617 18.3145 38.2074 18.7581 38.8973C19.2044 39.5872 19.7959 40.1551 20.5405 40.6036C21.2825 40.9008 22.0166 40.9485 22.7402 40.7442C23.4637 40.5399 24.1793 40.2135 24.8844 39.765C26.0357 38.9822 27.1395 37.9845 28.1984 36.7718C28.444 36.4905 28.6843 36.204 28.9219 35.9121C28.9325 35.9466 28.9378 35.9811 28.9483 36.0182C29.2098 37.0266 29.7273 37.8837 30.5063 38.5922C31.2853 39.3007 32.2043 39.8234 33.2632 40.1578C34.3221 40.4921 35.4523 40.6327 36.659 40.577C37.8658 40.5213 39.0435 40.2321 40.1949 39.7093C41.8664 38.9265 43.4323 37.9102 44.9005 36.6604C46.3661 35.4105 47.6468 34.0121 48.7427 32.4624C49.8359 30.9154 50.6994 29.2543 51.3305 27.4817L51.3358 27.487ZM16.7855 25.6136C16.767 26.3593 16.738 27.0678 16.701 27.7391C16.0699 28.7475 15.2803 29.7452 14.335 30.7323C13.387 31.7221 12.3756 32.7013 11.3009 33.6698C11.1134 33.8184 10.9021 33.9882 10.6592 34.174C10.4163 34.3624 10.168 34.5375 9.90662 34.7047C9.6452 34.8719 9.37849 34.9939 9.09858 35.0682C8.82132 35.1425 8.55197 35.1425 8.29054 35.0682C7.88124 34.9568 7.68584 34.6198 7.70696 34.0599C7.72545 33.5 7.79146 33.0728 7.90237 32.7729C8.01328 32.0273 8.37505 31.1038 8.98768 30.0026C9.60031 28.904 10.3423 27.8479 11.2164 26.8422C12.0878 25.8339 13.0173 24.9953 13.9996 24.324C14.982 23.6526 15.922 23.3926 16.8119 23.5412C16.8119 24.1754 16.8014 24.8653 16.7829 25.611L16.7855 25.6136Z" fill="white"/>
<path d="M86.3352 47.1852C85.7226 47.8379 84.8776 48.3501 83.8028 48.7242C82.2449 49.1355 80.304 49.0878 77.9828 48.5836C75.6617 48.0794 73.0554 46.9331 70.1586 45.1419C70.7897 43.6878 71.3469 42.2416 71.8301 40.806C72.3107 39.3704 72.794 37.85 73.2772 36.2446C73.6099 35.1619 73.9083 34.0633 74.1671 32.9435C74.4259 31.8237 74.5764 30.7251 74.6134 29.6425C74.6134 29.0826 74.5579 28.4855 74.447 27.8513C74.447 27.2914 74.1698 26.9571 73.6126 26.843C73.1663 26.7687 72.7227 26.7501 72.2764 26.7873C71.8301 26.8244 71.405 26.9916 70.9957 27.2914C70.0292 27.8513 68.936 28.6341 67.7107 29.6425C66.4855 30.6509 65.2602 31.6194 64.0349 32.5535C63.8131 32.7419 63.4408 33.0284 62.9206 33.4212C62.4004 33.8139 61.8617 34.1589 61.3071 34.4561C60.75 34.7559 60.2218 34.931 59.7201 34.9868C59.2184 35.0425 58.8751 34.8276 58.6903 34.3419C58.5028 33.522 58.5688 32.6065 58.8857 31.6008C59.1999 30.5925 59.6567 29.5788 60.2509 28.5519C60.845 27.5276 61.5395 26.5299 62.3396 25.5587C63.1371 24.5901 63.9267 23.7304 64.7057 22.9847C65.5216 22.2391 66.4775 21.5491 67.5734 20.9149C68.6666 20.2807 69.7546 19.8164 70.832 19.5165C71.1647 19.4422 71.5001 19.4316 71.8354 19.4873C72.1681 19.5431 72.4296 19.7766 72.6144 20.1879C72.9102 20.562 73.0871 20.9813 73.1425 21.4457C73.198 21.9127 73.2825 22.4062 73.3934 22.929C73.4673 23.2633 73.6073 23.4703 73.8106 23.5446C74.014 23.6189 74.2648 23.4332 74.5632 22.9847C74.785 22.6132 74.9435 22.2391 75.0359 21.8649C75.1283 21.4934 75.2128 21.1193 75.2867 20.7451C75.5086 19.1795 75.0834 17.8925 74.006 16.8842C73.8185 16.7356 73.6337 16.6056 73.4488 16.4915C73.2614 16.38 73.0765 16.25 72.8917 16.0987C72.2606 15.576 71.5634 15.2602 70.8029 15.1461C70.0424 15.0347 69.2344 15.0532 68.3814 15.2018C66.0418 15.6131 63.7497 16.5737 61.5052 18.0836C59.258 19.5935 57.3567 21.3767 55.7988 23.4279C55.1676 24.3221 54.5735 25.2933 54.0163 26.3388C53.4591 27.3843 53.0129 28.4457 52.6801 29.5284C52.3474 30.611 52.1415 31.7096 52.0675 32.8294C51.9936 33.9492 52.1045 35.0319 52.4029 36.0747C52.5508 36.6346 52.8386 37.1096 53.2664 37.5023C53.6942 37.8951 54.1853 38.1923 54.7425 38.3966C55.2997 38.6009 55.9017 38.723 56.5513 38.7601C57.2009 38.7973 57.84 38.7415 58.4737 38.5929C59.3267 38.4443 60.1796 38.1657 61.0352 37.7544C61.8881 37.3431 62.7331 36.8416 63.5675 36.2446C64.402 35.6475 65.2285 35.0053 66.0445 34.3128C66.8604 33.6228 67.6605 32.9223 68.4395 32.2138C68.1411 33.4822 67.8084 34.7984 67.4361 36.1596C67.0638 37.5209 66.6571 38.8822 66.2108 40.2435C65.7646 41.6047 65.2549 42.9368 64.6793 44.245C64.1036 45.5506 63.483 46.7633 62.815 47.8831C61.5897 49.6742 60.3169 51.062 59.0019 52.0518C57.6842 53.0389 56.1341 53.7395 54.3517 54.1508C53.3878 54.2994 52.5138 54.1587 51.7348 53.7315C50.9558 53.3016 50.4726 52.5852 50.2877 51.5768C50.3986 50.2713 50.8449 49.1806 51.6239 48.3023C52.4029 47.4266 53.3509 46.7633 54.4626 46.3148C55.5769 45.8664 56.7811 45.6514 58.0829 45.67C59.3821 45.6886 60.6259 45.9592 61.8142 46.482C61.9251 46.3705 62.0914 46.1556 62.3159 45.8372C62.5377 45.5187 62.7621 45.1658 62.984 44.7731C63.2058 44.3804 63.4012 43.9903 63.5675 43.5976C63.7339 43.2048 63.8184 42.897 63.8184 42.6741C62.3317 42.1514 60.7183 41.955 58.9728 42.0877C57.2273 42.2177 55.5769 42.6476 54.0163 43.3747C52.4583 44.1017 51.0931 45.1101 49.9233 46.3971C48.7535 47.684 48.022 49.2231 47.7236 51.0143C47.5758 52.1712 47.6682 53.1955 48.0009 54.0924C48.3336 54.9866 48.8538 55.7429 49.5589 56.3585C50.2639 56.9741 51.109 57.4226 52.0913 57.7012C53.0762 57.9798 54.1431 58.0833 55.2944 58.009C58.1912 57.6747 60.7315 56.6663 62.9232 54.9866C65.1123 53.3069 67.0611 51.2557 68.7696 48.8304C70.2537 49.576 71.7298 50.1917 73.1953 50.6773C74.6609 51.1629 76.0816 51.4972 77.4547 51.6856C78.8279 51.8714 80.1376 51.8899 81.3814 51.7413C82.6251 51.5927 83.7474 51.2372 84.7508 50.6773C85.271 50.3774 85.7807 49.9767 86.2824 49.4752C86.7841 48.9737 87.1829 48.4403 87.4786 47.8804C87.7744 47.3205 87.9328 46.7526 87.9513 46.1742C87.9698 45.5957 87.7929 45.065 87.4232 44.5794C87.3123 45.662 86.9505 46.5271 86.3379 47.1799L86.3352 47.1852Z" fill="white"/>
<path d="M136.31 40.9467C136.199 40.9095 136.067 40.9838 135.919 41.1696C135.657 41.4668 135.446 41.7931 135.277 42.1487C135.111 42.5016 134.897 42.8493 134.635 43.1836C134.115 43.9293 133.624 44.3406 133.159 44.4149C132.694 44.4892 132.296 44.3406 131.963 43.9664C131.63 43.5923 131.387 43.043 131.239 42.3159C131.092 41.5888 131.073 40.7583 131.184 39.8269C131.295 38.7071 131.48 37.5607 131.741 36.3852C132 35.2097 132.298 34.0156 132.631 32.8029C132.966 31.5902 133.307 30.359 133.661 29.1091C134.012 27.8593 134.318 26.6201 134.58 25.3888C134.728 24.7546 134.857 24.0276 134.971 23.2076C135.082 22.3877 135.074 21.6234 134.944 20.9123C134.815 20.2038 134.535 19.6253 134.11 19.1769C133.682 18.7284 133.006 18.5612 132.077 18.6727C131.445 18.7841 130.87 19.0468 130.35 19.4555C129.198 20.3126 128.158 21.2546 127.231 22.2815C126.301 23.3085 125.486 24.2319 124.78 25.0518C125.19 23.6348 125.588 22.2444 125.977 20.8831C126.367 19.5218 126.597 18.0756 126.674 16.5472C126.748 15.6158 126.46 14.7666 125.81 13.9998C125.161 13.2355 124.334 12.9092 123.333 13.0206C122.219 13.1321 121.078 13.5434 119.908 14.2519C118.739 14.9604 117.606 15.8281 116.513 16.8523C115.417 17.8793 114.376 18.9699 113.394 20.1268C112.409 21.2838 111.548 22.3479 110.804 23.3164C110.804 23.0935 110.888 22.7379 111.054 22.2523C111.221 21.7694 111.398 21.2546 111.582 20.7133C111.767 20.1719 111.963 19.6306 112.166 19.0919C112.369 18.5506 112.528 18.0942 112.639 17.7201C112.75 17.2716 112.842 16.8152 112.919 16.3482C112.993 15.8811 113.003 15.4433 112.945 15.0347C112.89 14.6234 112.742 14.2598 112.499 13.944C112.256 13.6283 111.894 13.3948 111.413 13.2435C109.927 13.0206 108.704 13.5991 107.738 14.9789C107.217 15.576 106.753 16.2022 106.346 16.8523C105.937 17.5051 105.586 18.1871 105.287 18.8956C104.73 20.0897 104.228 21.2917 103.785 22.5044C103.338 23.7171 102.913 24.959 102.504 26.2247C102.058 27.7903 101.696 29.3665 101.419 30.9534C101.366 31.2506 101.326 31.5531 101.287 31.8529C100.806 32.3014 100.323 32.7472 99.8316 33.1903C98.9021 34.0288 97.8458 34.7108 96.6575 35.2335C96.2482 35.4219 95.9234 35.4564 95.6831 35.345C95.4402 35.2335 95.2554 35.0558 95.126 34.8143C94.9966 34.5728 94.9226 34.273 94.9041 33.92C94.8857 33.5671 94.8936 33.2195 94.9332 32.8851C95.118 31.1709 95.5538 29.4621 96.2403 27.7664C96.9269 26.0682 97.6055 24.3805 98.2736 22.7034C98.6433 21.8463 98.7753 20.9892 98.6644 20.1295C98.5905 19.3095 98.1548 18.7496 97.3547 18.4498C96.5572 18.1526 95.6937 18.3569 94.7668 19.0654C94.4341 19.3653 94.1172 19.6625 93.8188 19.9597C93.5205 20.2595 93.2432 20.6124 92.9844 21.0237C92.0945 22.4779 91.4159 24.009 90.9511 25.6117C90.4863 27.2171 89.9952 28.9499 89.475 30.8154C88.8808 31.5982 88.2867 32.2244 87.6925 32.6888C87.0984 33.1558 86.4303 33.6494 85.6883 34.1721C85.5008 34.3207 85.2711 34.4614 84.9912 34.5914C84.7139 34.7214 84.434 34.8063 84.1567 34.8435C83.8794 34.8806 83.6075 34.8541 83.3487 34.7586C83.0872 34.6657 82.9024 34.4507 82.7915 34.1137C82.604 33.2195 82.5776 32.304 82.707 31.3726C82.8364 30.4412 83.0503 29.4992 83.3487 28.5466C83.6444 27.5939 83.9692 26.636 84.3231 25.6648C84.6743 24.6936 84.9991 23.7436 85.2975 22.8122C85.4453 22.3266 85.5853 21.8331 85.7147 21.3289C85.8441 20.8247 85.8731 20.3126 85.7992 19.7898C85.7253 18.41 84.9463 17.8687 83.4596 18.1685C82.4931 18.4684 81.6587 18.9885 80.9536 19.7341C80.2485 20.4798 79.6914 21.3395 79.2821 22.3081C78.8015 23.2023 78.3367 24.1815 77.8904 25.2456C77.4442 26.3096 77.093 27.4082 76.8315 28.5466C76.5728 29.685 76.4143 30.8233 76.3589 31.9591C76.3034 33.0974 76.4249 34.188 76.7206 35.2335C76.9081 36.0933 77.3148 36.8841 77.9459 37.6111C78.577 38.3382 79.3745 38.7946 80.341 38.983C81.4184 39.1316 82.4482 39.0016 83.4305 38.5903C84.4129 38.179 85.3688 37.6589 86.2983 37.0247C86.8185 36.6532 87.3202 36.2684 87.8008 35.8784C88.284 35.4856 88.7646 35.0876 89.2479 34.6763L89.3588 34.7877C89.6176 35.6475 89.9714 36.3932 90.4177 37.0274C90.864 37.6616 91.532 38.1843 92.4219 38.5929C93.164 38.8901 93.9535 38.9459 94.788 38.7601C95.6224 38.5717 96.412 38.2745 97.154 37.8659C98.1574 37.3829 99.1028 36.7753 99.9927 36.0482C100.368 35.7404 100.732 35.4219 101.091 35.0929C101.094 35.345 101.091 35.5971 101.104 35.8545C101.104 36.1543 101.133 36.4621 101.189 36.7779C101.244 37.0963 101.337 37.3935 101.466 37.6722C101.596 37.9508 101.772 38.1949 101.994 38.3992C102.216 38.6036 102.496 38.7256 102.829 38.7628C103.275 38.8371 103.711 38.7999 104.136 38.6513C104.564 38.5027 104.962 38.2798 105.332 37.98C105.702 37.6828 106.029 37.3192 106.306 36.8894C106.584 36.4621 106.816 36.0216 107.004 35.5732C107.225 34.7904 107.569 33.9041 108.033 32.9143C108.498 31.9272 109.016 30.9189 109.591 29.8919C110.167 28.8677 110.769 27.8699 111.4 26.8987C112.031 25.9302 112.626 25.0518 113.183 24.269C113.663 23.5977 114.194 22.9078 114.77 22.1993C115.345 21.4908 115.958 20.8008 116.608 20.1295C117.257 19.4581 117.907 18.8346 118.556 18.2561C119.206 17.6776 119.864 17.2026 120.534 16.8285C120.236 17.5741 119.911 18.3755 119.56 19.2352C119.206 20.0923 118.844 20.9335 118.475 21.7535C118.065 22.7247 117.704 23.7118 117.389 24.7201C117.072 25.7285 116.748 26.7156 116.415 27.6868C116.116 28.6209 115.831 29.5257 115.551 30.4014C115.274 31.2771 114.986 32.1846 114.688 33.116C114.242 34.4216 114.334 35.6157 114.965 36.6983C115.485 37.781 116.219 38.3382 117.165 38.378C118.113 38.4152 119.029 37.9296 119.922 36.9239C120.291 36.5126 120.608 36.0296 120.867 35.4697C121.572 34.127 122.333 32.8108 123.151 31.5239C123.967 30.2369 124.823 28.9791 125.713 27.7479C126.159 27.1137 126.621 26.4609 127.104 25.7895C127.587 25.1182 128.163 24.4283 128.831 23.7198C128.683 24.8767 128.414 26.0416 128.023 27.2171C127.632 28.3927 127.289 29.6319 126.993 30.9374C126.695 32.0201 126.465 33.1001 126.296 34.1827C126.13 35.2654 126.027 36.3454 125.99 37.428C125.99 38.3966 126.101 39.4713 126.323 40.6441C126.544 41.8197 126.906 42.8838 127.408 43.8337C127.91 44.7837 128.586 45.5479 129.441 46.1264C130.294 46.7049 131.353 46.8827 132.615 46.6571C133.172 46.5085 133.674 46.2458 134.118 45.8743C134.564 45.5002 134.963 45.0995 135.314 44.6723C135.665 44.2424 135.945 43.7966 136.148 43.3296C136.352 42.8625 136.492 42.4247 136.566 42.0134C136.603 41.9019 136.621 41.7613 136.621 41.5941C136.621 41.4269 136.592 41.2863 136.537 41.1749C136.481 41.0634 136.397 40.9865 136.286 40.952L136.31 40.9467Z" fill="white"/>
<path d="M75.2207 6.71313H73.4172L73.3723 7.19343C73.2085 8.96866 71.5925 10.2583 69.5328 10.2583C68.6165 10.2583 67.9801 9.99559 67.5259 9.42507C67.1799 8.99785 66.9951 8.45387 66.9951 7.84886C66.9951 7.67638 66.9951 7.52778 67.0321 7.34734L67.1588 6.71313H65.4767C65.004 6.75294 64.2937 6.94665 64.2224 7.74537C64.2224 7.79579 64.2224 7.8462 64.2224 7.89662C64.2224 9.15175 64.6238 10.2716 65.4107 11.2189C66.3481 12.3705 67.7028 12.9543 69.4403 12.9543C72.8019 12.9543 75.4927 10.7598 76.0869 7.59146C76.1027 7.24385 75.9707 6.79805 75.2207 6.71313V6.71313Z" fill="white"/>
<path d="M271.302 18.8425C271.228 18.0969 270.995 17.4255 270.605 16.8285C270.214 16.2314 269.667 15.8759 268.962 15.7644C267.7 15.5415 266.401 15.6052 265.064 15.9608C263.728 16.3164 262.474 16.855 261.307 17.5821C260.137 18.3092 259.115 19.1769 258.244 20.1852C257.372 21.1909 256.768 22.2179 256.435 23.2634C256.213 23.7861 256.11 24.3726 256.129 25.0253C256.147 25.6781 256.25 26.3309 256.435 26.9837C256.609 27.5966 256.86 28.1592 257.179 28.6713C257.071 28.8252 256.963 28.9791 256.852 29.1383C256.092 30.221 255.31 31.2745 254.512 32.2987C253.715 33.3257 253.01 34.1376 252.397 34.732C251.785 35.3291 251.283 35.6183 250.895 35.5998C250.504 35.5812 250.345 35.069 250.422 34.0607C250.496 33.0921 250.57 32.1289 250.644 31.1789C250.718 30.229 250.792 29.2684 250.866 28.2972C250.977 27.5887 250.884 27.0367 250.588 26.6467C250.29 26.2539 249.91 26.0018 249.448 25.8904C248.983 25.7789 248.492 25.8267 247.972 26.031C247.451 26.2354 247.005 26.6015 246.635 27.1216C246.226 27.6444 245.938 28.1857 245.772 28.743C245.606 29.3029 245.355 29.8442 245.019 30.3669C243.609 31.5982 242.189 32.7074 240.76 33.6972C239.331 34.6869 237.67 35.4963 235.777 36.1305C235.405 36.2048 235.154 36.1225 235.024 35.8784C234.895 35.6369 234.837 35.3371 234.858 34.9841C234.877 34.6312 234.932 34.265 235.024 33.8935C235.117 33.522 235.22 33.2407 235.331 33.055C235.663 32.1236 236.184 31.1232 236.889 30.0618C237.594 28.9977 238.428 27.9549 239.395 26.9279C240.359 25.9037 241.454 24.9616 242.68 24.1019C243.905 23.2448 245.204 22.5549 246.577 22.0321C247.319 21.7721 247.747 22.0321 247.858 22.8149C247.858 22.9635 247.847 23.1705 247.829 23.4305C247.81 23.6932 247.892 23.879 248.08 23.9904C248.339 24.1019 248.545 24.0276 248.692 23.7675C248.84 23.5075 248.97 23.3005 249.083 23.1519C249.603 22.1436 249.704 21.1644 249.39 20.2144C249.073 19.2618 248.526 18.5825 247.747 18.1712C246.448 17.537 245.019 17.3592 243.459 17.6405C241.901 17.9191 240.34 18.4896 238.782 19.3467C237.295 20.2808 235.922 21.3608 234.663 22.592C233.4 23.8233 232.323 25.1474 231.433 26.5644C230.543 27.9814 229.846 29.4382 229.344 30.9295C229.072 31.7388 228.877 32.5349 228.753 33.3204C228.021 34.3367 227.264 35.3397 226.477 36.3295C225.362 37.7279 224.229 38.9884 223.081 40.1055C222.748 40.3655 222.413 40.5884 222.077 40.7768C221.745 40.9626 221.372 41.0926 220.963 41.1696C220.48 41.281 220.147 41.1775 219.96 40.8618C219.772 40.5433 219.661 40.1241 219.627 39.604C219.516 38.5585 219.534 37.3564 219.682 35.9951C219.83 34.6339 220.073 33.2063 220.406 31.715C220.739 30.2237 221.137 28.6925 221.602 27.1269C222.067 25.5613 222.547 24.07 223.049 22.6504C223.551 21.2334 224.053 19.9278 224.552 18.7337C225.053 17.5396 225.526 16.5339 225.972 15.7113C226.046 15.6742 226.26 15.6662 226.614 15.6848C226.965 15.7034 227.345 15.722 227.755 15.7405C228.164 15.7591 228.563 15.7777 228.951 15.7963C229.342 15.8148 229.608 15.8254 229.759 15.8254C230.316 15.8254 230.797 15.7511 231.206 15.6025C231.726 15.4168 232.162 15.1355 232.516 14.764C232.867 14.3925 233.081 13.9441 233.157 13.4213C233.268 12.8243 233.102 12.3944 232.656 12.1343C232.209 11.8743 231.663 11.7151 231.013 11.6594C230.364 11.6036 229.714 11.5957 229.064 11.6328C228.415 11.67 227.924 11.6885 227.588 11.6885C227.998 10.8314 228.441 10.0088 228.925 9.22604C229.408 8.44324 229.873 7.62329 230.316 6.76354C230.39 6.57779 230.456 6.4 230.512 6.23283C230.567 6.06566 230.633 5.88787 230.707 5.70212C230.855 5.33062 230.966 4.90074 231.04 4.41514C231.114 3.74379 230.918 3.20247 230.456 2.79382C229.991 2.38252 229.389 2.23392 228.647 2.34537C228.164 2.41967 227.718 2.56827 227.311 2.79382C226.902 3.01672 226.514 3.29799 226.141 3.63234C225.064 4.82644 224.082 6.07627 223.189 7.38182C222.299 8.68737 221.407 10.1999 220.517 11.9141C220.107 12.0255 219.653 12.1476 219.151 12.2776C218.65 12.4077 218.122 12.5563 217.564 12.7261C217.007 12.8933 216.471 13.0817 215.948 13.286C215.428 13.4903 214.966 13.7424 214.557 14.0423C214.298 14.1537 214.103 14.3421 213.973 14.6022C213.844 14.8649 213.815 15.0506 213.889 15.1621C214 15.3107 214.132 15.385 214.279 15.385C214.427 15.385 214.578 15.3664 214.726 15.3292C215.616 15.2549 216.405 15.2178 217.092 15.2178C217.778 15.2178 218.417 15.1992 219.014 15.1621C218.124 17.2133 217.324 19.3308 216.619 21.512C215.914 23.6932 215.338 25.8585 214.892 28.0026C214.446 30.1467 214.132 32.2191 213.947 34.2146C213.762 36.2101 213.743 38.0463 213.891 39.726C214.227 41.2545 214.95 42.5043 216.062 43.4755C216.582 43.8868 217.155 44.2026 217.789 44.4255C218.42 44.6484 219.125 44.7227 219.904 44.6484C220.572 44.5741 221.193 44.3963 221.768 44.1177C222.344 43.8391 222.909 43.4914 223.466 43.0828C224.766 42.0373 226.001 40.7875 227.169 39.3333C227.736 38.6275 228.283 37.9057 228.811 37.1733C228.951 37.7598 229.154 38.256 229.424 38.662C229.944 39.4448 230.612 39.9489 231.428 40.1718C232.244 40.3947 233.173 40.3762 234.211 40.1161C235.249 39.8534 236.289 39.4076 237.33 38.7734C237.887 38.5107 238.489 38.1764 239.139 37.7651C239.788 37.3538 240.446 36.8973 241.116 36.3932C241.784 35.889 242.424 35.3848 243.039 34.8833C243.651 34.3791 244.198 33.9041 244.681 33.4557C244.718 34.0899 244.755 34.7533 244.792 35.4432C244.829 36.1331 244.932 36.7965 245.099 37.4307C245.265 38.0649 245.563 38.6248 245.988 39.1104C246.414 39.596 247.037 39.9489 247.853 40.1745C248.669 40.2116 249.503 39.9596 250.359 39.4182C251.212 38.8769 252.067 38.1684 252.92 37.2927C253.773 36.4171 254.61 35.4379 255.426 34.3552C256.242 33.2726 257.021 32.182 257.766 31.0808C257.99 30.7464 258.209 30.4174 258.423 30.091C258.426 30.0936 258.431 30.0963 258.434 30.0989C259.065 30.7703 259.799 31.4974 260.633 32.2802C261.468 33.063 262.202 33.8272 262.833 34.5755C263.129 35.2097 263.084 35.881 262.693 36.5895C262.302 37.298 261.69 38.0065 260.855 38.715C260.021 39.4235 259.046 40.1214 257.932 40.814C256.818 41.5039 255.677 42.1567 254.507 42.7723C253.337 43.388 252.215 43.9664 251.138 44.5078C250.06 45.0491 249.17 45.5055 248.465 45.8796C248.28 45.9911 248.114 46.1211 247.964 46.2724C247.816 46.421 247.668 46.5696 247.517 46.7208C247.333 46.9066 247.277 47.0552 247.351 47.1693C247.388 47.3179 247.554 47.3922 247.853 47.3922C248.04 47.355 248.207 47.3179 248.354 47.2807C248.502 47.2436 248.671 47.2064 248.856 47.1693C250.007 46.8694 251.148 46.5059 252.281 46.0787C253.414 45.6488 254.536 45.1924 255.651 44.7068C256.765 44.2583 257.969 43.7276 259.271 43.112C260.57 42.4964 261.814 41.825 263.002 41.0979C264.19 40.3709 265.239 39.5774 266.147 38.7203C267.056 37.8632 267.66 36.9478 267.956 35.9792C268.513 34.748 268.79 33.7502 268.79 32.986C268.79 32.2218 268.569 31.5319 268.122 30.9162C267.676 30.3006 267.045 29.685 266.229 29.0694C265.413 28.4537 264.447 27.7187 263.332 26.8589C262.738 26.299 262.506 25.7391 262.635 25.1792C262.764 24.6193 263.1 24.0886 263.639 23.5844C264.177 23.0803 264.827 22.6318 265.587 22.2417C266.348 21.849 267.063 21.5412 267.732 21.3183C268.4 21.0211 268.864 20.9548 269.123 21.1219C269.382 21.2891 269.54 21.5226 269.596 21.8225C269.651 22.1223 269.68 22.3903 269.68 22.6345C269.68 22.8786 269.736 22.9051 269.847 22.7194C270.404 22.3479 270.803 21.7959 271.043 21.0689C271.283 20.3418 271.368 19.6068 271.294 18.8585L271.302 18.8425Z" fill="#FEA38E"/>
<path d="M289.955 24.4124C289.881 24.0966 289.678 24.0488 289.343 24.2717L288.675 25.1102C288.228 25.7073 287.579 26.5936 286.726 27.7691C285.873 28.9446 284.943 30.1202 283.942 31.2957C282.939 32.4712 281.92 33.5247 280.879 34.4561C279.839 35.3901 278.931 35.9102 278.152 36.0217C277.483 36.1331 277.056 35.958 276.871 35.491C276.683 35.0239 276.628 34.4932 276.704 33.8962C277.037 32.3306 277.576 30.7544 278.318 29.1675C279.06 27.5834 279.802 25.893 280.547 24.1045C280.842 23.396 280.993 22.7061 280.993 22.0348C281.03 21.6235 280.966 21.252 280.797 20.915C280.631 20.5806 280.425 20.2993 280.185 20.0764C279.942 19.8535 279.657 19.6758 279.321 19.5457C278.989 19.4157 278.672 19.3494 278.373 19.3494C277 19.3494 275.867 19.9093 274.977 21.0291C274.79 21.2891 274.616 21.5598 274.449 21.8411C274.283 22.1197 274.125 22.4116 273.977 22.7088C273.124 24.5742 272.345 26.4105 271.637 28.2202C270.932 30.0299 270.56 31.9962 270.523 34.1244C270.486 35.207 270.671 36.1676 271.08 37.0061C271.489 37.8447 272.054 38.5081 272.778 38.9937C273.501 39.4766 274.346 39.7393 275.313 39.7765C276.277 39.8136 277.299 39.5721 278.376 39.0494C279.379 38.4895 280.409 37.7253 281.466 36.7541C282.524 35.7855 283.544 34.7214 284.529 33.5645C285.511 32.4075 286.43 31.2055 287.286 29.9556C288.138 28.7058 288.844 27.5409 289.401 26.4582C289.475 26.2725 289.559 26.0761 289.652 25.8718C289.744 25.6675 289.828 25.4526 289.902 25.227C290.013 25.0041 290.032 24.7334 289.958 24.415L289.955 24.4124Z" fill="#FEA38E"/>
<path d="M247.832 54.8566C248.669 54.8566 249.347 54.1747 249.347 53.3334C249.347 52.4922 248.669 51.8103 247.832 51.8103C246.994 51.8103 246.316 52.4922 246.316 53.3334C246.316 54.1747 246.994 54.8566 247.832 54.8566Z" fill="white"/>
<path d="M265.025 48.045C264.716 48.0025 264.412 48.0158 264.116 48.0848C263.818 48.1537 263.53 48.2625 263.256 48.4138C263.182 48.4456 263.108 48.4987 263.031 48.573C263.02 48.5836 263.015 48.6102 263.015 48.6526C263.015 48.6738 263.036 48.6845 263.079 48.6845C263.1 48.6951 263.123 48.6977 263.15 48.6924C263.176 48.6871 263.2 48.6845 263.221 48.6845C263.348 48.6632 263.483 48.6447 263.62 48.6287C263.757 48.6128 263.892 48.6049 264.019 48.6049C264.167 48.6155 264.317 48.65 264.465 48.7083C264.613 48.7667 264.747 48.849 264.864 48.9578C264.98 49.0639 265.075 49.1966 265.152 49.3505C265.225 49.5044 265.257 49.6849 265.247 49.8865C265.215 50.1758 265.136 50.4942 265.006 50.8471C264.877 51.2 264.721 51.5556 264.536 51.9138C264.349 52.2721 264.14 52.6197 263.905 52.9567C263.67 53.2937 263.432 53.5856 263.187 53.8297C262.941 54.0738 262.701 54.2622 262.461 54.3896C262.22 54.517 262.006 54.5594 261.814 54.517C261.621 54.4108 261.513 54.2171 261.486 53.9412C261.46 53.6625 261.497 53.3468 261.597 52.9885C261.698 52.6303 261.845 52.2588 262.036 51.874C262.228 51.4893 262.442 51.131 262.683 50.7993C262.923 50.4677 263.171 50.1917 263.432 49.9661C263.694 49.7406 263.934 49.6132 264.159 49.5814C264.306 49.5601 264.349 49.4911 264.285 49.3744C264.254 49.3001 264.206 49.2417 264.143 49.1993C264.005 49.0931 263.834 49.0294 263.633 49.0055C263.292 48.9737 262.952 49.0215 262.611 49.1488C262.271 49.2762 261.946 49.454 261.639 49.6769C261 50.1572 260.491 50.741 260.108 51.4229C259.997 51.6246 259.907 51.8316 259.836 52.0439C259.506 52.3703 259.152 52.6913 258.769 53.0098C258.568 53.169 258.344 53.3361 258.098 53.506C257.853 53.6758 257.597 53.8324 257.325 53.9703C257.053 54.1083 256.775 54.2145 256.488 54.2835C256.2 54.3525 255.915 54.3604 255.627 54.3074C255.307 54.2012 255.125 54.0102 255.077 53.7395C255.03 53.4662 255.054 53.1716 255.149 52.8505C255.244 52.5295 255.381 52.2163 255.555 51.9138C255.73 51.6087 255.888 51.3778 256.025 51.216C256.12 51.1098 256.247 50.9798 256.4 50.8312C256.554 50.6826 256.723 50.5526 256.902 50.4464C257.082 50.3403 257.269 50.266 257.459 50.2209C257.652 50.1784 257.832 50.2049 258.001 50.3005C258.085 50.3642 258.08 50.4225 257.985 50.4756C257.803 50.5711 257.639 50.6932 257.491 50.8365C257.343 50.9798 257.203 51.1337 257.076 51.2929C256.95 51.4309 256.852 51.6034 256.789 51.805C256.725 52.1049 256.836 52.2747 257.124 52.3172C257.187 52.3384 257.245 52.3384 257.298 52.3172C257.467 52.2853 257.628 52.211 257.776 52.0916C258.286 51.7069 258.632 51.216 258.814 50.6162C258.898 50.3482 258.901 50.1174 258.822 49.9184C258.743 49.7193 258.595 49.5469 258.384 49.3983C258.032 49.1727 257.657 49.0719 257.259 49.0931C256.86 49.1143 256.466 49.2072 256.078 49.3744C255.69 49.5389 255.326 49.7565 254.985 50.0245C254.644 50.2925 254.357 50.5685 254.124 50.8577C253.91 51.1363 253.723 51.4495 253.559 51.7944C253.395 52.142 253.287 52.495 253.24 52.8532C253.192 53.2114 253.221 53.5617 253.327 53.904C253.432 54.2463 253.657 54.5515 253.997 54.8168C254.296 55.0318 254.615 55.1618 254.953 55.2096C255.294 55.2573 255.65 55.2441 256.023 55.1698C256.704 55.0318 257.327 54.785 257.898 54.4321C258.465 54.0791 259.028 53.6466 259.58 53.1345C259.603 53.1132 259.627 53.0894 259.651 53.0655C259.648 53.36 259.685 53.6599 259.77 53.9677C259.844 54.2569 259.994 54.5011 260.216 54.7054C260.441 54.9071 260.702 55.0583 261.006 55.1538C261.309 55.2494 261.634 55.2892 261.977 55.2732C262.323 55.2573 262.661 55.1751 262.991 55.0238C263.469 54.7983 263.918 54.509 264.338 54.1508C264.758 53.7926 265.125 53.3919 265.439 52.9487C265.754 52.5056 265.999 52.0306 266.181 51.5211C266.361 51.0143 266.453 50.4968 266.453 49.9741C266.422 49.5256 266.295 49.1196 266.07 48.7561C265.849 48.3926 265.497 48.1537 265.017 48.0343L265.025 48.045Z" fill="white"/>
<path d="M276.741 55.4484C276.726 55.4165 276.702 55.3953 276.67 55.3847C276.638 55.3741 276.601 55.3953 276.559 55.4484C276.485 55.5333 276.425 55.6262 276.377 55.7296C276.329 55.8305 276.269 55.9313 276.195 56.0268C276.047 56.2391 275.904 56.3585 275.772 56.3798C275.64 56.401 275.524 56.3585 275.429 56.2524C275.334 56.1463 275.263 55.987 275.22 55.7801C275.178 55.5731 275.173 55.3343 275.205 55.0663C275.236 54.7452 275.289 54.4161 275.363 54.0791C275.437 53.7421 275.521 53.3998 275.619 53.0522C275.714 52.7046 275.812 52.3517 275.915 51.9934C276.015 51.6352 276.102 51.2796 276.179 50.9267C276.221 50.7463 276.258 50.5366 276.29 50.3005C276.322 50.0643 276.319 49.8467 276.282 49.6424C276.245 49.4407 276.166 49.2735 276.042 49.1462C275.92 49.0188 275.725 48.971 275.461 49.0029C275.278 49.0347 275.115 49.109 274.967 49.2284C274.637 49.4752 274.338 49.7432 274.074 50.0378C273.808 50.3323 273.575 50.595 273.372 50.8312C273.488 50.4252 273.604 50.0271 273.715 49.6371C273.826 49.247 273.892 48.833 273.916 48.3952C273.937 48.1272 273.855 47.8857 273.668 47.6655C273.483 47.4452 273.245 47.3524 272.957 47.3842C272.638 47.416 272.31 47.5328 271.978 47.7371C271.642 47.9388 271.317 48.1882 271.003 48.4828C270.689 48.7773 270.391 49.0904 270.111 49.4195C269.828 49.7512 269.583 50.0563 269.369 50.3323C269.369 50.2686 269.392 50.1678 269.44 50.0271C269.488 49.8892 269.538 49.7406 269.591 49.5867C269.643 49.4328 269.699 49.2762 269.757 49.1223C269.815 48.9684 269.86 48.8357 269.892 48.7296C269.923 48.6022 269.95 48.4695 269.971 48.3368C269.992 48.2042 269.995 48.0768 269.979 47.96C269.963 47.8433 269.921 47.7371 269.852 47.6469C269.783 47.5567 269.678 47.4903 269.54 47.4452C269.115 47.3816 268.764 47.5461 268.487 47.9414C268.339 48.1113 268.204 48.2917 268.088 48.4775C267.972 48.6632 267.869 48.8596 267.784 49.0613C267.626 49.4036 267.481 49.7485 267.354 50.0961C267.227 50.4438 267.103 50.7993 266.987 51.1629C266.86 51.6113 266.754 52.0624 266.675 52.5162C266.596 52.9699 266.567 53.437 266.588 53.9199C266.588 54.0048 266.596 54.0924 266.612 54.1853C266.628 54.2755 266.654 54.3604 266.691 54.4427C266.728 54.5223 266.778 54.5913 266.842 54.6523C266.905 54.7107 266.984 54.7452 267.082 54.7558C267.209 54.777 267.335 54.7664 267.457 54.7239C267.578 54.6815 267.695 54.6178 267.8 54.5329C267.906 54.448 267.998 54.3445 268.08 54.2198C268.159 54.0977 268.225 53.9703 268.278 53.843C268.341 53.6174 268.439 53.3653 268.574 53.0814C268.706 52.7975 268.856 52.5109 269.02 52.2163C269.184 51.9218 269.358 51.6379 269.538 51.3592C269.717 51.0806 269.889 50.8312 270.047 50.6056C270.185 50.4119 270.338 50.2156 270.502 50.0139C270.665 49.8122 270.842 49.6132 271.027 49.4221C271.212 49.2284 271.399 49.0506 271.584 48.8861C271.769 48.7216 271.959 48.5836 272.149 48.4775C272.065 48.6924 271.972 48.9206 271.869 49.1674C271.769 49.4142 271.663 49.653 271.558 49.8892C271.442 50.1678 271.336 50.4491 271.246 50.7383C271.156 51.0275 271.064 51.3115 270.966 51.5874C270.882 51.8554 270.8 52.1128 270.718 52.3649C270.639 52.617 270.557 52.8744 270.47 53.1424C270.343 53.5166 270.37 53.8589 270.549 54.1694C270.697 54.4798 270.908 54.639 271.18 54.6496C271.452 54.6603 271.714 54.5223 271.97 54.233C272.075 54.1163 272.165 53.9756 272.242 53.8164C272.442 53.4317 272.662 53.0549 272.897 52.686C273.132 52.3172 273.375 51.9563 273.631 51.6034C273.757 51.4229 273.892 51.2345 274.029 51.0435C274.167 50.8524 274.333 50.6534 274.523 50.4517C274.481 50.7834 274.404 51.1178 274.291 51.4548C274.18 51.7918 274.082 52.1473 273.995 52.5215C273.911 52.832 273.845 53.1424 273.794 53.4502C273.747 53.7607 273.718 54.0712 273.707 54.379C273.707 54.6576 273.739 54.9628 273.802 55.2998C273.866 55.6368 273.969 55.9419 274.114 56.2126C274.259 56.4833 274.452 56.7035 274.695 56.8707C274.938 57.0379 275.242 57.0883 275.603 57.0219C275.762 56.9795 275.907 56.9052 276.034 56.799C276.16 56.6929 276.277 56.5761 276.377 56.4541C276.477 56.332 276.557 56.202 276.617 56.0693C276.675 55.9366 276.715 55.8093 276.736 55.6925C276.747 55.6607 276.752 55.6209 276.752 55.5731C276.752 55.5253 276.744 55.4855 276.728 55.4537L276.741 55.4484Z" fill="white"/>
<path d="M211.945 39.1555C211.758 39.1926 211.61 39.2775 211.499 39.4076C211.388 39.5376 211.256 39.6411 211.108 39.7154C210.849 39.9011 210.588 40.0869 210.329 40.2753C210.07 40.461 209.79 40.6282 209.495 40.7795C208.827 41.151 208.166 41.273 207.517 41.143C206.867 41.013 206.524 40.5751 206.487 39.8295C206.524 38.6354 206.783 37.3856 207.266 36.08C207.746 34.7745 208.285 33.4689 208.882 32.1634C209.476 30.8578 210.052 29.5629 210.609 28.2732C211.166 26.9863 211.573 25.7736 211.834 24.6352C212.093 23.4968 212.111 22.4434 211.89 21.4748C211.668 20.5063 211.074 19.6465 210.107 18.9009C209.291 18.1924 208.325 17.8474 207.213 17.866C206.099 17.8846 204.947 18.2003 203.762 18.8186C202.573 19.4342 201.404 20.294 200.255 21.3926C199.104 22.4938 198.084 23.733 197.192 25.1128C197.34 24.6644 197.48 24.2823 197.609 23.9665C197.738 23.6507 197.878 23.3323 198.026 23.0139C198.174 22.6981 198.322 22.3797 198.473 22.0613C198.62 21.7455 198.787 21.3819 198.974 20.9706C199.27 20.225 199.531 19.4873 199.753 18.7602C199.975 18.0332 199.975 17.2397 199.753 16.3826C199.566 15.7484 199.233 15.3292 198.75 15.1249C198.267 14.9205 197.691 14.8913 197.023 15.0399C196.133 15.2628 195.388 15.8227 194.797 16.7196C194.313 17.2795 193.841 17.9987 193.376 18.8743C192.911 19.75 192.486 20.7212 192.095 21.7853C191.705 22.8494 191.335 23.9665 190.981 25.142C190.63 26.3176 190.323 27.4825 190.062 28.6394C189.951 29.1622 189.822 29.8627 189.671 30.7384C189.647 30.8843 189.626 31.0356 189.603 31.1842C189.32 31.561 189.037 31.9378 188.752 32.3066C187.955 33.3336 187.25 34.1456 186.637 34.74C186.025 35.337 185.523 35.6262 185.135 35.6077C184.744 35.5891 184.585 35.077 184.662 34.0686C184.736 33.1001 184.81 32.1368 184.884 31.1868C184.958 30.2369 185.032 29.2763 185.106 28.3051C185.216 27.5966 185.124 27.0446 184.828 26.6546C184.53 26.2618 184.15 26.0098 183.688 25.8983C183.223 25.7869 182.732 25.8346 182.211 26.0389C181.691 26.2459 181.245 26.6095 180.875 27.1296C180.466 27.6523 180.178 28.1936 180.012 28.7509C179.845 29.3108 179.595 29.8521 179.259 30.3749C177.849 31.6061 176.428 32.7153 175 33.7051C173.571 34.6948 171.91 35.5042 170.017 36.1384C169.645 36.2127 169.394 36.1304 169.264 35.8863C169.135 35.6448 169.077 35.345 169.098 34.992C169.116 34.6391 169.172 34.2729 169.264 33.9014C169.357 33.5299 169.46 33.2487 169.571 33.0629C169.903 32.1315 170.424 31.1311 171.129 30.0697C171.834 29.0056 172.668 27.9628 173.635 26.9358C174.598 25.9116 175.694 24.9696 176.92 24.1098C178.145 23.2527 179.444 22.5628 180.817 22.04C181.559 21.78 181.987 22.04 182.098 22.8228C182.098 22.9714 182.087 23.1784 182.069 23.4385C182.05 23.7012 182.132 23.8869 182.32 23.9984C182.578 24.1098 182.784 24.0355 182.932 23.7755C183.08 23.5154 183.21 23.3084 183.323 23.1598C183.843 22.1515 183.944 21.1723 183.629 20.2223C183.313 19.2697 182.766 18.5904 181.987 18.1791C180.688 17.5449 179.259 17.3671 177.699 17.6484C176.141 17.927 174.58 18.4975 173.022 19.3546C171.538 20.2887 170.162 21.3687 168.903 22.5999C167.64 23.8312 166.563 25.1553 165.673 26.5723C165.335 27.1083 165.029 27.6496 164.746 28.1963C163.304 29.7115 161.704 31.2028 159.938 32.6702C159.232 33.2301 158.453 33.8086 157.598 34.4056C156.745 35.0027 155.845 35.544 154.897 36.0269C153.951 36.5125 152.977 36.8761 151.973 37.1175C150.97 37.3617 149.969 37.3882 148.966 37.2025C147.851 36.831 147.212 36.1676 147.043 35.2149C146.877 34.2623 146.959 33.2274 147.294 32.1103C147.627 30.9905 148.102 29.8999 148.715 28.8358C149.327 27.7717 149.874 26.9624 150.357 26.4025C150.69 26.031 151.126 25.5825 151.664 25.0598C152.203 24.537 152.787 24.0912 153.418 23.7171C154.049 23.3456 154.698 23.0829 155.367 22.9343C156.035 22.7857 156.666 22.8786 157.26 23.2129C157.556 23.4358 157.537 23.6428 157.204 23.8285C156.573 24.1655 155.998 24.5848 155.477 25.089C154.957 25.5931 154.474 26.1239 154.03 26.6838C153.584 27.1694 153.251 27.7664 153.027 28.4749C152.805 29.5204 153.193 30.1175 154.197 30.2661C154.419 30.3404 154.625 30.3404 154.809 30.2661C155.404 30.1546 155.961 29.8946 156.481 29.4833C158.263 28.1406 159.467 26.4264 160.101 24.3354C160.397 23.404 160.408 22.592 160.13 21.902C159.853 21.2121 159.341 20.6071 158.599 20.0844C157.373 19.3016 156.066 18.946 154.672 19.0203C153.28 19.0946 151.905 19.421 150.553 19.9994C149.198 20.5779 147.925 21.3342 146.74 22.2656C145.551 23.1996 144.548 24.1682 143.732 25.1765C142.99 26.1477 142.33 27.2383 141.754 28.451C141.178 29.6637 140.809 30.895 140.64 32.1448C140.473 33.3946 140.576 34.6152 140.946 35.8093C141.318 37.0034 142.097 38.0675 143.286 38.9989C143.352 39.0467 143.42 39.0891 143.486 39.1342C143.676 39.2616 143.867 39.3837 144.062 39.4925C144.21 39.5774 144.36 39.6543 144.513 39.726L143.418 41.3951C143.259 41.7825 143.267 42.353 144.31 42.7855C144.318 42.7882 144.326 42.7935 144.334 42.7962C144.355 42.8041 144.374 42.8121 144.392 42.82C145.258 43.1756 145.678 43.6798 145.662 44.3379C145.633 44.8182 145.411 45.1817 145.018 45.3966C144.698 45.5718 144.265 45.6461 143.764 45.6169C143.04 45.5718 142.306 45.3303 141.725 44.9508L141.693 45.0278C141.577 45.3223 141.223 46.3891 141.968 46.8163C142.137 46.88 142.314 46.9331 142.493 46.9808C142.559 46.9914 142.617 47.0074 142.67 47.0259C142.987 47.1002 143.312 47.1506 143.629 47.1692C144.778 47.2382 145.762 47.0551 146.475 46.6306C147.297 46.1449 147.746 45.3648 147.809 44.314C147.891 42.9846 146.93 42.077 145.852 41.6817C145.852 41.6817 145.831 41.6737 145.821 41.671C145.789 41.6604 145.755 41.6472 145.723 41.6366C145.256 41.4428 145.459 41.0475 145.564 40.8909L145.615 40.8246L146.032 40.2567C146.225 40.3018 146.42 40.339 146.618 40.3682C147.806 40.5353 149.05 40.4902 150.349 40.2275C152.723 39.7419 154.904 38.8848 156.893 37.6536C158.879 36.4223 160.838 34.9124 162.768 33.1213C162.871 33.0258 162.972 32.9302 163.072 32.8347C162.908 33.6706 162.824 34.4932 162.824 35.3052C162.861 36.7593 163.141 37.8791 163.658 38.6619C164.178 39.4447 164.846 39.9489 165.662 40.1718C166.478 40.3947 167.408 40.3761 168.446 40.1161C169.483 39.8534 170.524 39.4076 171.564 38.7734C172.121 38.5107 172.724 38.1763 173.373 37.765C174.023 37.3537 174.68 36.8973 175.351 36.3931C176.019 35.8889 176.658 35.3848 177.271 34.8832C177.883 34.3791 178.43 33.9041 178.913 33.4556C178.95 34.0898 178.987 34.7532 179.024 35.4431C179.061 36.1331 179.164 36.7965 179.33 37.4307C179.497 38.0649 179.795 38.6248 180.22 39.1104C180.646 39.596 181.269 39.9489 182.085 40.1744C182.901 40.2116 183.735 39.9595 184.591 39.4182C185.444 38.8769 186.299 38.1684 187.152 37.2927C187.918 36.5072 188.665 35.6369 189.399 34.6869C189.434 35.1778 189.5 35.6554 189.6 36.1172C189.787 36.9557 190.176 37.5819 190.77 37.9906C191.29 38.2506 191.903 38.3249 192.608 38.2135C192.903 38.1392 193.146 37.9985 193.331 37.7942C193.516 37.5899 193.682 37.3378 193.833 37.0379C194.39 35.7324 194.929 34.5303 195.446 33.4291C195.967 32.3279 196.598 31.1444 197.34 29.876C197.675 29.056 198.174 28.1406 198.842 27.1349C199.51 26.1265 200.252 25.1951 201.071 24.338C201.887 23.4809 202.721 22.7538 203.577 22.1568C204.43 21.5597 205.209 21.2811 205.917 21.3183C206.212 21.4669 206.157 22.0825 205.75 23.1651C205.341 24.2478 204.802 25.5719 204.134 27.1375C203.466 28.7031 202.816 30.3934 202.185 32.2005C201.554 34.0102 201.163 35.7165 201.015 37.3192C200.868 38.922 201.1 40.3045 201.713 41.4588C202.325 42.6157 203.558 43.3242 205.415 43.5843C206.083 43.7329 206.88 43.6771 207.81 43.4171C208.737 43.1544 209.5 42.7643 210.091 42.2416C210.276 42.0532 210.472 41.8674 210.675 41.6817C210.878 41.4933 211.074 41.2704 211.259 41.0103C211.443 40.7874 211.591 40.5433 211.705 40.2832C211.816 40.0205 211.945 39.7605 212.096 39.5004C212.17 39.312 212.114 39.2006 211.929 39.1634L211.945 39.1555Z" fill="#FEA38E"/>
</g>
<defs>
<filter id="filter0_d_160_22584" x="0.99707" y="0.98822" width="298.003" height="65.0118" filterUnits="userSpaceOnUse" color-interpolation-filters="sRGB">
<feFlood flood-opacity="0" result="BackgroundImageFix"/>
<feColorMatrix in="SourceAlpha" type="matrix" values="0 0 0 0 0 0 0 0 0 0 0 0 0 0 0 0 0 0 127 0" result="hardAlpha"/>
<feOffset dy="4"/>
<feComposite in2="hardAlpha" operator="out"/>
<feColorMatrix type="matrix" values="0 0 0 0 0.0261111 0 0 0 0 0.126068 0 0 0 0 0.391667 0 0 0 0.26 0"/>
<feBlend mode="normal" in2="BackgroundImageFix" result="effect1_dropShadow_160_22584"/>
<feBlend mode="normal" in="SourceGraphic" in2="effect1_dropShadow_160_22584" result="shape"/>
</filter>
</defs>
</svg>
