<svg width="235" height="49" viewBox="0 0 235 49" fill="none" xmlns="http://www.w3.org/2000/svg">
<path d="M40.3807 21.8422C40.8744 20.4495 41.1223 19.0317 41.1223 17.5931C41.0356 16.3611 40.6864 15.244 40.077 14.2459C39.4675 13.2478 38.5089 12.588 37.2012 12.2644C36.3583 12.1474 35.5319 12.1829 34.7179 12.375C33.904 12.5671 33.121 12.8678 32.3648 13.2771C32.1603 13.3648 31.9578 13.513 31.7554 13.7177C31.7265 13.7469 31.712 13.82 31.712 13.9369C31.712 13.9954 31.7698 14.0246 31.8855 14.0246C31.9434 14.0538 32.0095 14.0622 32.0818 14.0476C32.1541 14.0329 32.2202 14.0246 32.2781 14.0246C32.6272 13.9661 32.9887 13.9139 33.3668 13.8701C33.7428 13.8262 34.1064 13.8033 34.4556 13.8033C34.8625 13.8325 35.2675 13.9285 35.6745 14.0893C36.0815 14.2501 36.443 14.4798 36.7632 14.7721C37.0834 15.0665 37.3437 15.4257 37.5483 15.8516C37.7507 16.2776 37.8375 16.7704 37.8086 17.3258C37.7218 18.1172 37.5028 18.9983 37.1557 19.9672C36.8066 20.936 36.3789 21.9111 35.8707 22.8946C35.3625 23.8781 34.7882 24.8323 34.1498 25.7573C33.5114 26.6823 32.8565 27.482 32.1892 28.1565C31.5199 28.833 30.8608 29.3446 30.208 29.6975C29.5552 30.0503 28.9664 30.1673 28.4437 30.0503C27.921 29.758 27.6235 29.2297 27.5512 28.4655C27.4789 27.7034 27.5801 26.8306 27.857 25.845C28.1317 24.8616 28.5325 23.8405 29.0552 22.7839C29.5779 21.7274 30.1667 20.7439 30.8195 19.8335C31.4723 18.9231 32.1541 18.161 32.8669 17.543C33.5775 16.927 34.2386 16.5741 34.8481 16.4864C35.2551 16.4279 35.3708 16.2379 35.1972 15.9143C35.1105 15.7096 34.9803 15.5468 34.8047 15.4298C34.4266 15.1375 33.9618 14.96 33.4102 14.9016C32.4805 14.8139 31.5509 14.9454 30.6212 15.2983C29.6915 15.6512 28.8052 16.1356 27.9644 16.7516C26.2207 18.0733 24.8283 19.6728 23.7829 21.5499C23.2024 22.6065 22.8181 23.7236 22.6281 24.897C22.562 25.3126 22.531 25.7323 22.531 26.1582C22.2294 26.5403 21.9339 26.8932 21.6488 27.2085C21.184 27.7222 20.7481 28.1043 20.3411 28.3528C19.9341 28.6033 19.5994 28.6388 19.3391 28.4634C19.1346 28.2588 18.9838 27.956 18.8825 27.5614C18.7813 27.1647 18.7007 26.7324 18.6429 26.2626C18.585 25.7928 18.5479 25.3314 18.5334 24.8762C18.5189 24.421 18.5107 24.0472 18.5107 23.7528C18.5396 22.3141 18.6202 20.8755 18.7503 19.4368C18.8805 17.9981 19.0767 16.5595 19.3391 15.1208C19.5416 14.0935 19.7668 13.0808 20.0147 12.0827C20.2605 11.0846 20.5601 10.0865 20.9072 9.08846C21.1675 8.32632 21.465 7.57671 21.7996 6.84381C22.1323 6.1109 22.5041 5.39053 22.9111 4.68686C23.1425 4.24628 23.3966 3.92472 23.6734 3.718C23.9482 3.51337 24.1817 3.43194 24.3697 3.47579C24.5577 3.51964 24.6961 3.68042 24.7829 3.96022C24.8696 4.24001 24.8407 4.65762 24.6961 5.21513C24.2891 6.5661 23.7602 7.85024 23.1053 9.06757C22.4525 10.2849 21.7769 11.5398 21.0807 12.8323C20.934 13.0369 20.7977 13.3898 20.6675 13.8889C20.5374 14.3879 20.4196 14.9162 20.3184 15.4737C20.2171 16.0312 20.1448 16.5532 20.1014 17.0376C20.0581 17.5221 20.0498 17.852 20.0808 18.0274C20.9526 16.7056 21.8017 15.3568 22.6301 13.9766C23.4586 12.5964 24.2788 11.1452 25.0907 9.61673C25.5555 8.67711 25.9625 7.73123 26.3096 6.77699C26.6587 5.82275 26.8901 4.78917 27.0058 3.67207C26.948 2.32319 26.324 1.48588 25.132 1.16223C23.8821 0.809355 22.7066 1.00145 21.6034 1.73436C21.1964 1.99745 20.7977 2.2856 20.4051 2.59255C20.0126 2.90158 19.6573 3.2461 19.337 3.62822C18.5231 4.56784 17.8558 5.57219 17.3331 6.64335C16.8104 7.71452 16.2877 8.91097 15.765 10.2327C15.4159 11.1431 15.1039 12.0681 14.8292 13.0077C14.5523 13.9473 14.2693 14.887 13.9801 15.8245C13.9801 15.883 13.9656 15.956 13.9367 16.0437C13.9078 16.1314 13.8788 16.2191 13.8499 16.3089C13.0649 16.0166 12.253 15.9352 11.4101 16.0667C10.5672 16.1983 9.74698 16.4572 8.94953 16.8372C8.15001 17.2193 7.38148 17.6891 6.63981 18.2466C5.89814 18.8041 5.23911 19.3616 4.65858 19.9191C4.19374 20.389 3.74337 20.9172 3.30746 21.504C2.87154 22.0907 2.48728 22.715 2.1526 23.3749C1.81998 24.0347 1.54935 24.7258 1.34688 25.4441C1.14442 26.1645 1.02873 26.889 0.997742 27.624C0.997742 28.1523 1.10724 28.6514 1.32416 29.1212C1.54108 29.591 1.84064 29.994 2.21664 30.3322C2.59471 30.6705 3.03062 30.919 3.52438 31.0818C4.01814 31.2426 4.55528 31.2802 5.13581 31.1925C5.94772 31.0171 6.71005 30.7143 7.4228 30.2905C8.13348 29.8645 8.81731 29.3738 9.47014 28.8163C10.123 28.2588 10.7614 27.6721 11.3873 27.0561C12.0112 26.4401 12.6434 25.8388 13.2818 25.2499C13.3396 25.8367 13.4264 26.461 13.5442 27.1208C13.6599 27.7806 13.8272 28.4279 14.0441 29.0585C14.2631 29.6912 14.5461 30.2779 14.8932 30.8208C15.2424 31.3637 15.7051 31.8106 16.2877 32.1634C16.8683 32.3973 17.4426 32.4349 18.0087 32.2741C18.5747 32.1133 19.1346 31.8565 19.6862 31.5036C20.5869 30.8877 21.4505 30.1025 22.2789 29.1483C22.4711 28.927 22.6591 28.7015 22.845 28.4718C22.8533 28.4989 22.8574 28.5261 22.8657 28.5553C23.0702 29.3488 23.4751 30.0232 24.0846 30.5807C24.694 31.1382 25.413 31.5496 26.2414 31.8127C27.0698 32.0758 27.9541 32.1864 28.8982 32.1426C29.8423 32.0987 30.7637 31.8711 31.6645 31.4598C32.9722 30.8438 34.1973 30.0441 35.346 29.0606C36.4926 28.0771 37.4946 26.9767 38.3519 25.7573C39.2072 24.54 39.8828 23.2329 40.3765 21.8381L40.3807 21.8422ZM13.35 20.3681C13.3355 20.9548 13.3128 21.5123 13.2839 22.0406C12.7901 22.8341 12.1724 23.6192 11.4328 24.3959C10.6911 25.1748 9.89986 25.9452 9.05902 26.7074C8.91234 26.8243 8.74706 26.9579 8.557 27.1041C8.36693 27.2524 8.17273 27.3902 7.96821 27.5217C7.76368 27.6533 7.55502 27.7493 7.33603 27.8078C7.11911 27.8662 6.90838 27.8662 6.70385 27.8078C6.38363 27.7201 6.23076 27.4549 6.24728 27.0143C6.26174 26.5737 6.31339 26.2376 6.40016 26.0016C6.48693 25.4149 6.76996 24.6882 7.24926 23.8217C7.72856 22.9573 8.30909 22.1262 8.99291 21.3348C9.67467 20.5414 10.4019 19.8816 11.1704 19.3533C11.9389 18.825 12.6744 18.6204 13.3706 18.7373C13.3706 19.2364 13.3624 19.7792 13.3479 20.366L13.35 20.3681Z" fill="#1B3F9B"/>
<path d="M67.7628 37.3424C67.2835 37.8561 66.6224 38.259 65.7815 38.5535C64.5626 38.8771 63.0442 38.8395 61.2282 38.4428C59.4123 38.0461 57.3732 37.144 55.1069 35.7346C55.6006 34.5904 56.0365 33.4524 56.4146 32.3227C56.7906 31.1931 57.1687 29.9967 57.5467 28.7334C57.807 27.8815 58.0405 27.017 58.2429 26.1359C58.4454 25.2547 58.5632 24.3902 58.5921 23.5383C58.5921 23.0977 58.5487 22.6279 58.4619 22.1289C58.4619 21.6883 58.245 21.4252 57.8091 21.3354C57.46 21.277 57.1129 21.2624 56.7637 21.2916C56.4146 21.3208 56.082 21.4524 55.7618 21.6883C55.0056 22.1289 54.1503 22.7449 53.1917 23.5383C52.2331 24.3318 51.2746 25.0939 50.316 25.8289C50.1424 25.9772 49.8511 26.2027 49.4441 26.5117C49.0371 26.8207 48.6157 27.0922 48.1818 27.326C47.7459 27.562 47.3327 27.6998 46.9402 27.7436C46.5477 27.7875 46.2791 27.6184 46.1345 27.2363C45.9878 26.591 46.0395 25.8707 46.2874 25.0793C46.5332 24.2858 46.8906 23.4882 47.3555 22.6801C47.8203 21.8742 48.3636 21.089 48.9896 20.3248C49.6135 19.5627 50.2313 18.8862 50.8407 18.2994C51.4791 17.7127 52.2269 17.1698 53.0843 16.6707C53.9396 16.1717 54.7908 15.8063 55.6337 15.5703C55.894 15.5119 56.1564 15.5035 56.4187 15.5474C56.679 15.5912 56.8836 15.775 57.0282 16.0986C57.2596 16.393 57.398 16.7229 57.4414 17.0883C57.4848 17.4558 57.5509 17.8442 57.6376 18.2556C57.6955 18.5187 57.805 18.6815 57.9641 18.74C58.1231 18.7985 58.3194 18.6523 58.5528 18.2994C58.7264 18.0071 58.8503 17.7127 58.9226 17.4183C58.995 17.1259 59.0611 16.8315 59.1189 16.5371C59.2924 15.3052 58.9598 14.2925 58.1169 13.499C57.9702 13.3821 57.8256 13.2798 57.681 13.19C57.5343 13.1023 57.3897 13 57.2451 12.8809C56.7513 12.4696 56.2059 12.2211 55.611 12.1313C55.016 12.0436 54.3838 12.0582 53.7165 12.1752C51.8861 12.4988 50.0928 13.2547 48.3368 14.4428C46.5787 15.6309 45.0912 17.0341 43.8723 18.6481C43.3785 19.3518 42.9137 20.116 42.4778 20.9387C42.0419 21.7614 41.6927 22.5966 41.4324 23.4485C41.1721 24.3005 41.011 25.1649 40.9531 26.0461C40.8953 26.9272 40.9821 27.7791 41.2155 28.5997C41.3312 29.0403 41.5564 29.4141 41.8911 29.7231C42.2258 30.0321 42.61 30.266 43.0459 30.4268C43.4818 30.5876 43.9529 30.6836 44.4611 30.7128C44.9693 30.7421 45.4693 30.6982 45.9651 30.5813C46.6324 30.4644 47.2997 30.2451 47.9691 29.9215C48.6364 29.5978 49.2975 29.2032 49.9503 28.7334C50.6031 28.2636 51.2498 27.7583 51.8881 27.2133C52.5265 26.6704 53.1525 26.1191 53.7619 25.5616C53.5285 26.5597 53.2682 27.5954 52.9769 28.6666C52.6856 29.7377 52.3674 30.8089 52.0183 31.8801C51.6691 32.9512 51.2704 33.9994 50.82 35.0288C50.3697 36.0562 49.8842 37.0104 49.3615 37.8916C48.4029 39.301 47.4071 40.393 46.3783 41.1719C45.3474 41.9486 44.1347 42.4999 42.7402 42.8235C41.9861 42.9404 41.3023 42.8298 40.6928 42.4936C40.0834 42.1553 39.7053 41.5916 39.5607 40.7981C39.6475 39.7708 39.9966 38.9126 40.6061 38.2215C41.2155 37.5324 41.9572 37.0104 42.8269 36.6575C43.6988 36.3046 44.6408 36.1355 45.6593 36.1501C46.6758 36.1647 47.6488 36.3777 48.5785 36.7891C48.6653 36.7014 48.7954 36.5322 48.971 36.2817C49.1446 36.0311 49.3202 35.7534 49.4937 35.4444C49.6673 35.1353 49.8201 34.8284 49.9503 34.5194C50.0804 34.2103 50.1466 33.9681 50.1466 33.7927C48.9834 33.3814 47.7211 33.2269 46.3556 33.3313C44.99 33.4336 43.6988 33.7718 42.4778 34.344C41.2589 34.9161 40.1908 35.7095 39.2756 36.7222C38.3604 37.7349 37.7881 38.946 37.5547 40.3554C37.439 41.2658 37.5113 42.0718 37.7716 42.7776C38.0319 43.4812 38.4389 44.0763 38.9905 44.5608C39.5421 45.0452 40.2032 45.3981 40.9717 45.6173C41.7423 45.8366 42.577 45.918 43.4777 45.8595C45.744 45.5964 47.7315 44.803 49.4462 43.4812C51.1589 42.1595 52.6835 40.5455 54.0202 38.637C55.1812 39.2237 56.3361 39.7082 57.4827 40.0903C58.6293 40.4724 59.7408 40.7355 60.815 40.8837C61.8893 41.0299 62.914 41.0445 63.8871 40.9276C64.8601 40.8106 65.7382 40.5308 66.5232 40.0903C66.9302 39.8543 67.3289 39.539 67.7215 39.1444C68.114 38.7497 68.4259 38.33 68.6573 37.8895C68.8887 37.4489 69.0127 37.002 69.0271 36.5469C69.0416 36.0917 68.9032 35.674 68.6139 35.2919C68.5272 36.1439 68.2441 36.8246 67.7648 37.3382L67.7628 37.3424Z" fill="#1B3F9B"/>
<path d="M106.861 32.4335C106.774 32.4042 106.671 32.4627 106.555 32.6089C106.35 32.8427 106.185 33.0996 106.053 33.3794C105.923 33.6571 105.755 33.9306 105.551 34.1937C105.144 34.7804 104.76 35.1041 104.396 35.1626C104.032 35.221 103.72 35.1041 103.46 34.8097C103.2 34.5153 103.01 34.083 102.894 33.5109C102.778 32.9388 102.764 32.2852 102.851 31.5523C102.937 30.6712 103.082 29.7691 103.287 28.8441C103.489 27.9191 103.722 26.9795 103.983 26.0253C104.245 25.071 104.512 24.1022 104.788 23.1187C105.063 22.1352 105.303 21.1601 105.507 20.1913C105.623 19.6922 105.724 19.1201 105.813 18.4749C105.9 17.8297 105.894 17.2283 105.792 16.6687C105.691 16.1112 105.472 15.656 105.14 15.3031C104.805 14.9503 104.276 14.8187 103.549 14.9064C103.055 14.9941 102.605 15.2008 102.198 15.5224C101.297 16.1968 100.483 16.9381 99.7579 17.7462C99.0307 18.5542 98.3923 19.2809 97.8407 19.9261C98.1609 18.8111 98.4729 17.7169 98.7766 16.6458C99.0823 15.5746 99.2621 14.4366 99.322 13.2339C99.3798 12.501 99.1546 11.8328 98.6464 11.2294C98.1382 10.628 97.4916 10.3712 96.7086 10.4589C95.8368 10.5466 94.9443 10.8702 94.0291 11.4277C93.1138 11.9852 92.2276 12.668 91.3723 13.474C90.5149 14.2821 89.7009 15.1403 88.9324 16.0507C88.1618 16.9611 87.4883 17.7984 86.9057 18.5605C86.9057 18.3851 86.9718 18.1053 87.102 17.7232C87.2321 17.3432 87.3705 16.9381 87.5152 16.5121C87.6598 16.0862 87.8127 15.6602 87.9717 15.2363C88.1308 14.8104 88.2548 14.4512 88.3415 14.1568C88.4283 13.8039 88.5006 13.4448 88.5605 13.0773C88.6184 12.7098 88.6266 12.3653 88.5812 12.0437C88.5378 11.7201 88.4221 11.434 88.232 11.1855C88.042 10.937 87.7589 10.7533 87.3829 10.6343C86.2198 10.4589 85.2633 10.9141 84.5072 11.9999C84.1002 12.4697 83.7366 12.9624 83.4184 13.474C83.0982 13.9877 82.8234 14.5243 82.59 15.0818C82.1541 16.0214 81.7615 16.9673 81.4145 17.9216C81.0653 18.8758 80.7327 19.853 80.4125 20.849C80.0633 22.0809 79.7803 23.3212 79.5634 24.5699C79.5221 24.8038 79.4911 25.0418 79.4601 25.2777C79.0841 25.6306 78.706 25.9814 78.3218 26.3301C77.5945 26.9899 76.7682 27.5266 75.8385 27.9379C75.5183 28.0862 75.2642 28.1133 75.0762 28.0256C74.8861 27.9379 74.7415 27.798 74.6403 27.608C74.539 27.418 74.4812 27.182 74.4667 26.9043C74.4523 26.6266 74.4585 26.3531 74.4894 26.09C74.6341 24.7411 74.9749 23.3964 75.5121 22.0622C76.0492 20.7258 76.5802 19.3978 77.1028 18.0782C77.3921 17.4037 77.4954 16.7293 77.4086 16.0528C77.3508 15.4075 77.0099 14.967 76.3839 14.731C75.76 14.4972 75.0844 14.6579 74.3593 15.2155C74.099 15.4514 73.8511 15.6853 73.6176 15.9191C73.3842 16.1551 73.1672 16.4328 72.9648 16.7564C72.2686 17.9007 71.7376 19.1055 71.374 20.3667C71.0104 21.6299 70.6261 22.9934 70.2192 24.4613C69.7543 25.0773 69.2895 25.5701 68.8246 25.9355C68.3598 26.303 67.8371 26.6914 67.2566 27.1027C67.1099 27.2196 66.9302 27.3303 66.7112 27.4326C66.4943 27.5349 66.2753 27.6017 66.0584 27.631C65.8414 27.6602 65.6286 27.6393 65.4262 27.5642C65.2217 27.4911 65.077 27.3219 64.9903 27.0568C64.8436 26.3531 64.8229 25.6327 64.9242 24.8998C65.0254 24.1669 65.1927 23.4256 65.4262 22.676C65.6576 21.9264 65.9117 21.1726 66.1885 20.4084C66.4633 19.6442 66.7174 18.8967 66.9508 18.1638C67.0665 17.7817 67.176 17.3933 67.2773 16.9966C67.3785 16.5998 67.4012 16.1968 67.3434 15.7855C67.2855 14.6997 66.6761 14.2737 65.513 14.5097C64.7568 14.7456 64.104 15.1549 63.5524 15.7416C63.0008 16.3284 62.5649 17.0049 62.2446 17.767C61.8686 18.4707 61.505 19.2412 61.1559 20.0785C60.8068 20.9158 60.532 21.7803 60.3275 22.676C60.125 23.5718 60.001 24.4676 59.9577 25.3613C59.9143 26.257 60.0093 27.1152 60.2407 27.9379C60.3874 28.6144 60.7055 29.2367 61.1993 29.8088C61.693 30.3809 62.317 30.7401 63.0731 30.8883C63.916 31.0053 64.7217 30.9029 65.4902 30.5793C66.2588 30.2556 67.0066 29.8464 67.7338 29.3473C68.1408 29.055 68.5333 28.7523 68.9093 28.4453C69.2874 28.1363 69.6634 27.8231 70.0415 27.4994L70.1283 27.5871C70.3307 28.2637 70.6075 28.8504 70.9567 29.3494C71.3058 29.8485 71.8285 30.2598 72.5247 30.5814C73.1053 30.8152 73.723 30.8591 74.3758 30.7129C75.0287 30.5647 75.6464 30.3308 76.2269 30.0093C77.012 29.6292 77.7516 29.1511 78.4478 28.5789C78.7411 28.3367 79.0262 28.0862 79.3072 27.8272C79.3093 28.0256 79.3072 28.224 79.3175 28.4265C79.3175 28.6625 79.3403 28.9047 79.3836 29.1532C79.427 29.4037 79.4993 29.6376 79.6006 29.8568C79.7018 30.0761 79.8402 30.2682 80.0138 30.429C80.1873 30.5897 80.4063 30.6858 80.6666 30.715C81.0157 30.7735 81.3566 30.7442 81.6892 30.6273C82.0239 30.5104 82.3359 30.335 82.6251 30.099C82.9143 29.8652 83.1705 29.5791 83.3874 29.2409C83.6044 28.9047 83.7861 28.5581 83.9328 28.2052C84.1064 27.5892 84.3749 26.8918 84.7385 26.113C85.1021 25.3362 85.5071 24.5428 85.9575 23.7347C86.4078 22.9287 86.8789 22.1436 87.3726 21.3794C87.8664 20.6172 88.3312 19.9261 88.7671 19.3101C89.1431 18.7818 89.5584 18.2389 90.0087 17.6814C90.4591 17.1239 90.9384 16.581 91.4466 16.0528C91.9549 15.5245 92.4631 15.0338 92.9713 14.5786C93.4795 14.1234 93.9939 13.7496 94.5187 13.4552C94.2852 14.042 94.0311 14.6726 93.7564 15.3491C93.4795 16.0235 93.1965 16.6854 92.9073 17.3306C92.587 18.0949 92.304 18.8716 92.0582 19.6651C91.8102 20.4585 91.5561 21.2353 91.2958 21.9995C91.0624 22.7345 90.8393 23.4465 90.6203 24.1356C90.4033 24.8246 90.1782 25.5387 89.9447 26.2717C89.5956 27.299 89.6679 28.2386 90.1616 29.0905C90.5686 29.9424 91.1429 30.3809 91.8826 30.4122C92.6242 30.4415 93.3411 30.0594 94.0394 29.268C94.3286 28.9444 94.5765 28.5643 94.779 28.1237C95.3306 27.0672 95.9256 26.0315 96.566 25.0188C97.2044 24.0061 97.8738 23.0164 98.57 22.0475C98.9191 21.5485 99.2807 21.0348 99.6587 20.5066C100.037 19.9783 100.487 19.4354 101.01 18.8779C100.894 19.7883 100.683 20.7049 100.378 21.6299C100.072 22.5549 99.8033 23.53 99.572 24.5574C99.3385 25.4093 99.1588 26.2591 99.0266 27.111C98.8964 27.963 98.8158 28.8128 98.7869 29.6647C98.7869 30.4269 98.8737 31.2725 99.0472 32.1954C99.2208 33.1204 99.5038 33.9578 99.8963 34.7053C100.289 35.4528 100.818 36.0541 101.487 36.5093C102.154 36.9645 102.983 37.1044 103.97 36.927C104.406 36.81 104.799 36.6033 105.146 36.311C105.495 36.0166 105.807 35.7013 106.082 35.3651C106.356 35.0268 106.575 34.676 106.735 34.3085C106.894 33.941 107.003 33.5965 107.061 33.2729C107.09 33.1852 107.104 33.0745 107.104 32.943C107.104 32.8114 107.082 32.7007 107.038 32.613C106.995 32.5254 106.929 32.4648 106.842 32.4377L106.861 32.4335Z" fill="#1B3F9B"/>
<path d="M59.0673 5.49561H57.6562L57.6211 5.87354C57.493 7.27044 56.2287 8.28523 54.6172 8.28523C53.9004 8.28523 53.4025 8.07852 53.0471 7.62959C52.7765 7.29341 52.6319 6.86536 52.6319 6.38929C52.6319 6.25357 52.6319 6.13664 52.6608 5.99465L52.76 5.49561H51.444C51.0742 5.52693 50.5184 5.67935 50.4626 6.30786C50.4626 6.34753 50.4626 6.3872 50.4626 6.42687C50.4626 7.41452 50.7767 8.29567 51.3923 9.04111C52.1257 9.94732 53.1855 10.4067 54.5449 10.4067C57.1749 10.4067 59.2801 8.67987 59.7449 6.18675C59.7573 5.91321 59.654 5.56242 59.0673 5.49561Z" fill="#1B3F9B"/>
<path d="M212.473 15.0401C212.415 14.4533 212.233 13.925 211.927 13.4552C211.622 12.9854 211.194 12.7056 210.642 12.6179C209.655 12.4425 208.638 12.4927 207.593 12.7724C206.548 13.0522 205.566 13.4761 204.653 14.0482C203.738 14.6204 202.938 15.3032 202.257 16.0966C201.575 16.888 201.102 17.6961 200.842 18.5187C200.668 18.9301 200.587 19.3916 200.602 19.9052C200.616 20.4189 200.697 20.9325 200.842 21.4462C200.978 21.9285 201.174 22.3712 201.424 22.7742C201.339 22.8953 201.255 23.0164 201.168 23.1417C200.573 23.9936 199.961 24.8226 199.338 25.6285C198.714 26.4366 198.162 27.0756 197.683 27.5433C197.203 28.0131 196.811 28.2407 196.507 28.2261C196.201 28.2115 196.077 27.8085 196.137 27.015C196.195 26.2529 196.253 25.4949 196.311 24.7474C196.369 23.9999 196.427 23.244 196.484 22.4798C196.571 21.9223 196.499 21.488 196.268 21.181C196.034 20.872 195.737 20.6736 195.375 20.5859C195.011 20.4982 194.627 20.5358 194.22 20.6966C193.813 20.8574 193.464 21.1455 193.175 21.5548C192.855 21.9661 192.629 22.3921 192.499 22.8306C192.369 23.2711 192.173 23.6971 191.91 24.1084C190.807 25.0773 189.696 25.9501 188.578 26.7289C187.46 27.5078 186.161 28.1446 184.68 28.6437C184.388 28.7021 184.192 28.6374 184.091 28.4453C183.99 28.2553 183.944 28.0194 183.961 27.7416C183.975 27.4639 184.019 27.1758 184.091 26.8835C184.163 26.5911 184.244 26.3698 184.331 26.2236C184.591 25.4907 184.998 24.7035 185.549 23.8683C186.101 23.031 186.754 22.2104 187.51 21.4023C188.264 20.5964 189.121 19.8551 190.08 19.1786C191.039 18.5041 192.055 17.9612 193.129 17.5499C193.71 17.3453 194.045 17.5499 194.131 18.1659C194.131 18.2828 194.123 18.4457 194.109 18.6503C194.094 18.857 194.158 19.0032 194.305 19.0909C194.507 19.1786 194.669 19.1201 194.784 18.9155C194.9 18.7108 195.001 18.548 195.09 18.4311C195.497 17.6376 195.575 16.8671 195.33 16.1196C195.082 15.37 194.654 14.8354 194.045 14.5118C193.028 14.0127 191.91 13.8728 190.69 14.0942C189.471 14.3134 188.25 14.7624 187.031 15.4368C185.868 16.1718 184.793 17.0216 183.808 17.9905C182.82 18.9593 181.977 20.0013 181.281 21.1163C180.585 22.2313 180.04 23.3776 179.647 24.5511C179.434 25.188 179.281 25.8144 179.184 26.4324C178.612 27.2322 178.019 28.0214 177.403 28.8003C176.532 29.9007 175.645 30.8925 174.747 31.7716C174.486 31.9762 174.224 32.1516 173.962 32.2998C173.701 32.446 173.41 32.5483 173.09 32.6089C172.712 32.6966 172.451 32.6151 172.305 32.3667C172.158 32.1161 172.071 31.7862 172.044 31.3769C171.958 30.5542 171.972 29.6084 172.088 28.5372C172.204 27.466 172.394 26.3427 172.654 25.1692C172.914 23.9957 173.226 22.7909 173.59 21.5589C173.953 20.327 174.329 19.1535 174.722 18.0364C175.114 16.9214 175.507 15.8941 175.897 14.9545C176.29 14.0148 176.66 13.2235 177.009 12.5762C177.067 12.5469 177.234 12.5407 177.511 12.5553C177.786 12.5699 178.083 12.5845 178.403 12.5991C178.724 12.6138 179.036 12.6284 179.339 12.643C179.645 12.6576 179.854 12.666 179.971 12.666C180.407 12.666 180.783 12.6075 181.104 12.4906C181.511 12.3444 181.851 12.1231 182.128 11.8307C182.403 11.5384 182.57 11.1855 182.63 10.7742C182.717 10.3044 182.587 9.96611 182.238 9.76149C181.889 9.55686 181.461 9.43157 180.953 9.38773C180.445 9.34388 179.936 9.33761 179.428 9.36685C178.92 9.39608 178.536 9.41069 178.273 9.41069C178.593 8.73626 178.941 8.08896 179.319 7.47299C179.697 6.85701 180.06 6.21181 180.407 5.53528C180.465 5.38912 180.517 5.24922 180.56 5.11767C180.604 4.98613 180.655 4.84623 180.713 4.70006C180.829 4.40774 180.916 4.06947 180.973 3.68736C181.031 3.15909 180.878 2.73312 180.517 2.41157C180.153 2.08792 179.682 1.97099 179.102 2.05869C178.724 2.11715 178.374 2.23408 178.056 2.41157C177.736 2.58696 177.432 2.80829 177.141 3.07139C176.298 4.01101 175.53 4.99448 174.831 6.0218C174.135 7.04911 173.437 8.2393 172.741 9.58818C172.42 9.67588 172.065 9.77193 171.673 9.87424C171.28 9.97655 170.867 10.0935 170.431 10.2271C169.995 10.3587 169.576 10.5069 169.167 10.6677C168.76 10.8285 168.398 11.0268 168.078 11.2628C167.875 11.3505 167.723 11.4987 167.621 11.7034C167.52 11.9101 167.497 12.0562 167.555 12.1439C167.642 12.2609 167.745 12.3193 167.861 12.3193C167.977 12.3193 168.094 12.3047 168.21 12.2755C168.906 12.217 169.524 12.1878 170.061 12.1878C170.598 12.1878 171.098 12.1732 171.565 12.1439C170.869 13.758 170.243 15.4243 169.691 17.1406C169.14 18.857 168.689 20.5609 168.34 22.248C167.991 23.9351 167.745 25.5659 167.601 27.1361C167.456 28.7063 167.442 30.1513 167.557 31.473C167.82 32.6757 168.386 33.6592 169.255 34.4234C169.662 34.747 170.111 34.9955 170.607 35.1709C171.1 35.3463 171.652 35.4048 172.261 35.3463C172.784 35.2878 173.27 35.1479 173.72 34.9287C174.17 34.7095 174.612 34.4359 175.048 34.1144C176.065 33.2917 177.032 32.3082 177.945 31.164C178.389 30.6085 178.817 30.0406 179.23 29.4643C179.339 29.9257 179.498 30.3162 179.709 30.6357C180.116 31.2516 180.639 31.6484 181.277 31.8238C181.915 31.9992 182.643 31.9846 183.455 31.7799C184.267 31.5732 185.08 31.2224 185.894 30.7234C186.33 30.5167 186.801 30.2536 187.31 29.9299C187.818 29.6063 188.332 29.2471 188.857 28.8504C189.38 28.4537 189.88 28.0569 190.361 27.6623C190.84 27.2656 191.268 26.8918 191.646 26.5389C191.675 27.038 191.704 27.56 191.733 28.1029C191.762 28.6458 191.842 29.1678 191.972 29.6668C192.103 30.1659 192.336 30.6064 192.669 30.9886C193.001 31.3707 193.489 31.6484 194.127 31.8259C194.766 31.8551 195.418 31.6567 196.088 31.2308C196.755 30.8048 197.424 30.2473 198.092 29.5582C198.759 28.8692 199.414 28.0987 200.052 27.2468C200.691 26.3949 201.3 25.5367 201.883 24.6701C202.058 24.407 202.23 24.1481 202.397 23.8913C202.399 23.8934 202.403 23.8955 202.405 23.8976C202.899 24.4258 203.474 24.998 204.126 25.6139C204.779 26.2299 205.354 26.8313 205.847 27.4201C206.079 27.9191 206.044 28.4474 205.738 29.0049C205.432 29.5624 204.953 30.1199 204.3 30.6774C203.647 31.2349 202.885 31.7841 202.013 32.3291C201.141 32.872 200.249 33.3856 199.333 33.8701C198.418 34.3545 197.54 34.8097 196.697 35.2356C195.854 35.6616 195.158 36.0207 194.607 36.3152C194.462 36.4029 194.332 36.5052 194.214 36.6242C194.098 36.7411 193.983 36.8581 193.865 36.9771C193.72 37.1232 193.677 37.2402 193.735 37.33C193.764 37.4469 193.894 37.5053 194.127 37.5053C194.274 37.4761 194.404 37.4469 194.52 37.4176C194.635 37.3884 194.768 37.3592 194.912 37.33C195.813 37.094 196.706 36.8079 197.592 36.4718C198.478 36.1335 199.356 35.7744 200.228 35.3922C201.1 35.0394 202.042 34.6218 203.06 34.1373C204.077 33.6529 205.05 33.1246 205.98 32.5525C206.909 31.9804 207.729 31.3561 208.44 30.6816C209.151 30.0072 209.624 29.2868 209.855 28.5247C210.291 27.5558 210.508 26.7707 210.508 26.1693C210.508 25.568 210.334 25.0251 209.985 24.5407C209.636 24.0562 209.142 23.5718 208.504 23.0874C207.866 22.603 207.11 22.0246 206.238 21.3481C205.773 20.9075 205.591 20.4669 205.692 20.0263C205.794 19.5857 206.056 19.1681 206.477 18.7714C206.899 18.3747 207.407 18.0218 208.002 17.7149C208.597 17.4058 209.157 17.1636 209.68 16.9882C210.202 16.7544 210.566 16.7022 210.768 16.8337C210.971 16.9652 211.095 17.149 211.138 17.3849C211.182 17.6209 211.204 17.8318 211.204 18.0239C211.204 18.216 211.248 18.2369 211.334 18.0907C211.77 17.7984 212.082 17.3641 212.27 16.7919C212.458 16.2198 212.524 15.6414 212.467 15.0526L212.473 15.0401Z" fill="#FEA38E"/>
<path d="M227.066 19.423C227.009 19.1745 226.85 19.1369 226.587 19.3123L226.065 19.9721C225.715 20.4419 225.207 21.1393 224.54 22.0643C223.873 22.9893 223.145 23.9143 222.362 24.8393C221.577 25.7644 220.78 26.5933 219.966 27.3262C219.152 28.0612 218.441 28.4705 217.832 28.5582C217.309 28.6459 216.974 28.508 216.83 28.1405C216.683 27.7731 216.64 27.3554 216.7 26.8856C216.96 25.6537 217.381 24.4134 217.962 23.1647C218.542 21.9182 219.123 20.5881 219.706 19.1807C219.937 18.6232 220.055 18.0803 220.055 17.5521C220.084 17.2284 220.034 16.9361 219.902 16.6709C219.772 16.4078 219.611 16.1865 219.423 16.0111C219.232 15.8357 219.009 15.6958 218.747 15.5935C218.487 15.4912 218.239 15.439 218.005 15.439C216.931 15.439 216.045 15.8795 215.349 16.7607C215.202 16.9653 215.065 17.1783 214.935 17.3996C214.805 17.6189 214.681 17.8486 214.566 18.0824C213.898 19.5503 213.289 20.9953 212.735 22.4193C212.184 23.8434 211.892 25.3906 211.863 27.0652C211.834 27.9171 211.979 28.673 212.299 29.3328C212.619 29.9926 213.062 30.5147 213.628 30.8968C214.194 31.2768 214.855 31.4835 215.611 31.5127C216.365 31.542 217.164 31.352 218.007 30.9406C218.792 30.5 219.598 29.8987 220.425 29.1345C221.253 28.3723 222.05 27.535 222.821 26.6246C223.59 25.7142 224.308 24.7684 224.978 23.7849C225.645 22.8014 226.197 21.8848 226.633 21.0328C226.69 20.8867 226.757 20.7322 226.829 20.5714C226.901 20.4106 226.967 20.2415 227.025 20.064C227.112 19.8886 227.126 19.6756 227.069 19.425L227.066 19.423Z" fill="#FEA38E"/>
<path d="M221.234 34.2292H205.575C204.93 34.5926 204.269 34.9392 203.591 35.2607C202.558 35.7535 201.587 36.1837 200.707 36.5386C199.819 36.927 198.918 37.2945 198.032 37.6328C197.11 37.9836 196.166 38.2863 195.226 38.5327L195.191 38.5411L195.156 38.5473C195.038 38.5703 194.927 38.5954 194.821 38.6225C194.683 38.658 194.532 38.6914 194.377 38.7227L194.255 38.7478H194.131C193.27 38.7478 192.786 38.2884 192.594 37.8061C192.394 37.3425 192.398 36.6827 192.993 36.0813L193.34 35.7306C193.526 35.5426 193.739 35.3756 193.97 35.2336L193.999 35.2148L194.03 35.1981C194.536 34.9287 195.168 34.603 195.906 34.2292H188.638V40.4558H188.663C188.648 40.6333 188.638 40.8129 188.638 40.9945C188.638 44.4544 191.415 47.2607 194.838 47.2607H215.032C218.456 47.2607 221.232 44.4565 221.232 40.9945C221.232 40.8129 221.222 40.6333 221.208 40.4558H221.232V34.2292H221.234Z" fill="#1B3F9B"/>
<path d="M194.111 43.379C194.766 43.379 195.297 42.8424 195.297 42.1805C195.297 41.5185 194.766 40.9819 194.111 40.9819C193.456 40.9819 192.925 41.5185 192.925 42.1805C192.925 42.8424 193.456 43.379 194.111 43.379Z" fill="white"/>
<path d="M207.562 38.0191C207.32 37.9857 207.083 37.9961 206.851 38.0504C206.618 38.1047 206.393 38.1903 206.178 38.3093C206.12 38.3344 206.062 38.3761 206.002 38.4346C205.994 38.443 205.99 38.4638 205.99 38.4973C205.99 38.514 206.006 38.5223 206.039 38.5223C206.056 38.5307 206.075 38.5327 206.095 38.5286C206.116 38.5244 206.134 38.5223 206.151 38.5223C206.25 38.5056 206.355 38.491 206.463 38.4785C206.57 38.4659 206.676 38.4597 206.775 38.4597C206.891 38.468 207.008 38.4952 207.124 38.5411C207.24 38.587 207.345 38.6518 207.436 38.7374C207.527 38.8209 207.601 38.9253 207.661 39.0464C207.719 39.1675 207.744 39.3095 207.736 39.4682C207.711 39.6958 207.649 39.9464 207.548 40.2241C207.446 40.5018 207.324 40.7816 207.18 41.0635C207.033 41.3453 206.87 41.6189 206.686 41.8841C206.502 42.1492 206.316 42.3789 206.124 42.571C205.932 42.7631 205.744 42.9114 205.556 43.0116C205.368 43.1118 205.201 43.1452 205.05 43.1118C204.899 43.0283 204.814 42.8759 204.794 42.6587C204.773 42.4395 204.802 42.191 204.88 41.9091C204.959 41.6272 205.075 41.3349 205.223 41.0321C205.374 40.7294 205.542 40.4475 205.73 40.1865C205.918 39.9255 206.112 39.7083 206.316 39.5308C206.521 39.3534 206.709 39.2531 206.884 39.2281C207 39.2114 207.033 39.1571 206.984 39.0652C206.959 39.0067 206.922 38.9608 206.872 38.9274C206.765 38.8439 206.63 38.7938 206.473 38.775C206.207 38.7499 205.94 38.7875 205.674 38.8877C205.407 38.9879 205.153 39.1278 204.913 39.3032C204.414 39.6812 204.015 40.1405 203.715 40.6772C203.628 40.8359 203.558 40.9987 203.502 41.1658C203.244 41.4226 202.967 41.6753 202.668 41.9258C202.511 42.0511 202.335 42.1827 202.143 42.3163C201.951 42.4499 201.751 42.5731 201.538 42.6817C201.325 42.7903 201.108 42.8738 200.883 42.9281C200.658 42.9824 200.435 42.9886 200.209 42.9469C199.959 42.8634 199.817 42.713 199.78 42.5C199.742 42.285 199.761 42.0532 199.835 41.8005C199.91 41.5479 200.017 41.3015 200.154 41.0635C200.29 40.8233 200.414 40.6417 200.521 40.5143C200.596 40.4308 200.695 40.3285 200.815 40.2115C200.934 40.0946 201.067 39.9923 201.207 39.9088C201.348 39.8252 201.494 39.7668 201.643 39.7313C201.794 39.6979 201.934 39.7188 202.067 39.7939C202.133 39.844 202.129 39.89 202.054 39.9317C201.912 40.0069 201.784 40.103 201.668 40.2157C201.552 40.3285 201.443 40.4496 201.344 40.5749C201.244 40.6834 201.168 40.8192 201.118 40.9779C201.069 41.2138 201.156 41.3474 201.381 41.3808C201.43 41.3975 201.476 41.3975 201.517 41.3808C201.649 41.3558 201.775 41.2973 201.891 41.2034C202.29 40.9006 202.56 40.5143 202.703 40.0424C202.769 39.8315 202.771 39.6499 202.709 39.4933C202.647 39.3366 202.531 39.2009 202.366 39.084C202.091 38.9065 201.798 38.8272 201.486 38.8439C201.174 38.8606 200.866 38.9337 200.563 39.0652C200.259 39.1947 199.974 39.3659 199.707 39.5768C199.441 39.7877 199.216 40.0048 199.034 40.2324C198.866 40.4517 198.72 40.6981 198.592 40.9695C198.464 41.243 198.379 41.5207 198.342 41.8026C198.305 42.0845 198.327 42.3601 198.41 42.6295C198.493 42.8989 198.668 43.139 198.935 43.3478C199.168 43.5169 199.418 43.6192 199.683 43.6568C199.949 43.6944 200.228 43.684 200.519 43.6255C201.052 43.5169 201.54 43.3227 201.986 43.045C202.43 42.7673 202.87 42.427 203.302 42.024C203.321 42.0073 203.339 41.9885 203.358 41.9697C203.356 42.2014 203.385 42.4374 203.451 42.6796C203.509 42.9072 203.626 43.0993 203.8 43.2601C203.976 43.4188 204.18 43.5378 204.418 43.613C204.655 43.6881 204.909 43.7195 205.178 43.7069C205.449 43.6944 205.713 43.6297 205.971 43.5106C206.345 43.3332 206.696 43.1056 207.025 42.8237C207.353 42.5418 207.64 42.2265 207.886 41.8778C208.132 41.5291 208.324 41.1553 208.467 40.7544C208.607 40.3556 208.68 39.9484 208.68 39.5371C208.655 39.1842 208.556 38.8647 208.38 38.5787C208.207 38.2926 207.932 38.1047 207.556 38.0107L207.562 38.0191Z" fill="white"/>
<path d="M216.729 43.8447C216.716 43.8197 216.698 43.803 216.673 43.7946C216.648 43.7863 216.619 43.803 216.586 43.8447C216.528 43.9116 216.481 43.9846 216.444 44.0661C216.406 44.1454 216.359 44.2248 216.301 44.2999C216.185 44.467 216.074 44.5609 215.97 44.5776C215.867 44.5944 215.776 44.5609 215.702 44.4774C215.627 44.3939 215.572 44.2686 215.539 44.1058C215.506 43.9429 215.501 43.755 215.526 43.5441C215.551 43.2914 215.592 43.0325 215.65 42.7673C215.708 42.5021 215.774 42.2328 215.851 41.9592C215.925 41.6857 216.001 41.408 216.082 41.1261C216.16 40.8442 216.229 40.5644 216.289 40.2867C216.322 40.1447 216.351 39.9798 216.375 39.7939C216.4 39.6081 216.398 39.4369 216.369 39.2761C216.34 39.1174 216.278 38.9859 216.181 38.8856C216.086 38.7854 215.933 38.7478 215.727 38.7729C215.584 38.7979 215.456 38.8564 215.34 38.9504C215.082 39.1446 214.849 39.3555 214.642 39.5872C214.433 39.819 214.252 40.0257 214.092 40.2115C214.183 39.8921 214.274 39.5789 214.361 39.2719C214.448 38.965 214.499 38.6393 214.518 38.2947C214.535 38.0838 214.471 37.8938 214.324 37.7205C214.179 37.5472 213.993 37.4741 213.768 37.4992C213.518 37.5242 213.262 37.6161 213.002 37.7769C212.739 37.9356 212.485 38.1319 212.239 38.3636C211.993 38.5954 211.76 38.8418 211.541 39.1007C211.32 39.3617 211.128 39.6018 210.96 39.819C210.96 39.7689 210.979 39.6895 211.016 39.5789C211.053 39.4703 211.093 39.3534 211.134 39.2323C211.175 39.1111 211.219 38.988 211.264 38.8668C211.31 38.7457 211.345 38.6413 211.37 38.5578C211.394 38.4576 211.415 38.3532 211.432 38.2488C211.448 38.1444 211.45 38.0442 211.438 37.9523C211.425 37.8604 211.392 37.7769 211.339 37.7059C211.285 37.6349 211.202 37.5827 211.095 37.5472C210.762 37.4971 210.487 37.6265 210.27 37.9377C210.155 38.0713 210.049 38.2133 209.959 38.3595C209.868 38.5056 209.787 38.6601 209.721 38.8188C209.597 39.0882 209.483 39.3596 209.384 39.6332C209.285 39.9067 209.188 40.1865 209.097 40.4726C208.998 40.8254 208.915 41.1804 208.853 41.5375C208.791 41.8945 208.769 42.262 208.785 42.642C208.785 42.7088 208.791 42.7778 208.804 42.8508C208.816 42.9218 208.837 42.9886 208.866 43.0534C208.895 43.116 208.934 43.1703 208.983 43.2183C209.033 43.2643 209.095 43.2914 209.171 43.2998C209.271 43.3165 209.37 43.3081 209.465 43.2747C209.56 43.2413 209.651 43.1912 209.733 43.1244C209.816 43.0576 209.888 42.9761 209.952 42.878C210.014 42.7819 210.066 42.6817 210.107 42.5815C210.157 42.404 210.233 42.2056 210.339 41.9822C210.442 41.7588 210.56 41.5333 210.688 41.3015C210.816 41.0697 210.952 40.8463 211.093 40.6271C211.233 40.4078 211.367 40.2115 211.491 40.0341C211.599 39.8816 211.719 39.7271 211.847 39.5684C211.975 39.4097 212.113 39.2531 212.258 39.1028C212.403 38.9504 212.549 38.8105 212.694 38.681C212.838 38.5516 212.987 38.443 213.136 38.3595C213.07 38.5286 212.998 38.7082 212.917 38.9023C212.838 39.0965 212.756 39.2845 212.673 39.4703C212.582 39.6895 212.5 39.9109 212.429 40.1385C212.359 40.3661 212.287 40.5895 212.21 40.8066C212.144 41.0175 212.08 41.2201 212.016 41.4184C211.954 41.6168 211.89 41.8193 211.822 42.0302C211.723 42.3247 211.743 42.594 211.884 42.8383C212 43.0826 212.165 43.2079 212.378 43.2162C212.591 43.2246 212.795 43.116 212.995 42.8884C213.078 42.7965 213.148 42.6859 213.208 42.5606C213.365 42.2578 213.537 41.9613 213.721 41.6711C213.904 41.3809 214.095 41.0969 214.295 40.8192C214.394 40.6772 214.499 40.5289 214.607 40.3786C214.714 40.2283 214.844 40.0716 214.993 39.913C214.96 40.174 214.9 40.4371 214.811 40.7022C214.725 40.9674 214.648 41.2472 214.58 41.5416C214.514 41.7859 214.462 42.0302 214.423 42.2724C214.386 42.5168 214.363 42.7611 214.355 43.0033C214.355 43.2225 214.38 43.4626 214.429 43.7278C214.479 43.993 214.559 44.2331 214.673 44.4461C214.787 44.6591 214.937 44.8324 215.128 44.9639C215.318 45.0955 215.555 45.1352 215.838 45.083C215.962 45.0495 216.076 44.9911 216.175 44.9076C216.274 44.824 216.365 44.7322 216.444 44.6361C216.522 44.5401 216.584 44.4378 216.631 44.3333C216.677 44.2289 216.708 44.1287 216.724 44.0368C216.733 44.0118 216.737 43.9805 216.737 43.9429C216.737 43.9053 216.731 43.874 216.718 43.8489L216.729 43.8447Z" fill="white"/>
<path d="M166.035 31.024C165.888 31.0532 165.772 31.12 165.686 31.2223C165.599 31.3247 165.495 31.4061 165.38 31.4646C165.177 31.6107 164.973 31.7569 164.77 31.9051C164.568 32.0513 164.349 32.1828 164.117 32.3019C163.595 32.5942 163.078 32.6902 162.57 32.5879C162.062 32.4856 161.793 32.1411 161.764 31.5543C161.793 30.6147 161.996 29.6313 162.374 28.6039C162.75 27.5766 163.171 26.5493 163.638 25.522C164.103 24.4947 164.553 23.4757 164.989 22.4609C165.425 21.4482 165.743 20.494 165.948 19.5982C166.15 18.7024 166.165 17.8735 165.991 17.1113C165.818 16.3492 165.353 15.6727 164.597 15.0859C163.958 14.5284 163.202 14.257 162.333 14.2716C161.461 14.2862 160.56 14.5347 159.632 15.0212C158.703 15.5056 157.787 16.1821 156.889 17.0466C155.988 17.9131 155.191 18.8883 154.492 19.974C154.608 19.6212 154.717 19.3205 154.819 19.072C154.92 18.8235 155.029 18.573 155.145 18.3224C155.261 18.0739 155.377 17.8234 155.494 17.5728C155.61 17.3243 155.74 17.0382 155.887 16.7146C156.118 16.1279 156.323 15.5474 156.496 14.9753C156.67 14.4031 156.67 13.7788 156.496 13.1044C156.35 12.6053 156.089 12.2754 155.711 12.1146C155.333 11.9539 154.883 11.9309 154.36 12.0478C153.664 12.2232 153.081 12.6638 152.618 13.3696C152.24 13.8101 151.871 14.376 151.507 15.065C151.143 15.7541 150.811 16.5183 150.505 17.3556C150.199 18.1929 149.91 19.072 149.633 19.997C149.358 20.922 149.119 21.8387 148.914 22.7491C148.827 23.1604 148.726 23.7116 148.609 24.4007C148.59 24.5155 148.573 24.6346 148.555 24.7515C148.334 25.048 148.113 25.3445 147.89 25.6347C147.266 26.4428 146.714 27.0817 146.235 27.5495C145.755 28.0193 145.363 28.2469 145.059 28.2323C144.753 28.2176 144.63 27.8147 144.689 27.0212C144.747 26.2591 144.805 25.5011 144.863 24.7536C144.921 24.0061 144.979 23.2502 145.037 22.486C145.123 21.9285 145.051 21.4941 144.82 21.1872C144.586 20.8782 144.289 20.6798 143.927 20.5921C143.563 20.5044 143.179 20.542 142.772 20.7028C142.365 20.8656 142.016 21.1517 141.727 21.561C141.407 21.9723 141.181 22.3983 141.051 22.8368C140.921 23.2773 140.725 23.7033 140.463 24.1146C139.359 25.0835 138.248 25.9563 137.13 26.7351C136.013 27.514 134.713 28.1508 133.232 28.6499C132.94 28.7083 132.744 28.6436 132.643 28.4515C132.542 28.2615 132.496 28.0255 132.513 27.7478C132.527 27.4701 132.571 27.182 132.643 26.8896C132.715 26.5973 132.796 26.376 132.883 26.2298C133.143 25.4969 133.55 24.7097 134.102 23.8745C134.653 23.0372 135.306 22.2166 136.062 21.4085C136.816 20.6025 137.674 19.8613 138.632 19.1848C139.591 18.5103 140.607 17.9674 141.681 17.5561C142.262 17.3515 142.597 17.5561 142.683 18.1721C142.683 18.289 142.675 18.4519 142.661 18.6565C142.646 18.8632 142.71 19.0094 142.857 19.0971C143.059 19.1848 143.221 19.1263 143.336 18.9217C143.452 18.717 143.553 18.5542 143.642 18.4372C144.049 17.6438 144.127 16.8733 143.882 16.1258C143.634 15.3762 143.206 14.8416 142.597 14.518C141.58 14.0189 140.463 13.879 139.242 14.1004C138.023 14.3196 136.802 14.7685 135.583 15.443C134.422 16.178 133.345 17.0278 132.36 17.9967C131.372 18.9655 130.53 20.0074 129.833 21.1225C129.569 21.5443 129.329 21.9702 129.108 22.4003C127.98 23.5926 126.728 24.7661 125.346 25.9208C124.794 26.3614 124.185 26.8166 123.516 27.2864C122.848 27.7562 122.144 28.1821 121.402 28.5622C120.663 28.9443 119.9 29.2303 119.115 29.4204C118.33 29.6125 117.547 29.6333 116.762 29.4872C115.89 29.1948 115.39 28.6728 115.258 27.9232C115.128 27.1736 115.192 26.3593 115.454 25.4802C115.715 24.5991 116.087 23.7409 116.566 22.9036C117.045 22.0663 117.473 21.4294 117.851 20.9888C118.111 20.6965 118.452 20.3436 118.874 19.9323C119.295 19.5209 119.752 19.1701 120.245 18.8757C120.739 18.5834 121.247 18.3767 121.77 18.2598C122.293 18.1428 122.786 18.2159 123.251 18.479C123.483 18.6544 123.468 18.8173 123.208 18.9634C122.714 19.2286 122.264 19.5585 121.857 19.9552C121.45 20.352 121.072 20.7696 120.725 21.2102C120.375 21.5923 120.115 22.0621 119.94 22.6196C119.766 23.4423 120.07 23.9121 120.855 24.029C121.028 24.0875 121.189 24.0875 121.334 24.029C121.799 23.9413 122.235 23.7367 122.642 23.4131C124.036 22.3565 124.978 21.0076 125.474 19.3622C125.706 18.6293 125.714 17.9904 125.497 17.4475C125.28 16.9046 124.879 16.4285 124.299 16.0172C123.34 15.4012 122.317 15.1214 121.227 15.1799C120.138 15.2384 119.061 15.4952 118.004 15.9504C116.944 16.4056 115.948 17.0007 115.021 17.7336C114.091 18.4686 113.306 19.2307 112.667 20.0242C112.087 20.7884 111.57 21.6466 111.12 22.6008C110.67 23.555 110.38 24.5239 110.248 25.5074C110.118 26.4908 110.199 27.4513 110.488 28.391C110.779 29.3306 111.389 30.1679 112.318 30.9008C112.37 30.9384 112.424 30.9718 112.475 31.0073C112.624 31.1075 112.773 31.2036 112.926 31.2892C113.041 31.356 113.159 31.4165 113.279 31.4729L112.422 32.7863C112.298 33.0911 112.304 33.5401 113.12 33.8804C113.126 33.8825 113.132 33.8867 113.138 33.8888C113.155 33.895 113.169 33.9013 113.184 33.9076C113.862 34.1874 114.19 34.5841 114.178 35.1019C114.155 35.4799 113.981 35.7659 113.674 35.9351C113.424 36.0729 113.085 36.1313 112.692 36.1084C112.126 36.0729 111.552 35.8829 111.097 35.5843L111.073 35.6448C110.982 35.8766 110.705 36.716 111.287 37.0522C111.42 37.1023 111.558 37.144 111.698 37.1816C111.75 37.19 111.796 37.2025 111.837 37.2171C112.085 37.2756 112.339 37.3153 112.587 37.3299C113.486 37.3842 114.256 37.2401 114.814 36.906C115.456 36.5239 115.808 35.91 115.857 35.0831C115.921 34.037 115.169 33.3229 114.326 33.0118C114.326 33.0118 114.31 33.0055 114.302 33.0034C114.277 32.9951 114.25 32.9847 114.225 32.9763C113.859 32.8239 114.019 32.5128 114.101 32.3896L114.14 32.3374L114.467 31.8905C114.618 31.926 114.771 31.9552 114.926 31.9782C115.855 32.1098 116.828 32.0743 117.845 31.8675C119.702 31.4854 121.408 30.811 122.964 29.8421C124.518 28.8733 126.051 27.6852 127.561 26.2758C127.641 26.2006 127.72 26.1254 127.798 26.0503C127.67 26.708 127.604 27.3553 127.604 27.9942C127.633 29.1385 127.852 30.0196 128.257 30.6356C128.664 31.2516 129.187 31.6483 129.825 31.8237C130.463 31.9991 131.191 31.9845 132.003 31.7799C132.814 31.5731 133.628 31.2223 134.442 30.7233C134.878 30.5166 135.349 30.2535 135.858 29.9298C136.366 29.6062 136.88 29.2471 137.405 28.8503C137.928 28.4536 138.428 28.0569 138.907 27.6622C139.386 27.2655 139.814 26.8917 140.192 26.5389C140.221 27.0379 140.25 27.5599 140.279 28.1028C140.308 28.6457 140.388 29.1677 140.518 29.6667C140.648 30.1658 140.882 30.6064 141.215 30.9885C141.547 31.3706 142.035 31.6483 142.673 31.8258C143.311 31.855 143.964 31.6567 144.634 31.2307C145.301 30.8047 145.97 30.2472 146.638 29.5582C147.237 28.9401 147.821 28.2552 148.396 27.5077C148.423 27.894 148.474 28.2698 148.553 28.6332C148.699 29.293 149.003 29.7858 149.468 30.1073C149.875 30.312 150.354 30.3704 150.906 30.2827C151.137 30.2243 151.327 30.1136 151.472 29.9528C151.617 29.792 151.747 29.5937 151.864 29.3577C152.3 28.3304 152.722 27.3845 153.127 26.518C153.534 25.6514 154.027 24.7202 154.608 23.7221C154.87 23.0769 155.261 22.3565 155.784 21.5651C156.306 20.7717 156.887 20.0388 157.527 19.3643C158.166 18.6899 158.818 18.1178 159.488 17.648C160.155 17.1781 160.764 16.9589 161.318 16.9881C161.55 17.1051 161.506 17.5895 161.188 18.4414C160.868 19.2933 160.446 20.3353 159.924 21.5672C159.401 22.7992 158.893 24.1293 158.399 25.5512C157.905 26.9753 157.599 28.3179 157.484 29.5791C157.368 30.8402 157.55 31.9281 158.029 32.8364C158.508 33.7468 159.473 34.3043 160.926 34.5089C161.448 34.6259 162.072 34.582 162.799 34.3774C163.525 34.1707 164.122 33.8637 164.584 33.4524C164.729 33.3041 164.882 33.158 165.041 33.0118C165.2 32.8635 165.353 32.6882 165.498 32.4835C165.642 32.3081 165.758 32.116 165.847 31.9114C165.933 31.7047 166.035 31.5001 166.152 31.2954C166.21 31.1472 166.167 31.0595 166.022 31.0302L166.035 31.024Z" fill="#FEA38E"/>
</svg>
