<svg width="77" height="25" viewBox="0 0 77 25" fill="none" xmlns="http://www.w3.org/2000/svg">
<rect x="9.11765" y="5.58813" width="67" height="16.8235" rx="8.41177" fill="#E63732"/>
<path d="M16.3557 23.2782C17.2653 23.8169 17.9929 24 18.5601 24C19.17 24 19.5981 23.7845 19.8656 23.5906C20.3578 23.2244 21.1176 22.2871 20.6253 20.1326L19.8656 16.8253C19.7907 16.4698 19.9512 15.8881 20.208 15.6295L22.8618 12.9471C24.178 11.6112 24.071 10.4693 23.8998 9.90913C23.7286 9.34895 23.1507 8.35785 21.2995 8.04543L17.8859 7.47447C17.5649 7.42061 17.1048 7.07588 16.955 6.78501L15.0716 2.99297C14.2156 1.25855 13.092 1 12.5035 1C11.9149 1 10.7913 1.25855 9.93527 2.99297L8.04123 6.79578C7.90212 7.08665 7.44199 7.43138 7.12096 7.48525L3.70742 8.05621C1.86689 8.36862 1.28905 9.35972 1.10713 9.91991C0.925221 10.4801 0.818213 11.622 2.14511 12.9578L4.7989 15.6295C5.05572 15.8881 5.22693 16.4806 5.14132 16.8253L4.38157 20.1326C3.87863 22.2871 4.64909 23.2244 5.14132 23.5906C5.64426 23.9569 6.75714 24.4094 8.65117 23.2782L11.8614 21.3714C12.1824 21.1775 12.8245 21.1775 13.1562 21.3714L16.3557 23.2782Z" fill="#E63732" stroke="white" stroke-width="2"/>
<path d="M31.3324 11.5423V17.1623C31.3324 17.6723 31.6524 17.9423 32.0824 17.9423C32.5124 17.9423 32.8324 17.6723 32.8324 17.1623V15.5223H33.9424C35.3024 15.5223 36.4424 14.6123 36.4424 13.1523C36.4424 11.7123 35.3524 10.7623 33.8824 10.7623H32.1124C31.6024 10.7623 31.3324 11.0723 31.3324 11.5423ZM32.8324 14.2023V12.0823H33.8524C34.4924 12.0823 34.8824 12.5423 34.8824 13.1423C34.8824 13.7423 34.4924 14.2023 33.8524 14.2023H32.8324ZM39.519 12.4423C37.999 12.4423 36.939 13.7623 36.939 15.2323C36.939 16.7323 37.969 18.0023 39.519 18.0023C41.069 18.0023 42.099 16.7323 42.099 15.2323C42.099 13.7623 41.039 12.4423 39.519 12.4423ZM39.519 13.7623C40.319 13.7623 40.659 14.5523 40.659 15.2323C40.659 15.9223 40.289 16.6823 39.519 16.6823C38.749 16.6823 38.379 15.9223 38.379 15.2323C38.379 14.5523 38.719 13.7623 39.519 13.7623ZM43.0056 13.3023V19.2623C43.0056 19.7423 43.2956 20.0623 43.7256 20.0623C44.1556 20.0623 44.4456 19.7423 44.4456 19.2623V17.5023C44.8356 17.8323 45.3156 18.0023 45.7656 18.0023C47.2156 18.0023 48.1356 16.6523 48.1356 15.2923C48.1356 13.8923 47.3656 12.4423 45.8156 12.4423C45.2656 12.4423 44.7156 12.6623 44.4456 13.1023C44.3556 12.7123 44.1256 12.5023 43.7256 12.5023C43.2956 12.5023 43.0056 12.8223 43.0056 13.3023ZM44.4456 15.1823C44.4456 14.4923 44.8156 13.7623 45.5756 13.7623C46.3256 13.7623 46.6956 14.5523 46.6956 15.2323C46.6956 15.9123 46.3256 16.6823 45.5756 16.6823C44.7856 16.6823 44.4456 15.8823 44.4456 15.1823ZM49.0478 13.3023V15.9023C49.0478 17.1923 49.8878 18.0023 51.4178 18.0023C52.9478 18.0023 53.7878 17.1923 53.7878 15.9023V13.3023C53.7878 12.8223 53.4978 12.5023 53.0678 12.5023C52.6378 12.5023 52.3478 12.8223 52.3478 13.3023V15.8723C52.3478 16.4723 51.8978 16.8023 51.4178 16.8023C50.9378 16.8023 50.4878 16.4723 50.4878 15.8723V13.3023C50.4878 12.8223 50.1978 12.5023 49.7678 12.5023C49.3378 12.5023 49.0478 12.8223 49.0478 13.3023ZM51.7978 11.1323C51.7978 11.5323 52.1178 11.8523 52.5178 11.8523C52.9178 11.8523 53.2378 11.5323 53.2378 11.1323C53.2378 10.7323 52.9178 10.4123 52.5178 10.4123C52.1178 10.4123 51.7978 10.7323 51.7978 11.1323ZM49.5978 11.1323C49.5978 11.5323 49.9178 11.8523 50.3178 11.8523C50.7178 11.8523 51.0378 11.5323 51.0378 11.1323C51.0378 10.7323 50.7178 10.4123 50.3178 10.4123C49.9178 10.4123 49.5978 10.7323 49.5978 11.1323ZM54.8845 10.9823V17.1423C54.8845 17.6223 55.1745 17.9423 55.6045 17.9423C56.0345 17.9423 56.3245 17.6223 56.3245 17.1423V10.9823C56.3245 10.5023 56.0345 10.1823 55.6045 10.1823C55.1745 10.1823 54.8845 10.5023 54.8845 10.9823ZM58.5813 15.7023H61.6513C62.0913 15.7023 62.2813 15.4923 62.2813 15.0623C62.2813 13.8623 61.2513 12.4423 59.6913 12.4423C58.1713 12.4423 57.1113 13.7623 57.1113 15.2323C57.1113 16.8223 58.1913 18.0023 59.8113 18.0023C60.8913 18.0023 62.1613 17.3923 62.1613 16.7823C62.1613 16.4723 61.8813 16.1623 61.5713 16.1623C61.1913 16.1623 60.6813 16.7423 59.9413 16.7423C59.2613 16.7423 58.6913 16.4223 58.5813 15.7023ZM60.8413 14.7423H58.5513C58.6213 14.1323 59.0513 13.6423 59.6913 13.6423C60.3713 13.6423 60.7613 14.1023 60.8413 14.7423ZM63.0724 13.2223V17.1423C63.0724 17.6223 63.3624 17.9423 63.7924 17.9423C64.2224 17.9423 64.5124 17.6223 64.5124 17.1423V14.9323C64.5124 14.3723 64.9524 14.1623 65.3824 13.9723C65.8124 13.7623 66.2424 13.7523 66.2424 13.2723C66.2424 12.7523 65.8924 12.5023 65.5424 12.5023C65.0924 12.5023 64.8024 12.7023 64.5324 13.1023H64.5124C64.5124 12.6323 64.2024 12.5023 63.8124 12.5023C63.4524 12.5023 63.0724 12.7423 63.0724 13.2223Z" fill="#FFF2F2"/>
</svg>
