<svg width="259" height="258" viewBox="0 0 259 258" fill="none" xmlns="http://www.w3.org/2000/svg">
<g filter="url(#filter0_d_160_22850)">
<path d="M82.7939 61.877C90.1851 56.7504 94.5771 44.7956 103.378 42.1544C111.873 39.6044 122.082 47.0695 131.426 47.2844C140.768 47.4895 151.306 40.4963 159.672 43.42C168.347 46.4526 172.194 58.5912 179.346 64.0472C186.573 69.556 199.276 70.0777 204.455 77.5405C205.024 78.3591 205.477 79.2421 205.843 80.165C206.456 81.7041 206.821 83.3751 207.03 85.1325C207.216 86.7279 207.288 88.3877 207.304 90.0768C207.316 91.7114 207.281 93.3639 207.266 95.0131C207.254 96.6819 207.26 98.3376 207.354 99.9535C207.455 101.669 207.659 103.336 208.046 104.903C208.12 105.197 208.2 105.495 208.284 105.787C208.701 107.168 209.311 108.532 210.045 109.891C210.948 111.567 212.039 113.232 213.172 114.9C214.302 116.559 215.47 118.226 216.535 119.915C217.577 121.553 218.518 123.214 219.233 124.911C219.92 126.528 220.402 128.18 220.566 129.879C220.619 130.408 220.647 130.935 220.632 131.475C220.607 132.619 220.426 133.728 220.136 134.811C219.678 136.489 218.937 138.119 218.031 139.701C217.083 141.356 215.957 142.97 214.778 144.563C213.574 146.19 212.328 147.804 211.167 149.419C210.016 151.032 208.95 152.646 208.121 154.291C207.739 155.042 207.41 155.805 207.141 156.568C206.85 157.41 206.61 158.288 206.424 159.188C206.096 160.769 205.916 162.421 205.792 164.113C205.682 165.738 205.628 167.394 205.577 169.044C205.524 170.71 205.464 172.361 205.337 173.974C205.2 175.674 204.98 177.332 204.604 178.896C204.182 180.668 203.555 182.32 202.611 183.788C202.431 184.064 202.241 184.342 202.044 184.605C200.767 186.275 199.104 187.557 197.211 188.606C193.481 190.676 188.849 191.827 184.499 193.257C181.524 194.232 178.683 195.344 176.353 196.959C175.898 197.271 175.453 197.616 175.022 197.979C173.393 199.346 171.896 201.022 170.448 202.811C169.17 204.385 167.932 206.048 166.661 207.661C165.302 209.384 163.91 211.058 162.415 212.503C160.448 214.403 158.292 215.918 155.782 216.674C148.096 218.984 138.991 213.081 130.401 211.786C129.505 211.655 128.612 211.568 127.731 211.55C126.849 211.532 125.958 211.575 125.055 211.671C116.416 212.578 107.062 218.068 99.4847 215.414C97.0055 214.549 94.9232 212.934 93.0409 210.954C91.6082 209.442 90.2951 207.713 89.0129 205.93C87.8146 204.257 86.6447 202.545 85.4431 200.914C84.0738 199.059 82.6581 197.318 81.0871 195.879C80.6717 195.496 80.2401 195.137 79.8019 194.798C77.5462 193.077 74.7542 191.842 71.828 190.735C67.5502 189.111 62.9746 187.747 59.3379 185.514C57.4968 184.381 55.89 183.028 54.6933 181.305C54.5018 181.031 54.3283 180.744 54.1604 180.46C53.2854 178.95 52.7326 177.265 52.3889 175.48C52.0853 173.904 51.942 172.237 51.8776 170.53C51.8181 168.914 51.8417 167.253 51.8554 165.594C51.8749 163.939 51.8944 162.284 51.8586 160.659C51.821 158.963 51.7086 157.3 51.4481 155.712C51.302 154.808 51.1086 153.921 50.8501 153.066C50.6144 152.287 50.3144 151.514 49.9697 150.743C49.2166 149.062 48.2259 147.4 47.1456 145.743C46.0637 144.076 44.8866 142.411 43.7566 140.727C42.6527 139.079 41.596 137.413 40.7209 135.722C39.8865 134.095 39.2181 132.439 38.8346 130.746C38.5858 129.648 38.4541 128.531 38.4844 127.391C38.4956 126.857 38.5474 126.326 38.6204 125.802C38.8645 124.109 39.4213 122.485 40.1751 120.898C40.9719 119.239 41.9854 117.613 43.0949 116.022C44.2369 114.385 45.4832 112.771 46.6806 111.165C47.8862 109.548 49.0526 107.937 50.0294 106.303C50.8233 104.986 51.4974 103.643 51.9737 102.288C52.0761 102 52.1631 101.709 52.25 101.419C52.7075 99.861 52.9834 98.2084 53.16 96.5021C53.3276 94.8926 53.4074 93.2377 53.47 91.5705C53.5261 89.9245 53.5651 88.2663 53.6538 86.6349C53.7384 84.949 53.8881 83.2923 54.1502 81.7073C54.4367 79.9675 54.8778 78.3124 55.5592 76.8028C55.9649 75.8966 56.4586 75.0359 57.0646 74.2468C62.5735 67.0201 75.2937 67.0721 82.7565 61.8933L82.7939 61.877Z" fill="url(#paint0_linear_160_22850)"/>
</g>
<path d="M99.9084 207.946C100.518 208.381 101.124 208.702 101.712 208.915C101.76 208.932 101.814 208.953 101.872 208.968C102.301 209.102 102.767 208.859 102.895 208.426C103.029 207.997 102.786 207.53 102.353 207.402L102.257 207.368C101.532 207.117 100.748 206.601 99.9073 205.838C99.5653 205.533 99.0516 205.554 98.7514 205.89C98.4455 206.223 98.4678 206.746 98.8041 207.046C99.1779 207.39 99.5493 207.69 99.9141 207.95L99.9084 207.946ZM103.375 209.103C103.506 209.197 103.666 209.251 103.833 209.258C104.806 209.281 105.936 209.167 107.269 208.914C107.717 208.829 108.007 208.399 107.922 207.952C107.837 207.504 107.407 207.214 106.959 207.299C105.738 207.529 104.726 207.633 103.869 207.615C103.415 207.601 103.044 207.964 103.03 208.418C103.027 208.7 103.164 208.953 103.375 209.103ZM95.6381 203.394C95.9231 203.597 96.3154 203.602 96.61 203.382C96.9762 203.11 97.0451 202.591 96.7689 202.231C96.1108 201.357 95.4615 200.446 94.8611 199.588C94.5988 199.22 94.0867 199.13 93.7132 199.388C93.3454 199.65 93.2553 200.162 93.5136 200.536C94.1253 201.403 94.7819 202.327 95.4532 203.219C95.5053 203.29 95.5696 203.345 95.6324 203.39L95.6381 203.394ZM62.0488 179.084C62.4592 179.377 62.9356 179.674 63.451 179.964C63.8443 180.184 64.3481 180.045 64.5726 179.646C64.793 179.253 64.6592 178.753 64.2545 178.524C63.1911 177.929 62.3841 177.336 61.8416 176.734C61.5337 176.394 61.0176 176.37 60.6816 176.672C60.3455 176.974 60.3173 177.496 60.6195 177.832C61.0023 178.26 61.4844 178.681 62.0488 179.084ZM67.8698 181.921C67.9268 181.962 67.9879 181.997 68.0571 182.02C68.9959 182.38 69.968 182.73 70.9287 183.071L71.0729 183.122C71.5011 183.282 72.009 183.076 72.1642 182.654C72.3235 182.226 72.1418 181.769 71.7192 181.614L71.4847 181.532C70.5338 181.189 69.573 180.848 68.6399 180.492C68.2158 180.327 67.7445 180.541 67.5795 180.965C67.4437 181.325 67.5693 181.715 67.8657 181.927L67.8698 181.921ZM90.8521 196.719C91.1371 196.922 91.5295 196.927 91.82 196.713C92.1861 196.44 92.2608 195.926 91.9944 195.564C91.2621 194.577 90.5917 193.72 89.9441 192.94C89.6598 192.591 89.1347 192.543 88.7873 192.837C88.4399 193.131 88.3905 193.646 88.6845 193.994C89.3134 194.752 89.9691 195.581 90.677 196.542C90.7291 196.614 90.7894 196.674 90.8578 196.723L90.8521 196.719ZM59.0656 173.403C59.2309 173.521 59.4312 173.577 59.6477 173.551C60.0946 173.492 60.4127 173.082 60.3571 172.629C60.2418 171.73 60.168 170.688 60.1397 169.438C60.1289 168.983 59.7477 168.625 59.2984 168.64C58.8433 168.65 58.4894 169.026 58.5003 169.481C58.5327 170.786 58.6065 171.888 58.7356 172.84C58.7651 173.076 58.8889 173.277 59.0713 173.407L59.0656 173.403ZM75.5656 184.771C75.6169 184.808 75.6722 184.839 75.7374 184.868C76.8252 185.308 77.799 185.728 78.7003 186.165C79.1099 186.362 79.6031 186.189 79.795 185.776C79.9926 185.366 79.8214 184.883 79.4061 184.681C78.4722 184.23 77.4756 183.794 76.3512 183.344C75.931 183.174 75.4484 183.38 75.2834 183.804C75.1379 184.165 75.2651 184.565 75.5672 184.781L75.5656 184.771ZM85.4258 190.567C85.7621 190.807 86.2318 190.764 86.51 190.446C86.8102 190.11 86.7839 189.592 86.4418 189.288C85.9108 188.815 85.3693 188.368 84.8285 187.956C84.4832 187.693 84.1298 187.441 83.778 187.198C83.4034 186.94 82.8931 187.04 82.6385 187.409C82.3839 187.778 82.4729 188.28 82.8377 188.54L82.8491 188.548C83.1838 188.779 83.5103 189.02 83.8312 189.258C84.3377 189.645 84.8451 190.067 85.346 190.511C85.3688 190.527 85.3973 190.547 85.4201 190.563L85.4258 190.567ZM111.414 207.579C111.608 207.717 111.868 207.774 112.117 207.702C112.601 207.566 113.094 207.418 113.592 207.275L113.812 207.208C114.29 207.068 114.779 206.926 115.273 206.788C115.708 206.66 115.959 206.211 115.841 205.774C115.713 205.339 115.265 205.087 114.827 205.206C114.329 205.349 113.841 205.491 113.357 205.627L113.137 205.694C112.645 205.842 112.15 205.979 111.672 206.12C111.236 206.248 110.985 206.696 111.103 207.134C111.16 207.32 111.266 207.473 111.414 207.579ZM58.844 165.201C58.9751 165.295 59.1347 165.349 59.3113 165.354C59.7639 165.359 60.1349 164.996 60.1396 164.543C60.1528 163.451 60.1645 162.35 60.1549 161.242C60.1498 160.791 59.7825 160.426 59.3258 160.427C58.8749 160.432 58.5055 160.805 58.5106 161.256C58.5226 162.348 58.5093 163.44 58.5001 164.526C58.497 164.808 58.633 165.051 58.844 165.201ZM119.34 205.44C119.522 205.57 119.757 205.626 119.994 205.572C121.118 205.324 122.155 205.135 123.165 204.986C123.616 204.921 123.928 204.507 123.863 204.056C123.797 203.605 123.384 203.293 122.933 203.358C121.884 203.514 120.807 203.709 119.645 203.963C119.205 204.062 118.921 204.496 119.021 204.946C119.065 205.15 119.184 205.32 119.35 205.438L119.34 205.44ZM58.6109 156.992C58.7705 157.106 58.9651 157.159 59.1678 157.14C59.622 157.094 59.9515 156.693 59.9016 156.244C59.7838 155.059 59.622 153.971 59.4106 152.917C59.3217 152.475 58.8917 152.186 58.444 152.271C58.0021 152.36 57.7125 152.79 57.7974 153.237C58.0006 154.242 58.1542 155.281 58.2663 156.402C58.2916 156.644 58.4228 156.858 58.6052 156.988L58.6109 156.992ZM127.48 204.521C127.611 204.614 127.77 204.668 127.937 204.675C128.955 204.696 130.024 204.788 131.114 204.937C131.561 204.998 131.981 204.687 132.041 204.24C132.102 203.793 131.797 203.377 131.344 203.312C130.187 203.149 129.057 203.057 127.978 203.027C127.524 203.012 127.153 203.376 127.138 203.83C127.135 204.112 127.273 204.365 127.484 204.515L127.48 204.521ZM135.571 205.804C135.651 205.861 135.739 205.906 135.833 205.93C136.785 206.188 137.809 206.489 138.944 206.851C139.379 206.989 139.841 206.751 139.975 206.322C140.113 205.887 139.875 205.425 139.446 205.291C138.285 204.918 137.239 204.611 136.261 204.343C135.819 204.226 135.37 204.482 135.253 204.923C135.165 205.264 135.297 205.608 135.571 205.804ZM56.7166 149.025C56.9389 149.184 57.2328 149.23 57.5005 149.12C57.9238 148.949 58.1254 148.473 57.9542 148.05C57.5467 147.054 57.0789 146.058 56.5256 145.001C56.3129 144.599 55.8163 144.452 55.4151 144.664C55.0139 144.877 54.866 145.374 55.0786 145.775C55.6124 146.775 56.0525 147.726 56.4364 148.67C56.5016 148.82 56.5969 148.94 56.7223 149.029L56.7166 149.025ZM143.393 208.296C143.455 208.341 143.532 208.378 143.607 208.406C144.914 208.84 145.89 209.149 146.776 209.402C147.213 209.525 147.668 209.273 147.79 208.836C147.913 208.399 147.667 207.948 147.224 207.821C146.365 207.578 145.405 207.272 144.125 206.848C143.694 206.705 143.226 206.938 143.086 207.363C142.968 207.709 143.102 208.089 143.387 208.292L143.393 208.296ZM52.7826 141.831C53.0505 142.022 53.4153 142.042 53.709 141.847C54.0899 141.603 54.1954 141.093 53.9453 140.708C53.3392 139.785 52.7192 138.87 52.0968 137.97C51.8386 137.596 51.3306 137.5 50.9571 137.759C50.5836 138.017 50.4878 138.525 50.746 138.898C51.357 139.79 51.9696 140.692 52.5741 141.605C52.6336 141.69 52.7012 141.764 52.781 141.821L52.7826 141.831ZM151.362 210.172C151.493 210.265 151.653 210.319 151.824 210.32C152.63 210.336 153.324 210.255 153.936 210.073C154.409 209.928 154.896 209.716 155.391 209.433C155.785 209.206 155.915 208.697 155.69 208.313C155.464 207.919 154.955 207.789 154.571 208.014C154.187 208.238 153.812 208.401 153.463 208.505C153.014 208.64 152.491 208.698 151.852 208.689C151.4 208.684 151.027 209.038 151.013 209.492C151.01 209.774 151.142 210.023 151.358 210.177L151.362 210.172ZM48.2131 135.009C48.4754 135.197 48.836 135.222 49.1216 135.038C49.5082 134.798 49.6235 134.287 49.3848 133.91C48.7265 132.855 48.2172 131.941 47.8195 131.124C47.6207 130.716 47.1346 130.541 46.7261 130.74C46.3176 130.939 46.1428 131.425 46.3416 131.833C46.7589 132.707 47.3015 133.671 47.9932 134.775C48.0543 134.87 48.1276 134.948 48.2131 135.009ZM45.4968 127.411C45.6051 127.488 45.7394 127.541 45.8827 127.557C46.3378 127.607 46.7406 127.283 46.79 126.828C46.8807 125.99 47.1822 125.061 47.71 123.984C47.9076 123.574 47.7405 123.085 47.3309 122.887C46.9213 122.69 46.4322 122.857 46.2346 123.266C45.6255 124.518 45.2679 125.622 45.1594 126.654C45.1245 126.956 45.2631 127.244 45.4968 127.411ZM158.184 206.144C158.521 206.384 158.99 206.341 159.269 206.023C159.903 205.315 160.58 204.499 161.406 203.462C161.687 203.104 161.626 202.587 161.273 202.309C160.925 202.001 160.398 202.089 160.121 202.442C159.321 203.454 158.66 204.247 158.052 204.931C157.752 205.268 157.778 205.785 158.12 206.09C158.143 206.106 158.171 206.126 158.194 206.143L158.184 206.144ZM49.0918 120.118C49.4623 120.382 49.9703 120.297 50.2346 119.927C50.8488 119.066 51.5101 118.187 52.1755 117.303C52.4513 116.941 52.3745 116.421 52.0138 116.155C51.6717 115.911 51.1321 115.956 50.8661 116.317C50.1884 117.218 49.523 118.103 48.9007 118.975C48.6364 119.346 48.7213 119.853 49.0918 120.118ZM163.312 199.729C163.665 199.982 164.161 199.914 164.434 199.567C165.212 198.573 165.861 197.772 166.487 197.04C166.776 196.695 166.739 196.179 166.393 195.881C166.059 195.59 165.533 195.628 165.234 195.974C164.596 196.723 163.935 197.542 163.139 198.548C162.858 198.907 162.919 199.423 163.278 199.705C163.289 199.713 163.3 199.721 163.306 199.725L163.312 199.729ZM53.971 113.509C54.3415 113.773 54.8535 113.682 55.1178 113.312C55.8198 112.316 56.4201 111.402 56.9569 110.529C57.1985 110.142 57.0802 109.645 56.6877 109.4C56.3009 109.158 55.7954 109.288 55.5579 109.669C55.0415 110.513 54.4558 111.394 53.7742 112.362C53.5098 112.732 53.6004 113.244 53.9652 113.505L53.971 113.509ZM168.78 193.609C169.088 193.829 169.521 193.811 169.814 193.547C170.622 192.799 171.448 192.124 172.272 191.524C172.639 191.262 172.724 190.746 172.456 190.374C172.188 190.002 171.677 189.922 171.306 190.19C170.432 190.823 169.554 191.547 168.692 192.333C168.362 192.64 168.333 193.162 168.645 193.496C168.683 193.54 168.728 193.572 168.774 193.605L168.78 193.609ZM58.048 106.396C58.0993 106.432 58.1506 106.469 58.2084 106.484C58.6245 106.661 59.1087 106.464 59.2835 106.039C59.4648 105.592 59.6445 105.135 59.8087 104.676C60.0159 104.084 60.2085 103.464 60.384 102.832C60.5067 102.395 60.2452 101.942 59.8039 101.825C59.3667 101.702 58.9134 101.964 58.7964 102.405C58.6339 102.994 58.456 103.582 58.2576 104.137C58.104 104.569 57.9447 104.997 57.7683 105.413C57.617 105.77 57.7459 106.18 58.048 106.396ZM175.553 189.022C175.793 189.193 176.11 189.231 176.389 189.094C177.304 188.654 178.268 188.232 179.344 187.821C179.769 187.66 179.98 187.183 179.814 186.764C179.653 186.339 179.176 186.127 178.753 186.299C177.635 186.731 176.629 187.166 175.676 187.621C175.267 187.82 175.098 188.31 175.297 188.719C175.359 188.849 175.451 188.949 175.559 189.027L175.553 189.022ZM60.0293 98.4588C60.1376 98.5361 60.2662 98.5848 60.4054 98.6067C60.8564 98.6618 61.2649 98.3425 61.32 97.8915C61.4416 96.8772 61.5403 95.7863 61.6179 94.5685C61.6477 94.1167 61.3008 93.7229 60.8489 93.693C60.3971 93.6631 60.0033 94.0101 59.9792 94.466C59.9065 95.6529 59.811 96.703 59.6902 97.6921C59.6513 97.9999 59.7956 98.292 60.0293 98.4588ZM183.226 186.118C183.431 186.264 183.696 186.316 183.953 186.232C184.473 186.07 184.993 185.908 185.513 185.746L187.093 185.256C187.527 185.118 187.767 184.661 187.629 184.227C187.491 183.793 187.034 183.553 186.6 183.691L185.03 184.18C184.51 184.342 183.99 184.504 183.464 184.662C183.031 184.8 182.791 185.257 182.928 185.691C182.983 185.867 183.093 186.015 183.23 186.112L183.226 186.118ZM191.015 183.52C191.237 183.679 191.531 183.725 191.803 183.61C193.043 183.101 194.048 182.597 194.868 182.063C195.248 181.819 195.36 181.313 195.11 180.928C194.865 180.547 194.36 180.436 193.975 180.686C193.241 181.16 192.324 181.625 191.177 182.088C190.754 182.259 190.558 182.738 190.729 183.162C190.788 183.307 190.889 183.431 191.009 183.516L191.015 183.52ZM60.5207 90.2587C60.6461 90.3482 60.8016 90.4075 60.9726 90.4091C61.4268 90.4235 61.8035 90.0643 61.8237 89.6141C61.8565 88.5192 61.899 87.4227 61.9603 86.3482C61.9902 85.8964 61.6392 85.5082 61.1874 85.4784C60.7356 85.4485 60.3474 85.7995 60.3175 86.2513C60.2522 87.3316 60.2129 88.4477 60.1776 89.558C60.1705 89.8454 60.3082 90.0985 60.5248 90.253L60.5207 90.2587ZM61.2678 82.0862C61.3533 82.1472 61.451 82.1912 61.5609 82.218C62.0046 82.3195 62.4465 82.0498 62.548 81.6061C62.8071 80.4834 63.1673 79.6049 63.5984 79.0006L63.6635 78.9094C63.9392 78.547 63.8682 78.0318 63.5115 77.7601L63.4886 77.7438C63.1295 77.4876 62.6297 77.5611 62.3581 77.9178L62.2645 78.0489C61.6992 78.8413 61.2658 79.8826 60.9548 81.2349C60.88 81.5687 61.0113 81.9032 61.2735 82.0903L61.2678 82.0862ZM196.801 178.195C196.875 178.248 196.958 178.29 197.046 178.31C197.48 178.438 197.94 178.191 198.069 177.757C198.345 176.828 198.547 175.725 198.7 174.389C198.755 173.938 198.426 173.531 197.981 173.48C197.53 173.425 197.123 173.754 197.072 174.199C196.932 175.432 196.744 176.443 196.494 177.288C196.392 177.636 196.526 177.99 196.805 178.19L196.801 178.195ZM197.719 170.05C197.844 170.139 198 170.198 198.166 170.206C198.621 170.22 199.003 169.865 199.017 169.411L199.058 168.124C199.083 167.462 199.102 166.796 199.127 166.134C199.142 165.68 198.792 165.301 198.342 165.281C197.888 165.267 197.51 165.616 197.489 166.067C197.466 166.738 197.441 167.4 197.418 168.072L197.377 169.359C197.37 169.646 197.504 169.905 197.72 170.059L197.719 170.05ZM66.5495 76.3233C66.7775 76.486 67.0852 76.525 67.3611 76.4035C68.1929 76.0335 69.1744 75.6585 70.3611 75.2493C70.7932 75.1017 71.0217 74.6368 70.8742 74.2046C70.7266 73.7724 70.2617 73.5439 69.8295 73.6915C68.5997 74.113 67.571 74.5059 66.692 74.8938C66.2762 75.0788 66.0916 75.5665 66.2709 75.9783C66.3345 76.1183 66.4282 76.2282 66.5479 76.3136L66.5495 76.3233ZM74.3116 73.6549C74.5111 73.7973 74.7814 73.8525 75.0345 73.775C76.0844 73.4489 77.1327 73.1129 78.1778 72.7575C78.6099 72.6099 78.8384 72.145 78.6909 71.7128C78.5433 71.2806 78.0784 71.0521 77.6462 71.1997C76.6109 71.5535 75.5765 71.8821 74.5404 72.201C74.1066 72.3388 73.8667 72.7956 74.0045 73.2294C74.0591 73.406 74.169 73.5533 74.3116 73.6549ZM198.15 161.85C198.264 161.931 198.392 161.98 198.541 162C198.991 162.045 199.394 161.722 199.443 161.267C199.563 160.122 199.715 159.078 199.905 158.087C199.991 157.641 199.694 157.214 199.248 157.128C198.802 157.041 198.375 157.339 198.289 157.785C198.086 158.828 197.931 159.913 197.808 161.098C197.779 161.404 197.912 161.688 198.146 161.855L198.15 161.85ZM82.0255 70.849C82.2592 71.0158 82.567 71.0547 82.8469 70.9275C83.9293 70.4353 84.9035 69.926 85.8401 69.3728C86.2283 69.1422 86.3648 68.6374 86.1285 68.2452C85.898 67.857 85.3932 67.7205 85.0009 67.9568C84.1196 68.4807 83.191 68.9623 82.1599 69.4309C81.7497 69.6199 81.5652 70.1077 81.7543 70.5178C81.8121 70.6537 81.9115 70.7677 82.0198 70.8449L82.0255 70.849ZM199.937 153.86C199.994 153.9 200.055 153.935 200.124 153.959C200.548 154.124 201.023 153.904 201.184 153.485C201.551 152.525 201.979 151.575 202.497 150.585C202.706 150.184 202.547 149.683 202.151 149.478C201.749 149.269 201.253 149.422 201.044 149.824C200.492 150.875 200.038 151.885 199.646 152.904C199.51 153.263 199.636 153.654 199.932 153.865L199.937 153.86ZM88.9214 66.4528C89.2235 66.6684 89.6435 66.6584 89.9373 66.4035C90.7428 65.6965 91.5287 64.9325 92.3472 64.0627C92.6588 63.7345 92.6422 63.2151 92.314 62.9035C91.9915 62.596 91.4665 62.6085 91.1549 62.9367C90.3746 63.765 89.6188 64.4988 88.8572 65.1683C88.5155 65.4665 88.4815 65.9842 88.7797 66.3259C88.8228 66.3739 88.8701 66.4162 88.9214 66.4528ZM203.86 146.672L203.872 146.68C204.246 146.939 204.757 146.838 205.011 146.47C205.246 146.129 205.484 145.783 205.724 145.447C206.114 144.9 206.507 144.362 206.908 143.823C207.178 143.457 207.103 142.947 206.741 142.671L206.729 142.663C206.365 142.403 205.861 142.482 205.595 142.843C205.189 143.388 204.789 143.936 204.394 144.489C204.146 144.837 203.898 145.185 203.665 145.535C203.411 145.904 203.5 146.406 203.865 146.666L203.86 146.672ZM94.4797 60.4228C94.8331 60.675 95.3288 60.6072 95.5981 60.2659C96.2375 59.4662 96.8639 58.6486 97.4821 57.8424L97.6164 57.6543C97.9035 57.3 97.8324 56.7848 97.47 56.509C97.141 56.2226 96.5965 56.2986 96.3207 56.661L96.219 56.8035C95.5609 57.6415 94.9427 58.4477 94.313 59.2458C94.0316 59.6041 94.0872 60.1169 94.4455 60.3984C94.4569 60.4065 94.4683 60.4147 94.4797 60.4228ZM208.723 140.051C209.087 140.311 209.601 140.23 209.861 139.865C210.016 139.649 210.166 139.438 210.317 139.227C210.878 138.44 211.349 137.744 211.75 137.11C211.992 136.723 211.876 136.21 211.491 135.978C211.104 135.737 210.601 135.851 210.353 136.234C209.969 136.845 209.518 137.513 208.973 138.277C208.827 138.482 208.676 138.693 208.53 138.898C208.265 139.269 208.341 139.778 208.707 140.048L208.713 140.052L208.723 140.051ZM99.5771 53.9779C99.9191 54.2219 100.397 54.1671 100.679 53.8438C101.49 52.8999 102.208 52.1473 102.88 51.543C103.216 51.2408 103.244 50.719 102.936 50.3789C102.634 50.0428 102.112 50.0146 101.772 50.3225C101.048 50.9757 100.288 51.7755 99.4307 52.7723C99.1322 53.1185 99.1739 53.6386 99.5184 53.9274C99.5412 53.9437 99.5583 53.9559 99.5811 53.9722L99.5771 53.9779ZM212.642 132.894C212.727 132.955 212.825 132.999 212.935 133.026C213.378 133.127 213.819 132.848 213.92 132.404C214.031 131.924 214.092 131.452 214.103 131.003C214.117 130.308 214.016 129.557 213.793 128.761C213.675 128.323 213.22 128.068 212.783 128.186C212.346 128.305 212.091 128.759 212.209 129.196C212.387 129.839 212.471 130.432 212.454 130.962C212.445 131.3 212.401 131.664 212.313 132.04C212.238 132.374 212.374 132.703 212.636 132.89L212.642 132.894ZM210.445 125.194C210.702 125.377 211.053 125.403 211.35 125.228C211.738 124.997 211.865 124.494 211.628 124.102C211.149 123.304 210.578 122.415 209.83 121.305C209.582 120.93 209.068 120.83 208.689 121.084C208.31 121.339 208.214 121.847 208.468 122.226C209.197 123.314 209.759 124.179 210.22 124.955C210.277 125.056 210.356 125.138 210.447 125.203L210.445 125.194ZM106.142 49.4061C106.296 49.5159 106.481 49.5703 106.68 49.5572C106.898 49.5408 107.133 49.5366 107.38 49.5405C108.059 49.5524 108.824 49.6505 109.718 49.8324C110.16 49.9241 110.598 49.6349 110.685 49.1888C110.776 48.7467 110.483 48.3138 110.041 48.222C109.054 48.0256 108.193 47.9185 107.416 47.8978C107.109 47.8939 106.824 47.8965 106.551 47.917C106.095 47.953 105.76 48.3504 105.794 48.7965C105.812 49.0497 105.943 49.2637 106.137 49.402L106.142 49.4061ZM205.904 118.357C206.171 118.548 206.546 118.566 206.84 118.371C207.219 118.117 207.315 117.609 207.066 117.234C206.37 116.196 205.819 115.329 205.319 114.499C205.088 114.111 204.575 113.986 204.193 114.22C203.805 114.451 203.679 114.964 203.914 115.346C204.427 116.194 204.994 117.089 205.702 118.145C205.762 118.23 205.829 118.304 205.909 118.361L205.904 118.357ZM114.153 51.0185C114.222 51.0673 114.293 51.1007 114.373 51.1324C115.106 51.3713 115.861 51.6265 116.617 51.8818L117.484 52.1735C117.915 52.3174 118.379 52.0892 118.523 51.6585C118.666 51.2278 118.438 50.7639 118.008 50.6201L117.162 50.3348C116.385 50.0731 115.629 49.8179 114.885 49.5708C114.454 49.4269 113.992 49.6649 113.848 50.0956C113.736 50.4457 113.868 50.8152 114.153 51.0185ZM201.845 111.229C202.073 111.392 202.377 111.436 202.653 111.315C203.069 111.13 203.259 110.646 203.079 110.235C202.657 109.271 202.299 108.302 202.022 107.364L201.987 107.244C201.859 106.809 201.401 106.559 200.965 106.687C200.53 106.815 200.28 107.274 200.408 107.709L200.449 107.833C200.746 108.828 201.129 109.858 201.576 110.883C201.64 111.023 201.735 111.142 201.849 111.223L201.845 111.229ZM121.962 53.5534C122.036 53.6063 122.118 53.6478 122.219 53.6762C123.372 54.0004 124.436 54.2693 125.461 54.4845C125.903 54.5762 126.338 54.2927 126.43 53.8506C126.521 53.4086 126.242 52.9683 125.796 52.8823C124.802 52.672 123.78 52.4161 122.663 52.1008C122.226 51.9781 121.771 52.2299 121.648 52.6671C121.55 53.0099 121.684 53.3639 121.958 53.5591L121.962 53.5534ZM130.032 55.0104C130.152 55.0958 130.302 55.1511 130.465 55.164C130.728 55.1802 130.996 55.1906 131.258 55.197C132.095 55.2177 132.965 55.1928 133.849 55.1354C134.3 55.105 134.641 54.7117 134.611 54.2599C134.581 53.8081 134.187 53.4672 133.735 53.4976C132.902 53.5566 132.087 53.5774 131.297 53.564C131.05 53.5601 130.802 53.5464 130.553 53.5326C130.097 53.5085 129.713 53.8538 129.689 54.3097C129.672 54.5987 129.812 54.8615 130.034 55.0202L130.032 55.0104ZM199.745 103.322C199.904 103.436 200.11 103.497 200.321 103.467C200.774 103.411 201.092 103.001 201.042 102.553C200.919 101.544 200.833 100.494 200.781 99.3383C200.76 98.8849 200.375 98.5326 199.921 98.5532C199.468 98.5738 199.116 98.959 199.136 99.4124C199.191 100.613 199.278 101.698 199.407 102.746C199.437 102.982 199.566 103.186 199.749 103.316L199.745 103.322ZM138.193 54.2784C138.37 54.4045 138.605 54.4605 138.834 54.4172C139.839 54.214 140.897 53.9619 142.074 53.6495C142.512 53.5313 142.778 53.085 142.66 52.648C142.542 52.2109 142.096 51.9441 141.658 52.0624C140.508 52.3601 139.48 52.6073 138.504 52.8056C138.063 52.8946 137.775 53.3343 137.864 53.7763C137.909 53.9895 138.028 54.1604 138.193 54.2784ZM199.428 95.1215C199.559 95.215 199.724 95.2727 199.895 95.2743C200.348 95.2789 200.719 94.9157 200.724 94.4631L200.741 92.9791C200.751 92.3751 200.755 91.767 200.76 91.1686C200.765 90.716 200.396 90.341 199.945 90.3461C199.492 90.3414 199.121 90.7047 199.122 91.1614C199.117 91.7597 199.111 92.358 199.102 92.962L199.084 94.446C199.081 94.7277 199.217 94.971 199.428 95.1215ZM146.137 52.187C146.337 52.3294 146.592 52.3821 146.841 52.3104C148.033 51.9654 149.021 51.6898 149.979 51.4442C150.418 51.3357 150.685 50.8895 150.571 50.4467C150.456 50.004 150.006 49.7429 149.573 49.8555C148.595 50.1042 147.588 50.3832 146.382 50.7355C145.946 50.8635 145.691 51.3179 145.819 51.7533C145.875 51.9397 145.985 52.087 146.133 52.1927L146.137 52.187ZM173.43 69.4922C173.772 69.7362 174.255 69.6855 174.536 69.3524C174.829 69.0022 174.783 68.4877 174.442 68.1932C173.659 67.531 172.901 66.8094 172.132 65.9941C171.82 65.6597 171.301 65.651 170.967 65.963C170.638 66.279 170.624 66.7935 170.936 67.1279C171.748 67.9911 172.548 68.751 173.382 69.4499C173.4 69.4621 173.417 69.4743 173.439 69.4905L173.43 69.4922ZM177.468 72.296C177.468 72.296 177.514 72.3286 177.536 72.3448C178.464 72.8775 179.441 73.3768 180.527 73.868C180.941 74.0598 181.427 73.8732 181.614 73.4653C181.806 73.0516 181.62 72.5657 181.212 72.3779C180.174 71.9039 179.235 71.4233 178.351 70.9133C177.962 70.6872 177.458 70.8267 177.232 71.2159C177.022 71.5824 177.126 72.052 177.468 72.296ZM199.3 86.9096C199.454 87.0194 199.65 87.082 199.857 87.0574C200.307 87.0173 200.64 86.6101 200.596 86.1657C200.469 84.8014 200.253 83.6928 199.946 82.7601C199.805 82.332 199.338 82.0937 198.91 82.2356C198.482 82.3774 198.244 82.844 198.385 83.2721C198.651 84.0811 198.837 85.0742 198.959 86.3139C198.981 86.5613 199.116 86.7696 199.304 86.9039L199.3 86.9096ZM184.951 75.6484C185.008 75.689 185.075 75.7281 185.144 75.7517C185.942 76.0451 186.733 76.3345 187.523 76.6141L188.243 76.8702C188.666 77.0254 189.141 76.8054 189.295 76.373C189.444 75.9464 189.22 75.4768 188.798 75.3216L188.077 75.0655C187.291 74.7802 186.502 74.5006 185.714 74.2055C185.292 74.0503 184.815 74.2605 184.655 74.6888C184.524 75.0421 184.649 75.4328 184.946 75.6443L184.951 75.6484ZM167.881 63.4517C168.166 63.655 168.559 63.6597 168.853 63.4398C169.214 63.1636 169.288 62.6491 169.012 62.2886C168.445 61.54 167.853 60.7304 167.096 59.657C166.834 59.2892 166.322 59.1991 165.954 59.4615C165.586 59.7238 165.496 60.2358 165.758 60.6036C166.528 61.6949 167.128 62.5184 167.708 63.2849C167.76 63.3565 167.819 63.4069 167.887 63.4557L167.881 63.4517ZM192.634 78.5407C192.68 78.5732 192.725 78.6058 192.789 78.6253C193.926 79.118 194.853 79.5905 195.61 80.0614C195.996 80.3029 196.503 80.183 196.745 79.7962C196.987 79.4094 196.857 78.904 196.48 78.6608C195.651 78.1468 194.662 77.6393 193.455 77.1133C193.043 76.9311 192.553 77.1235 192.376 77.5396C192.221 77.9019 192.34 78.3137 192.654 78.5374L192.634 78.5407ZM154.139 50.4725C154.282 50.5742 154.463 50.6344 154.651 50.6229C154.891 50.613 155.126 50.6088 155.353 50.616C155.998 50.6287 156.524 50.7114 156.971 50.8675C157.131 50.9211 157.294 50.9943 157.453 51.0732C157.862 51.2708 158.351 51.1037 158.549 50.6941C158.747 50.2845 158.585 49.7994 158.17 49.5978C157.946 49.4896 157.729 49.3953 157.506 49.3222C156.893 49.1084 156.201 48.9932 155.386 48.9789C155.123 48.9726 154.847 48.9735 154.569 48.99C154.116 49.0105 153.763 49.3958 153.784 49.8492C153.797 50.108 153.926 50.3375 154.125 50.4799L154.139 50.4725ZM163.09 56.7726C163.369 56.9719 163.757 56.9822 164.052 56.7623C164.418 56.4902 164.498 55.9798 164.226 55.6136C163.459 54.5671 162.783 53.7062 162.155 52.9829C161.861 52.6355 161.343 52.6015 160.996 52.8956C160.648 53.1896 160.614 53.7074 160.908 54.0548C161.506 54.7481 162.156 55.5732 162.903 56.5879C162.955 56.6595 163.021 56.7238 163.09 56.7726Z" fill="#0D1835"/>
<path d="M99.8675 208.247C100.477 208.682 101.089 209.007 101.671 209.215L101.815 209.267C102.25 209.405 102.712 209.167 102.846 208.738C102.985 208.303 102.747 207.841 102.318 207.707L102.212 207.674C101.481 207.42 100.709 206.911 99.8624 206.144C99.522 205.85 99.0067 205.861 98.7024 206.203C98.3965 206.535 98.4188 207.058 98.7608 207.363C99.1387 207.701 99.5117 208.01 99.8651 208.262L99.8675 208.247ZM103.334 209.404C103.465 209.498 103.625 209.551 103.792 209.559C104.769 209.576 105.895 209.468 107.229 209.215C107.676 209.13 107.966 208.7 107.881 208.252C107.796 207.805 107.366 207.515 106.918 207.6C105.697 207.829 104.685 207.933 103.828 207.916C103.374 207.902 103.003 208.265 102.989 208.719C102.986 209.001 103.123 209.254 103.334 209.404ZM95.5931 203.7C95.8781 203.904 96.2705 203.908 96.5651 203.688C96.9312 203.416 97.0002 202.898 96.7297 202.541C96.0715 201.667 95.4222 200.757 94.8218 199.898C94.5636 199.525 94.0475 199.44 93.6739 199.699C93.3061 199.961 93.2161 200.473 93.4743 200.847C94.0861 201.713 94.7427 202.638 95.4139 203.529C95.4661 203.601 95.5304 203.656 95.5931 203.7ZM62.0038 179.39C62.4143 179.683 62.8906 179.98 63.4061 180.27C63.7994 180.491 64.3032 180.351 64.5276 179.952C64.748 179.559 64.62 179.063 64.2096 178.831C63.1461 178.235 62.3391 177.642 61.7967 177.04C61.4888 176.7 60.9727 176.676 60.6366 176.978C60.3006 177.28 60.2724 177.802 60.5745 178.138C60.9574 178.566 61.4395 178.988 62.0038 179.39ZM67.8249 182.228C67.8819 182.268 67.9429 182.303 68.0121 182.327C68.999 182.704 70.0191 183.071 71.0279 183.429L71.1028 183.457C71.5311 183.616 72.0023 183.402 72.1616 182.973C72.3209 182.545 72.1066 182.074 71.6783 181.915L71.5823 181.88C70.5833 181.52 69.5745 181.162 68.5991 180.793C68.1749 180.628 67.7037 180.842 67.5386 181.266C67.4029 181.625 67.5284 182.016 67.8249 182.228ZM90.8071 197.025C91.0922 197.229 91.4845 197.233 91.775 197.019C92.1412 196.747 92.2158 196.232 91.9494 195.87C91.2171 194.883 90.5467 194.026 89.8991 193.246C89.6092 192.893 89.0898 192.849 88.7423 193.143C88.3949 193.437 88.3455 193.953 88.6396 194.3C89.2684 195.059 89.9241 195.888 90.632 196.849C90.6842 196.92 90.7444 196.98 90.8129 197.029L90.8071 197.025ZM59.0207 173.709C59.186 173.827 59.3863 173.884 59.6028 173.858C60.0497 173.798 60.3677 173.389 60.3121 172.936C60.1969 172.037 60.1231 170.995 60.0947 169.744C60.0839 169.289 59.7028 168.931 59.2534 168.946C58.7984 168.957 58.4445 169.332 58.4553 169.787C58.4877 171.092 58.5616 172.194 58.6907 173.147C58.7201 173.383 58.844 173.583 59.0264 173.713L59.0207 173.709ZM75.5206 185.077C75.5719 185.114 75.6273 185.145 75.6924 185.174C76.7802 185.615 77.75 186.04 78.6554 186.471C79.065 186.669 79.5582 186.496 79.7501 186.082C79.9477 185.673 79.7765 185.189 79.3612 184.988C78.4273 184.536 77.4307 184.1 76.3062 183.651C75.8861 183.48 75.4035 183.686 75.2385 184.111C75.0929 184.471 75.2201 184.872 75.5223 185.087L75.5206 185.077ZM85.3808 190.874C85.7171 191.114 86.1868 191.071 86.4651 190.753C86.7653 190.417 86.7389 189.899 86.4009 189.589C85.8699 189.115 85.3284 188.669 84.7876 188.257C84.4423 187.994 84.0889 187.741 83.7371 187.499C83.3625 187.24 82.8522 187.341 82.5976 187.71C82.343 188.079 82.4377 188.585 82.7968 188.841L82.8082 188.849C83.1331 189.081 83.4638 189.317 83.7903 189.558C84.2968 189.946 84.8042 190.368 85.3051 190.811C85.3279 190.828 85.3564 190.848 85.3792 190.864L85.3808 190.874ZM111.369 207.885C111.563 208.023 111.823 208.08 112.072 208.008L113.62 207.564C114.151 207.41 114.682 207.256 115.229 207.104C115.665 206.976 115.916 206.527 115.798 206.09C115.67 205.655 115.216 205.399 114.784 205.522C114.237 205.673 113.702 205.833 113.17 205.987L111.629 206.436C111.193 206.564 110.938 207.018 111.066 207.454C111.122 207.64 111.228 207.793 111.376 207.899L111.369 207.885ZM58.799 165.508C58.9301 165.601 59.0897 165.655 59.2664 165.661C59.719 165.665 60.09 165.302 60.0946 164.849C60.1079 163.758 60.1195 162.656 60.11 161.549C60.1049 161.098 59.7376 160.732 59.2809 160.733C58.8299 160.738 58.4605 161.111 58.4657 161.562C58.4776 162.655 58.4644 163.746 58.4552 164.832C58.452 165.114 58.5881 165.357 58.799 165.508ZM119.295 205.747C119.477 205.877 119.713 205.933 119.949 205.878C121.073 205.63 122.11 205.441 123.12 205.293C123.571 205.227 123.883 204.814 123.818 204.363C123.752 203.912 123.339 203.599 122.888 203.665C121.839 203.82 120.762 204.015 119.6 204.27C119.16 204.368 118.876 204.802 118.976 205.253C119.02 205.456 119.139 205.627 119.305 205.745L119.295 205.747ZM58.566 157.298C58.7256 157.412 58.9202 157.465 59.1229 157.446C59.5771 157.4 59.9008 156.995 59.8607 156.545C59.7429 155.36 59.5811 154.272 59.3697 153.218C59.2808 152.776 58.8508 152.487 58.4031 152.571C57.9612 152.66 57.6716 153.09 57.7565 153.538C57.9597 154.543 58.1117 155.572 58.2311 156.707C58.2565 156.949 58.3876 157.163 58.57 157.293L58.566 157.298ZM127.435 204.827C127.566 204.921 127.725 204.974 127.892 204.982C128.91 205.002 129.98 205.095 131.065 205.25C131.512 205.31 131.932 204.999 131.992 204.552C132.053 204.105 131.742 203.685 131.295 203.625C130.144 203.466 129.008 203.369 127.929 203.339C127.475 203.325 127.104 203.688 127.089 204.142C127.086 204.424 127.224 204.677 127.435 204.827ZM135.526 206.11C135.606 206.167 135.694 206.213 135.788 206.237C136.75 206.493 137.764 206.795 138.899 207.158C139.334 207.296 139.796 207.058 139.93 206.629C140.068 206.194 139.831 205.732 139.401 205.598C138.245 205.229 137.204 204.916 136.216 204.649C135.774 204.532 135.331 204.792 135.208 205.229C135.12 205.571 135.252 205.915 135.526 206.11ZM56.6716 149.332C56.8939 149.49 57.1878 149.537 57.4556 149.426C57.8788 149.255 58.0804 148.78 57.9093 148.357C57.5017 147.36 57.0339 146.364 56.4807 145.307C56.268 144.906 55.7714 144.758 55.3701 144.971C54.9689 145.183 54.821 145.68 55.0337 146.081C55.5674 147.081 56.0075 148.032 56.3914 148.977C56.4566 149.127 56.5519 149.246 56.6773 149.336L56.6716 149.332ZM143.348 208.603C143.411 208.647 143.487 208.685 143.562 208.712C144.87 209.146 145.845 209.455 146.731 209.709C147.168 209.831 147.623 209.58 147.746 209.142C147.868 208.705 147.622 208.254 147.179 208.128C146.32 207.885 145.366 207.582 144.08 207.155C143.649 207.011 143.181 207.245 143.041 207.67C142.923 208.016 143.057 208.395 143.342 208.599L143.348 208.603ZM52.7377 142.138C53.0056 142.329 53.3703 142.348 53.6641 142.153C54.0449 141.909 54.1505 141.399 53.9004 141.014C53.2942 140.092 52.6743 139.176 52.0519 138.276C51.7936 137.903 51.2856 137.807 50.9121 138.065C50.5386 138.323 50.4428 138.831 50.7011 139.205C51.3121 140.097 51.9247 140.998 52.5292 141.911C52.5887 141.997 52.6562 142.071 52.7361 142.128L52.7377 142.138ZM151.317 210.478C151.449 210.572 151.608 210.625 151.779 210.627C152.585 210.643 153.274 210.558 153.891 210.379C154.364 210.235 154.855 210.017 155.35 209.734C155.744 209.507 155.874 208.998 155.65 208.614C155.423 208.22 154.914 208.089 154.53 208.314C154.146 208.539 153.772 208.702 153.422 208.806C152.973 208.941 152.451 208.998 151.816 208.984C151.363 208.979 150.99 209.333 150.976 209.787C150.973 210.069 151.105 210.318 151.321 210.472L151.317 210.478ZM48.1682 135.316C48.4304 135.503 48.791 135.528 49.0767 135.345C49.4632 135.104 49.5785 134.593 49.3398 134.216C48.6815 133.162 48.1723 132.248 47.7746 131.431C47.5758 131.022 47.0897 130.847 46.6812 131.046C46.2726 131.245 46.0979 131.731 46.2967 132.14C46.7139 133.014 47.2566 133.977 47.9483 135.082C48.0094 135.177 48.0827 135.255 48.1682 135.316ZM45.4518 127.718C45.5601 127.795 45.6945 127.848 45.8378 127.864C46.2929 127.913 46.6956 127.59 46.745 127.135C46.8358 126.296 47.1373 125.367 47.665 124.29C47.8626 123.881 47.7012 123.395 47.2859 123.194C46.8764 122.996 46.3872 123.163 46.1896 123.573C45.5806 124.824 45.223 125.928 45.1144 126.961C45.0796 127.263 45.2181 127.551 45.4518 127.718ZM158.139 206.451C158.476 206.691 158.945 206.647 159.229 206.334C159.864 205.625 160.541 204.809 161.366 203.772C161.648 203.414 161.587 202.897 161.234 202.62C160.891 202.341 160.359 202.4 160.081 202.752C159.282 203.765 158.621 204.558 158.007 205.238C157.707 205.574 157.733 206.092 158.075 206.396C158.098 206.412 158.126 206.433 158.149 206.449L158.139 206.451ZM49.0469 120.424C49.4174 120.689 49.9253 120.604 50.1897 120.233C50.8038 119.373 51.4611 118.5 52.1306 117.609C52.4064 117.247 52.3296 116.728 51.9688 116.462C51.6235 116.198 51.0871 116.263 50.8211 116.624C50.1435 117.525 49.4781 118.409 48.8558 119.282C48.5914 119.652 48.6764 120.16 49.0469 120.424ZM163.267 200.036C163.62 200.288 164.116 200.22 164.389 199.873C165.167 198.88 165.816 198.078 166.442 197.346C166.735 196.996 166.695 196.486 166.348 196.187C166.014 195.897 165.488 195.934 165.189 196.281C164.551 197.03 163.89 197.848 163.094 198.855C162.813 199.213 162.874 199.73 163.233 200.011C163.244 200.02 163.255 200.028 163.261 200.032L163.267 200.036ZM53.926 113.815C54.2965 114.079 54.8085 113.989 55.0672 113.614C55.7692 112.618 56.3654 111.71 56.9063 110.832C57.1478 110.445 57.0393 109.946 56.637 109.702C56.2502 109.46 55.7448 109.59 55.5073 109.971C54.9867 110.821 54.4011 111.702 53.7235 112.664C53.4632 113.029 53.5498 113.547 53.9146 113.807L53.926 113.815ZM168.735 193.916C169.043 194.135 169.476 194.118 169.769 193.853C170.577 193.105 171.403 192.43 172.227 191.831C172.595 191.568 172.679 191.052 172.411 190.68C172.143 190.308 171.632 190.228 171.261 190.496C170.387 191.129 169.51 191.853 168.647 192.64C168.317 192.946 168.288 193.468 168.6 193.802C168.638 193.846 168.684 193.879 168.729 193.911L168.735 193.916ZM58.003 106.702C58.0544 106.739 58.1 106.771 58.1635 106.791C58.5795 106.967 59.0638 106.771 59.2386 106.345C59.4239 105.892 59.5995 105.441 59.758 104.978C59.9694 104.38 60.1562 103.757 60.3293 103.141C60.4463 102.699 60.1905 102.25 59.7492 102.133C59.312 102.01 58.8587 102.272 58.7417 102.713C58.5833 103.297 58.3996 103.88 58.2029 104.445C58.0493 104.877 57.89 105.306 57.7136 105.722C57.5623 106.078 57.6912 106.488 57.9933 106.704L58.003 106.702ZM175.507 189.319C175.741 189.486 176.064 189.527 176.342 189.39C177.248 188.953 178.217 188.535 179.297 188.118C179.722 187.957 179.933 187.48 179.768 187.06C179.607 186.636 179.129 186.424 178.71 186.59C177.583 187.024 176.582 187.463 175.633 187.912C175.225 188.111 175.055 188.601 175.254 189.01C175.316 189.14 175.408 189.24 175.517 189.318L175.507 189.319ZM59.9827 98.7555C60.091 98.8328 60.2196 98.8815 60.3588 98.9034C60.8099 98.9586 61.2183 98.6392 61.2735 98.1882C61.395 97.1739 61.4938 96.083 61.5713 94.8652C61.6012 94.4134 61.2599 94.0237 60.8024 93.9897C60.3506 93.9598 59.9567 94.3068 59.9326 94.7627C59.8599 95.9496 59.7644 96.9997 59.6437 97.9888C59.6047 98.2966 59.749 98.5887 59.9827 98.7555ZM183.185 186.419C183.39 186.565 183.655 186.616 183.912 186.533L187.052 185.556C187.486 185.419 187.726 184.962 187.588 184.528C187.45 184.094 186.993 183.854 186.559 183.992L183.419 184.969C182.986 185.107 182.746 185.563 182.883 185.997C182.938 186.174 183.048 186.321 183.191 186.423L183.185 186.419ZM190.974 183.821C191.196 183.98 191.49 184.026 191.762 183.91C193.002 183.402 194.007 182.897 194.827 182.364C195.208 182.119 195.319 181.614 195.069 181.229C194.824 180.848 194.319 180.737 193.934 180.987C193.2 181.461 192.288 181.92 191.136 182.388C190.713 182.56 190.517 183.039 190.688 183.462C190.747 183.608 190.848 183.732 190.968 183.817L190.974 183.821ZM60.4798 90.5595C60.6052 90.649 60.7608 90.7083 60.9317 90.7099C61.386 90.7243 61.7627 90.3651 61.7828 89.9149C61.8156 88.82 61.8581 87.7235 61.9194 86.6489C61.9493 86.1971 61.5983 85.809 61.1465 85.7791C60.6947 85.7493 60.3066 86.1003 60.2767 86.5521C60.2113 87.6324 60.172 88.7484 60.1368 89.8588C60.1296 90.1462 60.2673 90.3993 60.4839 90.5538L60.4798 90.5595ZM61.2269 82.387C61.3124 82.448 61.4101 82.4919 61.52 82.5187C61.9637 82.6203 62.4056 82.3506 62.5071 81.9069C62.7662 80.7842 63.1264 79.9056 63.5575 79.3014L63.6226 79.2102C63.8983 78.8478 63.8273 78.3326 63.4706 78.0609L63.4478 78.0446C63.0886 77.7884 62.5889 77.8619 62.3172 78.2186L62.2236 78.3497C61.6583 79.142 61.2249 80.1834 60.9139 81.5357C60.8392 81.8695 60.9704 82.204 61.2326 82.3911L61.2269 82.387ZM196.765 178.49C196.839 178.543 196.921 178.585 197.006 178.611C197.439 178.739 197.899 178.491 198.028 178.058C198.304 177.128 198.512 176.029 198.665 174.693C198.72 174.242 198.391 173.836 197.946 173.785C197.495 173.729 197.088 174.059 197.037 174.504C196.893 175.743 196.705 176.753 196.459 177.593C196.356 177.941 196.491 178.295 196.77 178.494L196.765 178.49ZM197.682 170.345C197.807 170.434 197.963 170.493 198.13 170.501C198.584 170.515 198.966 170.16 198.981 169.706L199.017 168.51C199.037 167.819 199.061 167.122 199.085 166.425C199.099 165.971 198.75 165.593 198.3 165.572C197.849 165.552 197.467 165.907 197.447 166.358C197.419 167.06 197.395 167.757 197.376 168.458L197.335 169.65C197.327 169.937 197.461 170.196 197.678 170.35L197.682 170.345ZM66.5184 76.6225C66.7464 76.7852 67.0541 76.8241 67.33 76.7027C68.1618 76.3327 69.1433 75.9577 70.3259 75.5541C70.7581 75.4066 70.9866 74.9416 70.839 74.5094C70.6914 74.0773 70.2265 73.8488 69.7943 73.9963C68.5645 74.4178 67.5358 74.8107 66.6568 75.1987C66.241 75.3837 66.0564 75.8714 66.2357 76.2832C66.2993 76.4232 66.393 76.533 66.5127 76.6184L66.5184 76.6225ZM74.2804 73.9541C74.48 74.0964 74.7446 74.1476 75.0034 74.0742C76.0533 73.748 77.1016 73.4121 78.1523 73.0607C78.5845 72.9131 78.813 72.4482 78.6655 72.016C78.5179 71.5838 78.053 71.3553 77.6208 71.5029C76.5855 71.8567 75.551 72.1853 74.5149 72.5042C74.0811 72.642 73.8412 73.0988 73.979 73.5326C74.0337 73.7092 74.1436 73.8565 74.2861 73.9582L74.2804 73.9541ZM198.119 162.149C198.233 162.23 198.361 162.279 198.51 162.299C198.96 162.344 199.362 162.021 199.412 161.566C199.532 160.421 199.683 159.377 199.874 158.386C199.96 157.94 199.663 157.513 199.217 157.427C198.771 157.341 198.343 157.638 198.257 158.084C198.055 159.127 197.9 160.212 197.777 161.397C197.748 161.704 197.881 161.988 198.115 162.154L198.119 162.149ZM81.9944 71.1482C82.2281 71.3149 82.5358 71.3538 82.8158 71.2267C83.8982 70.7344 84.8724 70.2252 85.809 69.6719C86.1972 69.4414 86.3337 68.9366 86.0974 68.5443C85.8611 68.1521 85.3621 68.0197 84.9698 68.256C84.0885 68.7798 83.1599 69.2614 82.1288 69.73C81.7186 69.9191 81.5341 70.4068 81.7232 70.817C81.781 70.9529 81.8804 71.0668 81.9887 71.1441L81.9944 71.1482ZM199.909 154.153C199.966 154.194 200.028 154.229 200.097 154.252C200.521 154.417 200.996 154.197 201.157 153.779C201.516 152.83 201.965 151.852 202.47 150.878C202.679 150.477 202.525 149.981 202.124 149.772C201.722 149.563 201.226 149.716 201.017 150.117C200.477 151.151 200.007 152.184 199.619 153.198C199.483 153.557 199.609 153.947 199.905 154.159L199.909 154.153ZM88.8943 66.7463C89.1964 66.9619 89.6165 66.9519 89.9102 66.6969C90.7157 65.9899 91.5017 65.2259 92.3202 64.3561C92.6318 64.0279 92.6152 63.5086 92.287 63.197C91.9645 62.8894 91.4394 62.9019 91.1278 63.2301C90.3476 64.0584 89.5917 64.7922 88.8301 65.4618C88.4884 65.7599 88.4545 66.2776 88.7526 66.6194C88.7958 66.6674 88.843 66.7097 88.8943 66.7463ZM203.828 146.961L203.839 146.97C204.214 147.228 204.724 147.128 204.979 146.759C205.213 146.419 205.451 146.072 205.691 145.736C206.082 145.189 206.474 144.651 206.872 144.118C207.142 143.752 207.066 143.242 206.704 142.966L206.693 142.958C206.328 142.698 205.824 142.777 205.558 143.138C205.152 143.683 204.752 144.232 204.357 144.784C204.109 145.132 203.861 145.48 203.624 145.836C203.37 146.205 203.459 146.707 203.824 146.967L203.828 146.961ZM94.4526 60.7163C94.8061 60.9684 95.3018 60.9006 95.5711 60.5594C96.2145 59.754 96.8369 58.942 97.4551 58.1358L97.5852 57.9534C97.8724 57.5992 97.8013 57.0839 97.4389 56.8081C97.0847 56.521 96.5654 56.5978 96.2896 56.9602L96.196 57.0913C95.5339 57.935 94.9156 58.7412 94.2762 59.5409C93.9947 59.8992 94.0504 60.412 94.4087 60.6935C94.4201 60.7016 94.4315 60.7098 94.4429 60.7179L94.4526 60.7163ZM208.695 140.344C209.06 140.604 209.574 140.523 209.834 140.159C209.989 139.942 210.139 139.731 210.29 139.52C210.851 138.734 211.318 138.043 211.719 137.409C211.96 137.022 211.854 136.507 211.459 136.277C211.073 136.036 210.57 136.15 210.322 136.533C209.938 137.144 209.487 137.812 208.946 138.57C208.8 138.775 208.649 138.986 208.499 139.197C208.234 139.568 208.309 140.077 208.68 140.342L208.686 140.346L208.695 140.344ZM99.546 54.277C99.888 54.521 100.366 54.4663 100.648 54.1429C101.455 53.2047 102.177 52.4465 102.849 51.8421C103.185 51.54 103.213 51.0181 102.905 50.678C102.603 50.342 102.081 50.3138 101.741 50.6217C101.017 51.2749 100.257 52.0747 99.3996 53.0715C99.1011 53.4176 99.1428 53.9378 99.4873 54.2266C99.5101 54.2428 99.5272 54.255 99.55 54.2713L99.546 54.277ZM212.615 133.187C212.7 133.248 212.803 133.296 212.908 133.319C213.351 133.421 213.792 133.141 213.893 132.698C214.004 132.217 214.065 131.745 214.076 131.296C214.09 130.601 213.989 129.85 213.766 129.054C213.648 128.617 213.193 128.362 212.756 128.48C212.319 128.598 212.064 129.052 212.182 129.489C212.36 130.132 212.444 130.726 212.433 131.26C212.424 131.598 212.379 131.962 212.292 132.338C212.217 132.672 212.352 133 212.615 133.187ZM210.418 125.487C210.675 125.67 211.026 125.697 211.323 125.522C211.711 125.291 211.838 124.788 211.601 124.396C211.121 123.597 210.551 122.709 209.803 121.599C209.555 121.224 209.041 121.124 208.662 121.378C208.283 121.632 208.187 122.14 208.441 122.519C209.17 123.607 209.732 124.472 210.193 125.249C210.25 125.35 210.329 125.432 210.42 125.497L210.418 125.487ZM106.115 49.6995C106.269 49.8093 106.454 49.8638 106.653 49.8506C106.871 49.8342 107.106 49.83 107.353 49.834C108.032 49.8458 108.797 49.9439 109.691 50.1258C110.133 50.2176 110.571 49.9284 110.657 49.4822C110.749 49.0402 110.46 48.6015 110.014 48.5155C109.027 48.319 108.166 48.212 107.389 48.1913C107.086 48.1816 106.797 48.1899 106.524 48.2104C106.068 48.2465 105.733 48.6439 105.773 49.094C105.79 49.3472 105.921 49.5612 106.115 49.6995ZM205.876 118.651C206.144 118.842 206.519 118.86 206.813 118.665C207.192 118.411 207.288 117.903 207.039 117.527C206.349 116.493 205.792 115.622 205.292 114.792C205.055 114.4 204.548 114.279 204.166 114.514C203.777 114.744 203.652 115.257 203.887 115.64C204.402 116.497 204.972 117.386 205.675 118.438C205.735 118.524 205.802 118.598 205.882 118.655L205.876 118.651ZM114.126 51.312C114.195 51.3608 114.265 51.3941 114.346 51.4258C115.085 51.6688 115.84 51.9241 116.601 52.1833L117.447 52.4686C117.878 52.6125 118.342 52.3843 118.486 51.9536C118.63 51.5229 118.401 51.059 117.971 50.9152L117.125 50.6299C116.354 50.3722 115.592 50.113 114.848 49.8659C114.418 49.722 113.955 49.96 113.812 50.3907C113.699 50.7408 113.831 51.1103 114.116 51.3136L114.126 51.312ZM201.822 111.517C202.05 111.68 202.354 111.724 202.63 111.603C203.046 111.418 203.236 110.934 203.056 110.522C202.634 109.559 202.276 108.589 201.993 107.648L201.953 107.524C201.825 107.089 201.362 106.845 200.928 106.982C200.499 107.115 200.249 107.573 200.387 108.007L200.42 108.117C200.719 109.121 201.102 110.151 201.549 111.176C201.613 111.316 201.708 111.436 201.822 111.517ZM121.939 53.8412C122.013 53.8941 122.095 53.9355 122.196 53.964C123.349 54.2882 124.413 54.557 125.438 54.7722C125.88 54.864 126.315 54.5805 126.407 54.1384C126.498 53.6963 126.219 53.2561 125.773 53.17C124.779 52.9597 123.757 52.7038 122.64 52.3886C122.203 52.2659 121.748 52.5177 121.625 52.9549C121.527 53.2976 121.661 53.6517 121.935 53.8469L121.939 53.8412ZM130.009 55.2982C130.135 55.3876 130.279 55.4388 130.442 55.4518C130.705 55.4679 130.968 55.4743 131.235 55.4847C132.072 55.5055 132.942 55.4806 133.826 55.4231C134.277 55.3928 134.618 54.9994 134.588 54.5476C134.558 54.0959 134.164 53.755 133.712 53.7854C132.879 53.8444 132.058 53.8611 131.278 53.8461C131.031 53.8421 130.783 53.8284 130.534 53.8147C130.079 53.7905 129.695 54.1359 129.67 54.5917C129.653 54.8807 129.793 55.1436 130.015 55.3022L130.009 55.2982ZM199.722 103.61C199.881 103.724 200.087 103.785 200.298 103.754C200.751 103.699 201.069 103.289 201.013 102.836C200.89 101.828 200.805 100.778 200.758 99.6261C200.737 99.1726 200.352 98.8204 199.898 98.841C199.445 98.8615 199.093 99.2468 199.113 99.7002C199.168 100.901 199.255 101.986 199.385 103.034C199.414 103.27 199.543 103.474 199.726 103.604L199.722 103.61ZM138.166 54.5718C138.343 54.6979 138.578 54.7539 138.807 54.7107C139.812 54.5075 140.87 54.2554 142.047 53.943C142.49 53.8288 142.751 53.3785 142.633 52.9414C142.519 52.4986 142.069 52.2376 141.631 52.3558C140.481 52.6536 139.453 52.9007 138.477 53.0991C138.035 53.188 137.748 53.6278 137.836 54.0697C137.882 54.283 138.001 54.4539 138.166 54.5718ZM199.401 95.4149C199.532 95.5085 199.697 95.5662 199.868 95.5677C200.321 95.5724 200.692 95.2091 200.696 94.7565L200.716 93.2823C200.725 92.6783 200.729 92.0702 200.739 91.4662C200.743 91.0136 200.374 90.6385 199.923 90.6436C199.471 90.639 199.1 91.0022 199.101 91.4589C199.095 92.0572 199.092 92.6653 199.086 93.2636L199.072 94.7419C199.069 95.0236 199.205 95.2669 199.416 95.4174L199.401 95.4149ZM146.106 52.4862C146.306 52.6285 146.561 52.6813 146.81 52.6095C148.002 52.2646 148.99 51.9889 149.948 51.7434C150.387 51.6349 150.654 51.1887 150.539 50.7459C150.431 50.3072 149.975 50.042 149.542 50.1546C148.564 50.4034 147.557 50.6823 146.351 51.0346C145.915 51.1626 145.66 51.617 145.788 52.0525C145.844 52.2389 145.954 52.3861 146.102 52.4919L146.106 52.4862ZM173.397 69.7815C173.739 70.0256 174.222 69.9749 174.503 69.6418C174.796 69.2916 174.75 68.7771 174.41 68.4826C173.626 67.8204 172.868 67.0988 172.099 66.2835C171.787 65.9491 171.269 65.9404 170.938 66.2467C170.61 66.5627 170.595 67.0772 170.907 67.4116C171.719 68.2748 172.519 69.0347 173.354 69.7335C173.371 69.7457 173.388 69.7579 173.411 69.7742L173.397 69.7815ZM177.441 72.5895C177.441 72.5895 177.486 72.622 177.509 72.6383C178.437 73.171 179.414 73.6703 180.496 74.1671C180.91 74.359 181.395 74.1723 181.583 73.7644C181.775 73.3508 181.589 72.8649 181.181 72.6771C180.137 72.199 179.204 71.7224 178.326 71.2166C177.937 70.9905 177.433 71.1299 177.207 71.5191C176.997 71.8856 177.1 72.3552 177.443 72.5992L177.441 72.5895ZM199.273 87.203C199.427 87.3128 199.623 87.3754 199.83 87.3509C200.28 87.3108 200.613 86.9036 200.569 86.4591C200.441 85.0949 200.226 83.9863 199.919 83.0535C199.778 82.6254 199.311 82.3872 198.883 82.529C198.455 82.6709 198.217 83.1375 198.358 83.5656C198.624 84.3746 198.81 85.3676 198.932 86.6073C198.954 86.8548 199.089 87.0631 199.277 87.1973L199.273 87.203ZM184.924 75.9418C184.981 75.9825 185.048 76.0215 185.117 76.0451C185.941 76.3491 186.764 76.6434 187.582 76.9433L188.212 77.1693C188.635 77.3246 189.11 77.1045 189.264 76.6722C189.413 76.2456 189.193 75.7703 188.767 75.6207L188.136 75.3947C187.32 75.1046 186.507 74.8087 185.689 74.5087C185.266 74.3535 184.789 74.5637 184.63 74.992C184.498 75.3454 184.624 75.736 184.92 75.9475L184.924 75.9418ZM167.854 63.7451C168.139 63.9485 168.532 63.9532 168.826 63.7332C169.187 63.4571 169.261 62.9426 168.985 62.5821C168.418 61.8335 167.826 61.0238 167.069 59.9505C166.807 59.5827 166.295 59.4926 165.927 59.7549C165.559 60.0172 165.469 60.5293 165.731 60.8971C166.501 61.9883 167.101 62.8118 167.681 63.5783C167.733 63.6499 167.792 63.7004 167.86 63.7492L167.854 63.7451ZM192.607 78.8341C192.653 78.8667 192.698 78.8992 192.762 78.9187C193.899 79.4114 194.82 79.8798 195.582 80.3548C195.969 80.5964 196.476 80.4765 196.718 80.0897C196.959 79.7029 196.83 79.1974 196.453 78.9542C195.624 78.4402 194.635 77.9328 193.418 77.4084C193.006 77.2262 192.516 77.4186 192.34 77.8347C192.184 78.197 192.303 78.6088 192.617 78.8325L192.607 78.8341ZM154.118 50.7701C154.26 50.8717 154.441 50.9319 154.63 50.9204C154.869 50.9105 155.105 50.9063 155.336 50.9078C155.98 50.9205 156.506 51.0033 156.954 51.1593C157.114 51.213 157.277 51.2861 157.435 51.365C157.845 51.5626 158.334 51.3955 158.532 50.9859C158.729 50.5764 158.556 50.0831 158.153 49.8896C157.929 49.7815 157.712 49.6871 157.489 49.614C156.876 49.4002 156.184 49.285 155.363 49.2667C155.1 49.2603 154.825 49.2613 154.546 49.2777C154.093 49.2983 153.74 49.6835 153.761 50.1369C153.774 50.3958 153.903 50.6253 154.102 50.7676L154.118 50.7701ZM163.068 57.0701C163.348 57.2694 163.736 57.2798 164.03 57.0598C164.397 56.7877 164.477 56.2773 164.205 55.9111C163.438 54.8647 162.761 54.0038 162.133 53.2804C161.845 52.9371 161.322 52.8991 160.974 53.1931C160.627 53.4872 160.593 54.0049 160.887 54.3523C161.485 55.0456 162.131 55.8764 162.882 56.8854C162.934 56.957 163 57.0213 163.068 57.0701Z" fill="white"/>
<defs>
<filter id="filter0_d_160_22850" x="38.4801" y="41.6242" width="182.156" height="177.691" filterUnits="userSpaceOnUse" color-interpolation-filters="sRGB">
<feFlood flood-opacity="0" result="BackgroundImageFix"/>
<feColorMatrix in="SourceAlpha" type="matrix" values="0 0 0 0 0 0 0 0 0 0 0 0 0 0 0 0 0 0 127 0" result="hardAlpha"/>
<feOffset dy="2.1105"/>
<feComposite in2="hardAlpha" operator="out"/>
<feColorMatrix type="matrix" values="0 0 0 0 0.570833 0 0 0 0 0.111788 0 0 0 0 0.254824 0 0 0 1 0"/>
<feBlend mode="normal" in2="BackgroundImageFix" result="effect1_dropShadow_160_22850"/>
<feBlend mode="normal" in="SourceGraphic" in2="effect1_dropShadow_160_22850" result="shape"/>
</filter>
<linearGradient id="paint0_linear_160_22850" x1="78.4686" y1="201.056" x2="180.702" y2="57.771" gradientUnits="userSpaceOnUse">
<stop stop-color="#C43B67"/>
<stop offset="1" stop-color="#E53732"/>
</linearGradient>
</defs>
</svg>
