<svg width="154" height="174" viewBox="0 0 154 174" fill="none" xmlns="http://www.w3.org/2000/svg">
<mask id="path-1-inside-1_160_22742" fill="white">
<path d="M153.843 16C153.843 7.16343 146.68 0 137.843 0H16C7.16341 0 -4.57764e-05 7.16344 -4.57764e-05 16V157.394C-4.57764e-05 166.23 7.16341 173.394 16 173.394H137.843C146.68 173.394 153.843 166.23 153.843 157.394V16Z"/>
</mask>
<path d="M137.843 172.894C138.53 172.894 139.206 172.849 139.868 172.763L139.998 173.754C139.292 173.846 138.573 173.894 137.843 173.894V172.894ZM143.776 171.718C145.036 171.196 146.212 170.512 147.279 169.692L147.888 170.485C146.753 171.357 145.501 172.085 144.159 172.642L143.776 171.718ZM150.141 166.83C150.961 165.763 151.645 164.587 152.167 163.327L153.091 163.71C152.535 165.052 151.806 166.304 150.934 167.439L150.141 166.83ZM153.212 159.419C153.299 158.756 153.343 158.08 153.343 157.394H154.343C154.343 158.124 154.296 158.843 154.204 159.548L153.212 159.419ZM153.343 157.394V155.43H154.343V157.394H153.343ZM153.343 151.502V147.575H154.343V151.502H153.343ZM153.343 143.647V139.72H154.343V143.647H153.343ZM153.343 135.792V131.864H154.343V135.792H153.343ZM153.343 127.937V124.009H154.343V127.937H153.343ZM153.343 120.082V116.154H154.343V120.082H153.343ZM153.343 112.226V108.299H154.343V112.226H153.343ZM153.343 104.371V100.444H154.343V104.371H153.343ZM153.343 96.516V92.5883H154.343V96.516H153.343ZM153.343 88.6607V84.7331H154.343V88.6607H153.343ZM153.343 80.8055V76.8779H154.343V80.8055H153.343ZM153.343 72.9503V69.0227H154.343V72.9503H153.343ZM153.343 65.0951V61.1675H154.343V65.0951H153.343ZM153.343 57.2398V53.3122H154.343V57.2398H153.343ZM153.343 49.3846V45.457H154.343V49.3846H153.343ZM153.343 41.5294V37.6018H154.343V41.5294H153.343ZM153.343 33.6742V29.7466H154.343V33.6742H153.343ZM153.343 25.8189V21.8913H154.343V25.8189H153.343ZM153.343 17.9637V16H154.343V17.9637H153.343ZM153.343 16C153.343 15.3134 153.299 14.6375 153.212 13.9749L154.204 13.8456C154.296 14.5509 154.343 15.27 154.343 16H153.343ZM152.167 10.0669C151.645 8.80707 150.961 7.63085 150.141 6.56411L150.934 5.95478C151.806 7.09002 152.535 8.34217 153.091 9.68386L152.167 10.0669ZM147.279 3.70206C146.212 2.88232 145.036 2.19838 143.776 1.67595L144.159 0.752223C145.501 1.3086 146.753 2.03676 147.888 2.90914L147.279 3.70206ZM139.868 0.631036C139.206 0.544611 138.53 0.5 137.843 0.5V-0.5C138.573 -0.5 139.292 -0.452568 139.998 -0.360563L139.868 0.631036ZM137.843 0.5H135.813V-0.5H137.843V0.5ZM131.751 0.5H127.69V-0.5H131.751V0.5ZM123.628 0.5H119.567V-0.5H123.628V0.5ZM115.505 0.5H111.444V-0.5H115.505V0.5ZM107.382 0.5H103.321V-0.5H107.382V0.5ZM99.2595 0.5H95.1981V-0.5H99.2595V0.5ZM91.1367 0.5H87.0752V-0.5H91.1367V0.5ZM83.0138 0.5H78.9523V-0.5H83.0138V0.5ZM74.8909 0.5H70.8295V-0.5H74.8909V0.5ZM66.768 0.5H62.7066V-0.5H66.768V0.5ZM58.6451 0.5H54.5837V-0.5H58.6451V0.5ZM50.5222 0.5H46.4608V-0.5H50.5222V0.5ZM42.3993 0.5H38.3379V-0.5H42.3993V0.5ZM34.2764 0.5H30.215V-0.5H34.2764V0.5ZM26.1535 0.5H22.0921V-0.5H26.1535V0.5ZM18.0306 0.5H16V-0.5H18.0306V0.5ZM16 0.5C15.3134 0.5 14.6374 0.544611 13.9749 0.631036L13.8455 -0.360563C14.5509 -0.452568 15.27 -0.5 16 -0.5V0.5ZM10.0669 1.67595C8.80704 2.19839 7.63081 2.88232 6.56407 3.70207L5.95474 2.90915C7.08998 2.03677 8.34215 1.3086 9.68382 0.752226L10.0669 1.67595ZM3.70203 6.56412C2.88228 7.63086 2.19835 8.80708 1.6759 10.0669L0.752182 9.68387C1.30855 8.34219 2.03673 7.09003 2.9091 5.95479L3.70203 6.56412ZM0.630997 13.9749C0.544571 14.6375 0.499954 15.3134 0.499954 16H-0.500046C-0.500046 15.27 -0.452606 14.5509 -0.360611 13.8456L0.630997 13.9749ZM0.499954 16V17.9638H-0.500046V16H0.499954ZM0.499954 21.8914V25.819H-0.500046V21.8914H0.499954ZM0.499954 29.7466V33.6742H-0.500046V29.7466H0.499954ZM0.499954 37.6018V41.5295H-0.500046V37.6018H0.499954ZM0.499954 45.4571V49.3847H-0.500046V45.4571H0.499954ZM0.499954 53.3123V57.2399H-0.500046V53.3123H0.499954ZM0.499954 61.1675V65.0951H-0.500046V61.1675H0.499954ZM0.499954 69.0227V72.9503H-0.500046V69.0227H0.499954ZM0.499954 76.8779V80.8055H-0.500046V76.8779H0.499954ZM0.499954 84.7332V88.6608H-0.500046V84.7332H0.499954ZM0.499954 92.5884V96.516H-0.500046V92.5884H0.499954ZM0.499954 100.444V104.371H-0.500046V100.444H0.499954ZM0.499954 108.299V112.226H-0.500046V108.299H0.499954ZM0.499954 116.154V120.082H-0.500046V116.154H0.499954ZM0.499954 124.009V127.937H-0.500046V124.009H0.499954ZM0.499954 131.865V135.792H-0.500046V131.865H0.499954ZM0.499954 139.72V143.647H-0.500046V139.72H0.499954ZM0.499954 147.575V151.503H-0.500046V147.575H0.499954ZM0.499954 155.43V157.394H-0.500046V155.43H0.499954ZM0.499954 157.394C0.499954 158.08 0.544571 158.756 0.630997 159.419L-0.360611 159.548C-0.452606 158.843 -0.500046 158.124 -0.500046 157.394H0.499954ZM1.6759 163.327C2.19835 164.587 2.88228 165.763 3.70203 166.83L2.9091 167.439C2.03673 166.304 1.30855 165.052 0.752182 163.71L1.6759 163.327ZM6.56407 169.692C7.63081 170.512 8.80704 171.196 10.0669 171.718L9.68382 172.642C8.34215 172.085 7.08998 171.357 5.95474 170.485L6.56407 169.692ZM13.9749 172.763C14.6374 172.849 15.3134 172.894 16 172.894V173.894C15.27 173.894 14.5509 173.846 13.8455 173.754L13.9749 172.763ZM16 172.894H18.0307V173.894H16V172.894ZM22.0921 172.894H26.1536V173.894H22.0921V172.894ZM30.215 172.894H34.2765V173.894H30.215V172.894ZM38.3379 172.894H42.3993V173.894H38.3379V172.894ZM46.4608 172.894H50.5222V173.894H46.4608V172.894ZM54.5837 172.894H58.6451V173.894H54.5837V172.894ZM62.7066 172.894H66.768V173.894H62.7066V172.894ZM70.8294 172.894H74.8909V173.894H70.8294V172.894ZM78.9523 172.894H83.0138V173.894H78.9523V172.894ZM87.0752 172.894H91.1367V173.894H87.0752V172.894ZM95.1981 172.894H99.2596V173.894H95.1981V172.894ZM103.321 172.894H107.382V173.894H103.321V172.894ZM111.444 172.894H115.505V173.894H111.444V172.894ZM119.567 172.894H123.628V173.894H119.567V172.894ZM127.69 172.894H131.751V173.894H127.69V172.894ZM135.813 172.894H137.843V173.894H135.813V172.894ZM137.843 172.394C138.508 172.394 139.162 172.351 139.804 172.267L140.062 174.25C139.336 174.345 138.595 174.394 137.843 174.394V172.394ZM143.585 171.256C144.804 170.751 145.942 170.089 146.974 169.295L148.193 170.881C147.024 171.78 145.734 172.53 144.351 173.104L143.585 171.256ZM149.745 166.525C150.538 165.493 151.2 164.354 151.705 163.135L153.553 163.902C152.98 165.284 152.229 166.574 151.331 167.744L149.745 166.525ZM152.716 159.354C152.8 158.713 152.843 158.059 152.843 157.394H154.843C154.843 158.146 154.794 158.886 154.7 159.613L152.716 159.354ZM152.843 157.394V155.43H154.843V157.394H152.843ZM152.843 151.502V147.575H154.843V151.502H152.843ZM152.843 143.647V139.72H154.843V143.647H152.843ZM152.843 135.792V131.864H154.843V135.792H152.843ZM152.843 127.937V124.009H154.843V127.937H152.843ZM152.843 120.082V116.154H154.843V120.082H152.843ZM152.843 112.226V108.299H154.843V112.226H152.843ZM152.843 104.371V100.444H154.843V104.371H152.843ZM152.843 96.516V92.5883H154.843V96.516H152.843ZM152.843 88.6607V84.7331H154.843V88.6607H152.843ZM152.843 80.8055V76.8779H154.843V80.8055H152.843ZM152.843 72.9503V69.0227H154.843V72.9503H152.843ZM152.843 65.0951V61.1675H154.843V65.0951H152.843ZM152.843 57.2398V53.3122H154.843V57.2398H152.843ZM152.843 49.3846V45.457H154.843V49.3846H152.843ZM152.843 41.5294V37.6018H154.843V41.5294H152.843ZM152.843 33.6742V29.7466H154.843V33.6742H152.843ZM152.843 25.8189V21.8913H154.843V25.8189H152.843ZM152.843 17.9637V16H154.843V17.9637H152.843ZM152.843 16C152.843 15.3351 152.8 14.6808 152.716 14.0396L154.7 13.7809C154.794 14.5076 154.843 15.2483 154.843 16H152.843ZM151.705 10.2584C151.2 9.03952 150.538 7.90126 149.745 6.86877L151.331 5.65012C152.229 6.8196 152.98 8.10973 153.553 9.49233L151.705 10.2584ZM146.974 4.09852C145.942 3.3051 144.804 2.64328 143.585 2.13781L144.351 0.29036C145.734 0.863701 147.024 1.61398 148.193 2.51268L146.974 4.09852ZM139.804 1.12684C139.162 1.0432 138.508 1 137.843 1V-1C138.595 -1 139.336 -0.951158 140.062 -0.856363L139.804 1.12684ZM137.843 1H135.813V-1H137.843V1ZM131.751 1H127.69V-1H131.751V1ZM123.628 1H119.567V-1H123.628V1ZM115.505 1H111.444V-1H115.505V1ZM107.382 1H103.321V-1H107.382V1ZM99.2595 1H95.1981V-1H99.2595V1ZM91.1367 1H87.0752V-1H91.1367V1ZM83.0138 1H78.9523V-1H83.0138V1ZM74.8909 1H70.8295V-1H74.8909V1ZM66.768 1H62.7066V-1H66.768V1ZM58.6451 1H54.5837V-1H58.6451V1ZM50.5222 1H46.4608V-1H50.5222V1ZM42.3993 1H38.3379V-1H42.3993V1ZM34.2764 1H30.215V-1H34.2764V1ZM26.1535 1H22.0921V-1H26.1535V1ZM18.0306 1H16V-1H18.0306V1ZM16 1C15.3351 1 14.6807 1.0432 14.0396 1.12684L13.7809 -0.856363C14.5076 -0.951158 15.2483 -1 16 -1V1ZM10.2584 2.13781C9.03949 2.64328 7.90123 3.3051 6.86874 4.09853L5.65009 2.51269C6.81956 1.61399 8.1097 0.863705 9.49229 0.290363L10.2584 2.13781ZM4.09848 6.86878C3.30505 7.90127 2.64323 9.03953 2.13777 10.2584L0.290314 9.49234C0.863663 8.10974 1.61394 6.81961 2.51265 5.65013L4.09848 6.86878ZM1.12679 14.0396C1.04315 14.6808 0.999954 15.3351 0.999954 16H-1.00005C-1.00005 15.2484 -0.951202 14.5076 -0.856415 13.7809L1.12679 14.0396ZM0.999954 16V17.9638H-1.00005V16H0.999954ZM0.999954 21.8914V25.819H-1.00005V21.8914H0.999954ZM0.999954 29.7466V33.6742H-1.00005V29.7466H0.999954ZM0.999954 37.6018V41.5295H-1.00005V37.6018H0.999954ZM0.999954 45.4571V49.3847H-1.00005V45.4571H0.999954ZM0.999954 53.3123V57.2399H-1.00005V53.3123H0.999954ZM0.999954 61.1675V65.0951H-1.00005V61.1675H0.999954ZM0.999954 69.0227V72.9503H-1.00005V69.0227H0.999954ZM0.999954 76.8779V80.8055H-1.00005V76.8779H0.999954ZM0.999954 84.7332V88.6608H-1.00005V84.7332H0.999954ZM0.999954 92.5884V96.516H-1.00005V92.5884H0.999954ZM0.999954 100.444V104.371H-1.00005V100.444H0.999954ZM0.999954 108.299V112.226H-1.00005V108.299H0.999954ZM0.999954 116.154V120.082H-1.00005V116.154H0.999954ZM0.999954 124.009V127.937H-1.00005V124.009H0.999954ZM0.999954 131.865V135.792H-1.00005V131.865H0.999954ZM0.999954 139.72V143.647H-1.00005V139.72H0.999954ZM0.999954 147.575V151.503H-1.00005V147.575H0.999954ZM0.999954 155.43V157.394H-1.00005V155.43H0.999954ZM0.999954 157.394C0.999954 158.059 1.04315 158.713 1.12679 159.354L-0.856415 159.613C-0.951202 158.886 -1.00005 158.146 -1.00005 157.394H0.999954ZM2.13777 163.135C2.64323 164.354 3.30505 165.493 4.09848 166.525L2.51265 167.744C1.61394 166.574 0.863663 165.284 0.290314 163.902L2.13777 163.135ZM6.86874 169.295C7.90123 170.089 9.03949 170.751 10.2584 171.256L9.49229 173.104C8.1097 172.53 6.81956 171.78 5.65009 170.881L6.86874 169.295ZM14.0396 172.267C14.6807 172.351 15.3351 172.394 16 172.394V174.394C15.2483 174.394 14.5076 174.345 13.7809 174.25L14.0396 172.267ZM16 172.394H18.0307V174.394H16V172.394ZM22.0921 172.394H26.1536V174.394H22.0921V172.394ZM30.215 172.394H34.2765V174.394H30.215V172.394ZM38.3379 172.394H42.3993V174.394H38.3379V172.394ZM46.4608 172.394H50.5222V174.394H46.4608V172.394ZM54.5837 172.394H58.6451V174.394H54.5837V172.394ZM62.7066 172.394H66.768V174.394H62.7066V172.394ZM70.8294 172.394H74.8909V174.394H70.8294V172.394ZM78.9523 172.394H83.0138V174.394H78.9523V172.394ZM87.0752 172.394H91.1367V174.394H87.0752V172.394ZM95.1981 172.394H99.2596V174.394H95.1981V172.394ZM103.321 172.394H107.382V174.394H103.321V172.394ZM111.444 172.394H115.505V174.394H111.444V172.394ZM119.567 172.394H123.628V174.394H119.567V172.394ZM127.69 172.394H131.751V174.394H127.69V172.394ZM135.813 172.394H137.843V174.394H135.813V172.394Z" fill="url(#paint0_linear_160_22742)" mask="url(#path-1-inside-1_160_22742)"/>
<defs>
<linearGradient id="paint0_linear_160_22742" x1="29.8643" y1="36.3301" x2="135.502" y2="46.7584" gradientUnits="userSpaceOnUse">
<stop stop-color="#E76D51"/>
<stop offset="0.505208" stop-color="#D03A54" stop-opacity="0.37"/>
<stop offset="1" stop-color="#D03A54" stop-opacity="0"/>
</linearGradient>
</defs>
</svg>
