<svg width="48" height="48" viewBox="0 0 48 48" fill="none" xmlns="http://www.w3.org/2000/svg">
<path d="M30 45.4998H18C7.13998 45.4998 2.49998 40.8598 2.49998 29.9998V17.9998C2.49998 7.13976 7.13998 2.49976 18 2.49976H30C40.86 2.49976 45.5 7.13976 45.5 17.9998V29.9998C45.5 40.8598 40.86 45.4998 30 45.4998ZM18 5.49976C8.77998 5.49976 5.49998 8.77976 5.49998 17.9998V29.9998C5.49998 39.2198 8.77998 42.4998 18 42.4998H30C39.22 42.4998 42.5 39.2198 42.5 29.9998V17.9998C42.5 8.77976 39.22 5.49976 30 5.49976H18Z" fill="#E53732"/>
<path d="M21.5201 32.7401C20.6801 32.7401 19.9001 32.5401 19.2001 32.1401C17.6001 31.2201 16.6801 29.3401 16.6801 26.9601V21.0401C16.6801 18.6801 17.6001 16.7801 19.2001 15.8601C20.8001 14.9401 22.8801 15.0801 24.9401 16.2801L30.0801 19.2401C32.1201 20.4201 33.3001 22.1601 33.3001 24.0001C33.3001 25.8401 32.1201 27.5801 30.0801 28.7601L24.9401 31.7201C23.7801 32.4001 22.6001 32.7401 21.5201 32.7401Z" fill="#E53732"/>
</svg>
