<svg width="175" height="75" viewBox="0 0 175 75" fill="none" xmlns="http://www.w3.org/2000/svg">
<rect x="26.5" y="9.5" width="147" height="41" rx="20.5" fill="#10B73F" stroke="white" stroke-width="3"/>
<g filter="url(#filter0_d_29_118)">
<mask id="path-2-outside-1_29_118" maskUnits="userSpaceOnUse" x="6" y="0" width="58" height="60" fill="black">
<rect fill="white" x="6" width="58" height="60"/>
<path fill-rule="evenodd" clip-rule="evenodd" d="M34.5554 54.1109C48.6693 54.1109 60.1109 42.6693 60.1109 28.5554C60.1109 14.4416 48.6693 3 34.5554 3C20.4416 3 9 14.4416 9 28.5554C9 35.5314 11.7951 41.8545 16.3265 46.4659L15.782 55.2164L25.6428 52.5137C28.4178 53.5465 31.4207 54.1109 34.5554 54.1109Z"/>
</mask>
<path fill-rule="evenodd" clip-rule="evenodd" d="M34.5554 54.1109C48.6693 54.1109 60.1109 42.6693 60.1109 28.5554C60.1109 14.4416 48.6693 3 34.5554 3C20.4416 3 9 14.4416 9 28.5554C9 35.5314 11.7951 41.8545 16.3265 46.4659L15.782 55.2164L25.6428 52.5137C28.4178 53.5465 31.4207 54.1109 34.5554 54.1109Z" fill="#10B73F"/>
<path d="M16.3265 46.4659L19.3207 46.6522L19.4037 45.3173L18.4663 44.3633L16.3265 46.4659ZM15.782 55.2164L12.7878 55.0301L12.5272 59.2191L16.575 58.1097L15.782 55.2164ZM25.6428 52.5137L26.6892 49.7021L25.7827 49.3648L24.8499 49.6204L25.6428 52.5137ZM57.1109 28.5554C57.1109 41.0125 47.0125 51.1109 34.5554 51.1109V57.1109C50.3262 57.1109 63.1109 44.3262 63.1109 28.5554H57.1109ZM34.5554 6C47.0125 6 57.1109 16.0984 57.1109 28.5554H63.1109C63.1109 12.7847 50.3262 0 34.5554 0V6ZM12 28.5554C12 16.0984 22.0984 6 34.5554 6V0C18.7847 0 6 12.7847 6 28.5554H12ZM18.4663 44.3633C14.4638 40.2901 12 34.7135 12 28.5554H6C6 36.3493 9.12639 43.4189 14.1867 48.5686L18.4663 44.3633ZM18.7762 55.4027L19.3207 46.6522L13.3323 46.2796L12.7878 55.0301L18.7762 55.4027ZM24.8499 49.6204L14.989 52.3231L16.575 58.1097L26.4358 55.407L24.8499 49.6204ZM34.5554 51.1109C31.7833 51.1109 29.1344 50.6121 26.6892 49.7021L24.5965 55.3254C27.7012 56.4808 31.0582 57.1109 34.5554 57.1109V51.1109Z" fill="white" mask="url(#path-2-outside-1_29_118)"/>
<path fill-rule="evenodd" clip-rule="evenodd" d="M41.5432 40.0251C40.6841 40.0622 39.8637 39.8632 39.0413 39.6394C33.5104 38.0347 29.3596 34.5387 26.0251 29.935C24.7644 28.2056 23.5978 26.4142 23.2096 24.2609C22.7437 21.6724 23.4803 19.483 25.3876 17.6906C25.9945 17.1306 27.8435 16.8821 28.5832 17.243C28.858 17.3802 29.0327 17.6287 29.1471 17.8907C29.8459 19.5706 30.5365 21.2248 31.221 22.9048C31.3507 23.2286 31.2945 23.539 31.1505 23.8628C30.799 24.6342 30.2351 25.2561 29.662 25.8656C29.2278 26.3142 29.2084 26.7246 29.5292 27.2599C31.4825 30.5445 34.1857 32.934 37.7204 34.3644C38.2475 34.5758 38.6449 34.5015 38.9953 34.054C39.5838 33.3197 40.2059 32.5854 40.7637 31.8264C41.1458 31.2912 41.5831 31.2169 42.1225 31.4655C43.2902 32.0007 44.4578 32.5607 45.6266 33.1207C45.8881 33.2331 46.1476 33.3702 46.406 33.494C47.5891 34.0911 47.5778 34.1035 47.4757 35.4225C47.2785 37.9976 45.365 39.2681 43.0971 39.9024C42.5975 40.0385 42.0673 40.0519 41.5442 40.0261L41.5432 40.0251Z" fill="#FDFDFD"/>
</g>
<path d="M70.272 29.304C70.272 32.616 72.512 35.192 75.776 35.192C76.976 35.192 79.376 34.84 79.376 33.304C79.376 32.936 79.04 32.216 78.32 32.216C77.664 32.216 77.136 32.888 75.776 32.888C73.808 32.888 72.768 31.256 72.768 29.352C72.768 27.4 73.792 25.72 75.776 25.72C77.136 25.72 77.584 26.28 78.224 26.28C78.816 26.28 79.216 25.784 79.216 25.208C79.216 23.8 76.928 23.416 75.776 23.416C72.512 23.416 70.272 25.96 70.272 29.304ZM88.4693 33.592V27.896C88.4693 27.304 88.4693 26.392 87.3653 26.392C86.8053 26.392 86.3253 26.792 86.2613 27.352C85.7492 26.632 84.9173 26.296 84.0693 26.296C81.9572 26.296 80.2612 28.248 80.2612 30.76C80.2612 33.352 81.8932 35.192 84.0693 35.192C84.9332 35.192 85.6693 34.84 86.2613 34.12C86.4373 34.744 86.6773 35.096 87.3653 35.096C88.4693 35.096 88.4693 34.184 88.4693 33.592ZM82.5652 30.76C82.5652 29.672 83.1093 28.408 84.3893 28.408C85.6052 28.408 86.1653 29.672 86.1653 30.76C86.1653 31.864 85.5893 33.08 84.3893 33.08C83.1572 33.08 82.5652 31.864 82.5652 30.76ZM89.9447 27.672V33.816C89.9447 34.584 90.4087 35.096 91.0967 35.096C91.7847 35.096 92.2487 34.584 92.2487 33.816V29.8C92.2487 28.904 92.7607 28.216 93.7207 28.216C94.5528 28.216 95.2248 28.712 95.2248 29.8V33.816C95.2248 34.584 95.6887 35.096 96.3767 35.096C97.0648 35.096 97.5288 34.584 97.5288 33.816V29.4C97.5288 27.432 96.1848 26.296 94.3767 26.296C93.2887 26.296 92.6007 26.616 92.1527 27.24C92.0727 26.712 91.6887 26.392 91.0967 26.392C90.4087 26.392 89.9447 26.904 89.9447 27.672ZM98.9634 23.96V33.816C98.9634 34.584 99.4274 35.096 100.115 35.096C100.803 35.096 101.267 34.584 101.267 33.816V23.96C101.267 23.192 100.803 22.68 100.115 22.68C99.4274 22.68 98.9634 23.192 98.9634 23.96ZM102.67 27.672V33.816C102.67 34.584 103.134 35.096 103.822 35.096C104.51 35.096 104.974 34.584 104.974 33.816V27.672C104.974 26.904 104.51 26.392 103.822 26.392C103.134 26.392 102.67 26.904 102.67 27.672ZM110.914 24.84V33.8C110.914 34.712 111.65 35 112.178 35H114.962C118.242 35 120.434 32.84 120.434 29.464C120.434 25.928 118.386 23.608 114.802 23.608H112.146C111.426 23.608 110.914 24.088 110.914 24.84ZM113.314 32.792V25.816H114.77C116.994 25.816 117.938 27.304 117.938 29.352C117.938 31.272 116.994 32.792 114.93 32.792H113.314ZM123.538 31.512H128.45C129.154 31.512 129.458 31.176 129.458 30.488C129.458 28.568 127.81 26.296 125.314 26.296C122.882 26.296 121.186 28.408 121.186 30.76C121.186 33.304 122.914 35.192 125.506 35.192C127.234 35.192 129.266 34.216 129.266 33.24C129.266 32.744 128.818 32.248 128.322 32.248C127.714 32.248 126.898 33.176 125.714 33.176C124.626 33.176 123.714 32.664 123.538 31.512ZM127.154 29.976H123.49C123.602 29 124.29 28.216 125.314 28.216C126.402 28.216 127.026 28.952 127.154 29.976ZM136.228 27.96C136.228 26.824 134.5 26.296 133.348 26.296C131.524 26.296 130.228 27.384 130.228 28.984C130.228 31.624 134.228 31.464 134.228 32.52C134.228 32.952 134.02 33.176 133.316 33.176C132.228 33.176 131.828 32.392 130.932 32.392C130.292 32.392 129.94 33.08 129.94 33.416C129.94 34.456 131.86 35.192 133.156 35.192C135.14 35.192 136.436 34.024 136.436 32.488C136.436 29.864 132.436 30.04 132.436 28.952C132.436 28.504 132.788 28.312 133.22 28.312C133.988 28.312 134.836 28.984 135.284 28.984C135.844 28.984 136.228 28.488 136.228 27.96ZM137.969 28.504V33.816C137.969 34.584 138.433 35.096 139.121 35.096C139.809 35.096 140.273 34.584 140.273 33.816V28.504H140.929C141.521 28.504 142.033 28.216 142.033 27.496C142.033 26.744 141.521 26.488 140.929 26.488H140.273V25.112C140.273 24.344 139.809 23.832 139.121 23.832C138.433 23.832 137.969 24.344 137.969 25.112V26.488H137.457C136.881 26.488 136.449 26.92 136.449 27.496C136.449 28.12 136.833 28.504 137.457 28.504H137.969ZM144.159 31.512H149.071C149.775 31.512 150.079 31.176 150.079 30.488C150.079 28.568 148.431 26.296 145.935 26.296C143.503 26.296 141.807 28.408 141.807 30.76C141.807 33.304 143.535 35.192 146.127 35.192C147.855 35.192 149.887 34.216 149.887 33.24C149.887 32.744 149.439 32.248 148.943 32.248C148.335 32.248 147.519 33.176 146.335 33.176C145.247 33.176 144.335 32.664 144.159 31.512ZM147.775 29.976H144.111C144.223 29 144.911 28.216 145.935 28.216C147.023 28.216 147.647 28.952 147.775 29.976ZM151.057 23.96V33.816C151.057 34.584 151.521 35.096 152.209 35.096C152.897 35.096 153.361 34.584 153.361 33.816V31.016H153.393L156.209 34.488C156.577 34.936 156.881 35.192 157.313 35.192C157.937 35.192 158.401 34.728 158.401 34.104C158.401 33.848 158.321 33.576 158.113 33.336L155.409 30.168L157.457 28.344C157.793 28.04 157.905 27.768 157.905 27.432C157.905 26.92 157.505 26.392 156.929 26.392C156.625 26.392 156.257 26.52 155.889 26.888L153.361 29.336V23.96C153.361 23.192 152.897 22.68 152.209 22.68C151.521 22.68 151.057 23.192 151.057 23.96Z" fill="white"/>
<defs>
<filter id="filter0_d_29_118" x="0" y="0" width="69.1108" height="74.2192" filterUnits="userSpaceOnUse" color-interpolation-filters="sRGB">
<feFlood flood-opacity="0" result="BackgroundImageFix"/>
<feColorMatrix in="SourceAlpha" type="matrix" values="0 0 0 0 0 0 0 0 0 0 0 0 0 0 0 0 0 0 127 0" result="hardAlpha"/>
<feOffset dy="9"/>
<feGaussianBlur stdDeviation="3"/>
<feComposite in2="hardAlpha" operator="out"/>
<feColorMatrix type="matrix" values="0 0 0 0 0 0 0 0 0 0 0 0 0 0 0 0 0 0 0.11 0"/>
<feBlend mode="normal" in2="BackgroundImageFix" result="effect1_dropShadow_29_118"/>
<feBlend mode="normal" in="SourceGraphic" in2="effect1_dropShadow_29_118" result="shape"/>
</filter>
</defs>
</svg>
