<svg width="30" height="20" viewBox="0 0 30 20" fill="none" xmlns="http://www.w3.org/2000/svg">
<path d="M28.8592 4.31111C28.8592 4.31111 28.5744 2.35556 27.6975 1.48889C26.5928 0.355556 25.3514 0.355556 24.7706 0.288889C20.7049 0 14.589 0 14.589 0H14.5776C14.5776 0 8.46187 0 4.37329 0.288889C3.80386 0.355556 2.56245 0.355556 1.44637 1.48889C0.580827 2.35556 0.29611 4.31111 0.29611 4.31111C0.29611 4.31111 0 6.62222 0 8.92222V11.0778C0 13.3778 0.29611 15.6778 0.29611 15.6778C0.29611 15.6778 0.580827 17.6333 1.45776 18.5C2.56245 19.6333 4.02022 19.6 4.6694 19.7111C7.0041 19.9333 14.5776 20 14.5776 20C14.5776 20 20.7048 19.9889 24.782 19.7C25.3514 19.6333 26.5928 19.6333 27.7089 18.5C28.5858 17.6333 28.8706 15.6778 28.8706 15.6778C28.8706 15.6778 29.1667 13.3778 29.1667 11.0778V8.92222C29.1553 6.62222 28.8592 4.31111 28.8592 4.31111ZM11.5711 13.6889V5.7L19.452 9.71111L11.571 13.6889H11.5711Z" fill="#E52D27"/>
</svg>
